{
.appVersion = "1075";
classes = (
{
code = "B C D F G H J K L M N P Q R S T V W X Y Z";
name = capsCon0;
},
{
code = "B.ss01 C.ss01 D.ss01 F.ss01 G.ss01 H.ss01 J.ss01 K.ss01 L.ss01 M.ss01 N.ss01 P.ss01 Q.ss01 R.ss01 S.ss01 T.ss01 V.ss01 W.ss01 X.ss01 Y.ss01 Z.ss01";
name = capsCon1;
},
{
code = "B.ss02 C.ss02 D.ss02 F.ss02 G.ss02 H.ss02 J.ss02 K.ss02 L.ss02 M.ss02 N.ss02 P.ss02 Q.ss02 R.ss02 S.ss02 T.ss02 V.ss02 W.ss02 X.ss02 Y.ss02 Z.ss02";
name = capsCon2;
},
{
code = "a b c d e f g h i j k l m n o p q r s t u v w x y z a.ss01 b.ss01 c.ss01 d.ss01 e.ss01 f.ss01 g.ss01 h.ss01 i.ss01 j.ss01 k.ss01 l.ss01 m.ss01 n.ss01 o.ss01 p.ss01 q.ss01 r.ss01 s.ss01 t.ss01 u.ss01 v.ss01 w.ss01 x.ss01 y.ss01 z.ss01 a.ss02 b.ss02 c.ss02 d.ss02 e.ss02 f.ss02 g.ss02 h.ss02 i.ss02 j.ss02 k.ss02 l.ss02 m.ss02 n.ss02 o.ss02 p.ss02 q.ss02 r.ss02 s.ss02 t.ss02 u.ss02 v.ss02 w.ss02 x.ss02 y.ss02 z.ss02 f_f_i f_f_l f_i f_l f_f f_t space";
name = capsEtc;
},
{
code = "A E I O U";
name = capsVoc0;
},
{
code = "A.ss01 E.ss01 I.ss01 O.ss01 U.ss01";
name = capsVoc1;
},
{
code = "A.ss02 E.ss02 I.ss02 O.ss02 U.ss02";
name = capsVoc2;
},
{
code = "b c d f g h j k l m n p q r s t v w x y z";
name = lowerCon0;
},
{
code = "b.ss01 c.ss01 d.ss01 f.ss01 g.ss01 h.ss01 j.ss01 k.ss01 l.ss01 m.ss01 n.ss01 p.ss01 q.ss01 r.ss01 s.ss01 t.ss01 v.ss01 w.ss01 x.ss01 y.ss01 z.ss01";
name = lowerCon1;
},
{
code = "b.ss02 c.ss02 d.ss02 f.ss02 g.ss02 h.ss02 j.ss02 k.ss02 l.ss02 m.ss02 n.ss02 p.ss02 q.ss02 r.ss02 s.ss02 t.ss02 v.ss02 w.ss02 x.ss02 y.ss02 z.ss02";
name = lowerCon2;
},
{

glyphs = (
{
color = 9;
glyphname = "Be-cy.ss01";
lastChange = "2017-12-15 09:51:13 +0000";
layers = (
{
layerId = UUID0;
paths = (
{
closed = 1;
nodes = (
"719 683 OFFCURVE",
"712 693 OFFCURVE",
"705 697 CURVE",
"705 697 OFFCURVE",
"661 712 OFFCURVE",
"650 714 CURVE SMOOTH",
"574 726 OFFCURVE",
"489 716 OFFCURVE",
"412 713 CURVE SMOOTH",
"396 712 OFFCURVE",
"379 708 OFFCURVE",
"363 708 CURVE SMOOTH",
"330 708 OFFCURVE",
"272 708 OFFCURVE",
"272 661 CURVE SMOOTH",
"272 641 OFFCURVE",
"289 623 OFFCURVE",
"306 616 CURVE",
"272 553 OFFCURVE",
"243 488 OFFCURVE",
"213 423 CURVE SMOOTH",
"214 424 LINE SMOOTH",
"203 398 OFFCURVE",
"197 371 OFFCURVE",
"187 345 CURVE",
"187 346 LINE",
"171 303 LINE",
"171 304 LINE",
"142 237 OFFCURVE",
"131 164 OFFCURVE",
"111 95 CURVE SMOOTH",
"105 73 OFFCURVE",
"92 54 OFFCURVE",
"101 31 CURVE SMOOTH",
"108 12 OFFCURVE",
"147 -23 OFFCURVE",
"165 -32 CURVE SMOOTH",
"178 -38 OFFCURVE",
"253 -35 OFFCURVE",
"269 -32 CURVE SMOOTH",
"409 -6 OFFCURVE",
"584 132 OFFCURVE",
"565 290 CURVE SMOOTH",
"563 309 OFFCURVE",
"541 356 OFFCURVE",
"526 368 CURVE",
"526 370 LINE",
"504 406 OFFCURVE",
"437 442 OFFCURVE",
"396 448 CURVE SMOOTH",
"376 451 OFFCURVE",
"356 450 OFFCURVE",
"336 452 CURVE",
"361 509 OFFCURVE",
"394 564 OFFCURVE",
"427 617 CURVE",
"489 624 OFFCURVE",
"650 608 OFFCURVE",
"691 626 CURVE SMOOTH",
"708 634 OFFCURVE",
"723 657 OFFCURVE",
"723 676 CURVE"
);
},
{
closed = 1;
nodes = (
"236 209 OFFCURVE",
"283 320 OFFCURVE",
"299 355 CURVE SMOOTH",
"300 358 LINE",
"313 358 OFFCURVE",
"355 363 OFFCURVE",
"358 363 CURVE SMOOTH",
"368 362 OFFCURVE",
"378 357 OFFCURVE",
"388 355 CURVE SMOOTH",
"435 344 OFFCURVE",
"474 321 OFFCURVE",
"474 266 CURVE SMOOTH",
"474 192 OFFCURVE",
"386 122 OFFCURVE",
"326 90 CURVE SMOOTH",
"313 83 OFFCURVE",
"300 75 OFFCURVE",
"285 72 CURVE",
"286 73 LINE",
"270 71 OFFCURVE",
"263 59 OFFCURVE",
"244 63 CURVE",
"231 60 OFFCURVE",
"218 57 OFFCURVE",
"204 57 CURVE",
"208 85 OFFCURVE",
"223 152 OFFCURVE",
"235 176 CURVE"
);
}
);
width = 733;
},
{
layerId = "BF4C3430-0F48-4C30-8275-6D85863A5F93";
paths = (
{
closed = 1;
nodes = (
"719 683 OFFCURVE",
"712 693 OFFCURVE",
"705 697 CURVE",
"705 697 OFFCURVE",
"661 712 OFFCURVE",
"650 714 CURVE SMOOTH",
"574 726 OFFCURVE",
"489 716 OFFCURVE",
"412 713 CURVE SMOOTH",
"396 712 OFFCURVE",
"379 708 OFFCURVE",
"363 708 CURVE SMOOTH",
"330 708 OFFCURVE",
"272 708 OFFCURVE",
"272 661 CURVE SMOOTH",
"272 641 OFFCURVE",
"289 623 OFFCURVE",
"306 616 CURVE",
"272 553 OFFCURVE",
"243 488 OFFCURVE",
"213 423 CURVE SMOOTH",
"214 424 LINE SMOOTH",
"203 398 OFFCURVE",
"197 371 OFFCURVE",
"187 345 CURVE",
"187 346 LINE",
"171 303 LINE",
"171 304 LINE",
"142 237 OFFCURVE",
"131 164 OFFCURVE",
"111 95 CURVE SMOOTH",
"105 73 OFFCURVE",
"92 54 OFFCURVE",
"101 31 CURVE SMOOTH",
"108 12 OFFCURVE",
"147 -23 OFFCURVE",
"165 -32 CURVE SMOOTH",
"178 -38 OFFCURVE",
"253 -35 OFFCURVE",
"269 -32 CURVE SMOOTH",
"409 -6 OFFCURVE",
"584 132 OFFCURVE",
"565 290 CURVE SMOOTH",
"563 309 OFFCURVE",
"541 356 OFFCURVE",
"526 368 CURVE",
"526 370 LINE",
"504 406 OFFCURVE",
"437 442 OFFCURVE",
"396 448 CURVE SMOOTH",
"376 451 OFFCURVE",
"356 450 OFFCURVE",
"336 452 CURVE",
"361 509 OFFCURVE",
"394 564 OFFCURVE",
"427 617 CURVE",
"489 624 OFFCURVE",
"650 608 OFFCURVE",
"691 626 CURVE SMOOTH",
"708 634 OFFCURVE",
"723 657 OFFCURVE",
"723 676 CURVE"
);
},
{
closed = 1;
nodes = (
"236 209 OFFCURVE",
"283 320 OFFCURVE",
"299 355 CURVE SMOOTH",
"300 358 LINE",
"313 358 OFFCURVE",
"355 363 OFFCURVE",
"358 363 CURVE SMOOTH",
"368 362 OFFCURVE",
"378 357 OFFCURVE",
"388 355 CURVE SMOOTH",
"435 344 OFFCURVE",
"474 321 OFFCURVE",
"474 266 CURVE SMOOTH",
"474 192 OFFCURVE",
"386 122 OFFCURVE",
"326 90 CURVE SMOOTH",
"313 83 OFFCURVE",
"300 75 OFFCURVE",
"285 72 CURVE",
"286 73 LINE",
"270 71 OFFCURVE",
"263 59 OFFCURVE",
"244 63 CURVE",
"231 60 OFFCURVE",
"218 57 OFFCURVE",
"204 57 CURVE",
"208 85 OFFCURVE",
"223 152 OFFCURVE",
"235 176 CURVE"
);
}
);
width = 733;
}
);
},
{
color = 9;
glyphname = "De-cy.ss01";
lastChange = "2017-12-15 09:51:13 +0000";
layers = (
{
layerId = UUID0;
paths = (
{
closed = 1;
nodes = (
"758 495 LINE",
"765 513 OFFCURVE",
"773 530 OFFCURVE",
"776 549 CURVE",
"784 557 OFFCURVE",
"785 569 OFFCURVE",
"788 579 CURVE SMOOTH",
"798 607 OFFCURVE",
"810 632 OFFCURVE",
"802 662 CURVE",
"784 687 LINE SMOOTH",
"766 711 OFFCURVE",
"750 712 OFFCURVE",
"723 706 CURVE SMOOTH",
"712 703 OFFCURVE",
"656 710 OFFCURVE",
"643 712 CURVE SMOOTH",
"623 714 OFFCURVE",
"603 717 OFFCURVE",
"583 717 CURVE SMOOTH",
"566 717 OFFCURVE",
"550 713 OFFCURVE",
"533 717 CURVE",
"525 729 LINE",
"512 732 OFFCURVE",
"501 736 OFFCURVE",
"489 741 CURVE",
"477 732 OFFCURVE",
"469 721 OFFCURVE",
"461 708 CURVE",
"421 703 OFFCURVE",
"361 695 OFFCURVE",
"327 673 CURVE",
"318 634 OFFCURVE",
"337 575 OFFCURVE",
"387 592 CURVE SMOOTH",
"399 596 OFFCURVE",
"410 599 OFFCURVE",
"422 603 CURVE",
"422 601 LINE",
"386 507 OFFCURVE",
"235 115 OFFCURVE",
"168 73 CURVE SMOOTH",
"149 61 OFFCURVE",
"117 86 OFFCURVE",
"81 42 CURVE SMOOTH",
"73 32 OFFCURVE",
"68 22 OFFCURVE",
"68 9 CURVE SMOOTH",
"68 -38 OFFCURVE",
"44 -81 OFFCURVE",
"44 -128 CURVE SMOOTH",
"44 -154 OFFCURVE",
"75 -187 OFFCURVE",
"101 -188 CURVE",
"113 -182 OFFCURVE",
"124 -177 OFFCURVE",
"136 -172 CURVE",
"147 -143 OFFCURVE",
"141 -138 OFFCURVE",
"144 -112 CURVE SMOOTH",
"148 -85 OFFCURVE",
"157 -52 OFFCURVE",
"168 -27 CURVE",
"211 -15 OFFCURVE",
"291 -1 OFFCURVE",
"335 0 CURVE SMOOTH",
"354 1 OFFCURVE",
"375 0 OFFCURVE",
"394 3 CURVE SMOOTH",
"420 7 OFFCURVE",
"580 29 OFFCURVE",
"593 25 CURVE",
"603 25 OFFCURVE",
"642 15 OFFCURVE",
"645 16 CURVE",
"628 -17 OFFCURVE",
"602 -50 OFFCURVE",
"589 -85 CURVE SMOOTH",
"573 -130 OFFCURVE",
"615 -209 OFFCURVE",
"668 -172 CURVE",
"675 -145 OFFCURVE",
"686 -111 OFFCURVE",
"704 -90 CURVE",
"702 -94 LINE SMOOTH",
"708 -86 OFFCURVE",
"714 -76 OFFCURVE",
"717 -66 CURVE SMOOTH",
"716 -67 LINE",
"720 -53 OFFCURVE",
"738 -27 OFFCURVE",
"746 -14 CURVE",
"745 -14 LINE",
"761 8 OFFCURVE",
"778 33 OFFCURVE",
"778 61 CURVE SMOOTH",
"778 131 OFFCURVE",
"672 119 OFFCURVE",
"627 124 CURVE",
"666 250 OFFCURVE",
"714 372 OFFCURVE",
"758 496 CURVE"
);
},
{
closed = 1;
nodes = (
"619 624 OFFCURVE",
"667 622 OFFCURVE",
"700 614 CURVE",
"688 574 OFFCURVE",
"672 536 OFFCURVE",
"658 497 CURVE SMOOTH",
"646 464 OFFCURVE",
"636 430 OFFCURVE",
"623 397 CURVE SMOOTH",
"616 379 OFFCURVE",
"606 361 OFFCURVE",
"599 343 CURVE SMOOTH",
"596 335 OFFCURVE",
"593 327 OFFCURVE",
"592 319 CURVE",
"592 320 LINE",
"578 284 OFFCURVE",
"571 246 OFFCURVE",
"555 211 CURVE",
"554 197 OFFCURVE",
"550 183 OFFCURVE",
"544 170 CURVE",
"544 171 LINE",
"537 154 OFFCURVE",
"532 136 OFFCURVE",
"532 118 CURVE",
"490 113 OFFCURVE",
"448 108 OFFCURVE",
"407 101 CURVE SMOOTH",
"388 98 OFFCURVE",
"369 100 OFFCURVE",
"349 97 CURVE",
"350 97 LINE",
"335 95 LINE",
"334 59 LINE",
"316 57 OFFCURVE",
"268 58 OFFCURVE",
"278 89 CURVE",
"293 77 LINE",
"365 198 OFFCURVE",
"420 335 OFFCURVE",
"464 469 CURVE SMOOTH",
"469 484 OFFCURVE",
"478 500 OFFCURVE",
"484 515 CURVE SMOOTH",
"499 550 OFFCURVE",
"514 586 OFFCURVE",
"527 622 CURVE",
"546 622 OFFCURVE",
"566 622 OFFCURVE",
"584 628 CURVE"
);
}
);
width = 815;
},
{
layerId = "BF4C3430-0F48-4C30-8275-6D85863A5F93";
paths = (
{
closed = 1;
nodes = (
"758 495 LINE",
"765 513 OFFCURVE",
"773 530 OFFCURVE",
"776 549 CURVE",
"784 557 OFFCURVE",
"785 569 OFFCURVE",
"788 579 CURVE SMOOTH",
"798 607 OFFCURVE",
"810 632 OFFCURVE",
"802 662 CURVE",
"784 687 LINE SMOOTH",
"766 711 OFFCURVE",
"750 712 OFFCURVE",
"723 706 CURVE SMOOTH",
"712 703 OFFCURVE",
"656 710 OFFCURVE",
"643 712 CURVE SMOOTH",
"623 714 OFFCURVE",
"603 717 OFFCURVE",
"583 717 CURVE SMOOTH",
"566 717 OFFCURVE",
"550 713 OFFCURVE",
"533 717 CURVE",
"525 729 LINE",
"512 732 OFFCURVE",
"501 736 OFFCURVE",
"489 741 CURVE",
"477 732 OFFCURVE",
"469 721 OFFCURVE",
"461 708 CURVE",
"421 703 OFFCURVE",
"361 695 OFFCURVE",
"327 673 CURVE",
"318 634 OFFCURVE",
"337 575 OFFCURVE",
"387 592 CURVE SMOOTH",
"399 596 OFFCURVE",
"410 599 OFFCURVE",
"422 603 CURVE",
"422 601 LINE",
"386 507 OFFCURVE",
"235 115 OFFCURVE",
"168 73 CURVE SMOOTH",
"149 61 OFFCURVE",
"117 86 OFFCURVE",
"81 42 CURVE SMOOTH",
"73 32 OFFCURVE",
"68 22 OFFCURVE",
"68 9 CURVE SMOOTH",
"68 -38 OFFCURVE",
"44 -81 OFFCURVE",
"44 -128 CURVE SMOOTH",
"44 -154 OFFCURVE",
"75 -187 OFFCURVE",
"101 -188 CURVE",
"113 -182 OFFCURVE",
"124 -177 OFFCURVE",
"136 -172 CURVE",
"147 -143 OFFCURVE",
"141 -138 OFFCURVE",
"144 -112 CURVE SMOOTH",
"148 -85 OFFCURVE",
"157 -52 OFFCURVE",
"168 -27 CURVE",
"211 -15 OFFCURVE",
"291 -1 OFFCURVE",
"335 0 CURVE SMOOTH",
"354 1 OFFCURVE",
"375 0 OFFCURVE",
"394 3 CURVE SMOOTH",
"420 7 OFFCURVE",
"580 29 OFFCURVE",
"593 25 CURVE",
"603 25 OFFCURVE",
"642 15 OFFCURVE",
"645 16 CURVE",
"628 -17 OFFCURVE",
"602 -50 OFFCURVE",
"589 -85 CURVE SMOOTH",
"573 -130 OFFCURVE",
"615 -209 OFFCURVE",
"668 -172 CURVE",
"675 -145 OFFCURVE",
"686 -111 OFFCURVE",
"704 -90 CURVE",
"702 -94 LINE SMOOTH",
"708 -86 OFFCURVE",
"714 -76 OFFCURVE",
"717 -66 CURVE SMOOTH",
"716 -67 LINE",
"720 -53 OFFCURVE",
"738 -27 OFFCURVE",
"746 -14 CURVE",
"745 -14 LINE",
"761 8 OFFCURVE",
"778 33 OFFCURVE",
"778 61 CURVE SMOOTH",
"778 131 OFFCURVE",
"672 119 OFFCURVE",
"627 124 CURVE",
"666 250 OFFCURVE",
"714 372 OFFCURVE",
"758 496 CURVE"
);
},
{
closed = 1;
nodes = (
"619 624 OFFCURVE",
"667 622 OFFCURVE",
"700 614 CURVE",
"688 574 OFFCURVE",
"672 536 OFFCURVE",
"658 497 CURVE SMOOTH",
"646 464 OFFCURVE",
"636 430 OFFCURVE",
"623 397 CURVE SMOOTH",
"616 379 OFFCURVE",
"606 361 OFFCURVE",
"599 343 CURVE SMOOTH",
"596 335 OFFCURVE",
"593 327 OFFCURVE",
"592 319 CURVE",
"592 320 LINE",
"578 284 OFFCURVE",
"571 246 OFFCURVE",
"555 211 CURVE",
"554 197 OFFCURVE",
"550 183 OFFCURVE",
"544 170 CURVE",
"544 171 LINE",
"537 154 OFFCURVE",
"532 136 OFFCURVE",
"532 118 CURVE",
"490 113 OFFCURVE",
"448 108 OFFCURVE",
"407 101 CURVE SMOOTH",
"388 98 OFFCURVE",
"369 100 OFFCURVE",
"349 97 CURVE",
"350 97 LINE",
"335 95 LINE",
"334 59 LINE",
"316 57 OFFCURVE",
"268 58 OFFCURVE",
"278 89 CURVE",
"293 77 LINE",
"365 198 OFFCURVE",
"420 335 OFFCURVE",
"464 469 CURVE SMOOTH",
"469 484 OFFCURVE",
"478 500 OFFCURVE",
"484 515 CURVE SMOOTH",
"499 550 OFFCURVE",
"514 586 OFFCURVE",
"527 622 CURVE",
"546 622 OFFCURVE",
"566 622 OFFCURVE",
"584 628 CURVE"
);
}
);
width = 815;
}
);
},
{
color = 9;
glyphname = "Zhe-cy.ss01";
lastChange = "2017-12-15 09:51:13 +0000";
layers = (
{
layerId = UUID0;
paths = (
{
closed = 1;
nodes = (
"934 686 LINE",
"882 628 OFFCURVE",
"816 584 OFFCURVE",
"760 531 CURVE SMOOTH",
"732 504 OFFCURVE",
"699 483 OFFCURVE",
"671 456 CURVE SMOOTH",
"649 435 OFFCURVE",
"626 414 OFFCURVE",
"601 396 CURVE",
"636 488 OFFCURVE",
"679 574 OFFCURVE",
"727 660 CURVE",
"710 690 OFFCURVE",
"704 702 OFFCURVE",
"670 706 CURVE",
"645 710 LINE",
"594 664 OFFCURVE",
"529 465 OFFCURVE",
"498 391 CURVE",
"492 402 OFFCURVE",
"484 410 OFFCURVE",
"477 420 CURVE SMOOTH",
"459 446 OFFCURVE",
"453 474 OFFCURVE",
"432 499 CURVE SMOOTH",
"424 508 OFFCURVE",
"419 520 OFFCURVE",
"412 530 CURVE SMOOTH",
"383 573 OFFCURVE",
"356 615 OFFCURVE",
"329 659 CURVE SMOOTH",
"312 687 OFFCURVE",
"240 710 OFFCURVE",
"232 665 CURVE SMOOTH",
"230 657 OFFCURVE",
"232 646 OFFCURVE",
"232 637 CURVE",
"255 604 OFFCURVE",
"278 570 OFFCURVE",
"300 536 CURVE",
"300 537 LINE",
"306 528 OFFCURVE",
"310 518 OFFCURVE",
"317 510 CURVE",
"316 510 LINE",
"353 464 OFFCURVE",
"383 407 OFFCURVE",
"412 355 CURVE",
"390 322 OFFCURVE",
"357 287 OFFCURVE",
"327 262 CURVE SMOOTH",
"311 248 OFFCURVE",
"301 229 OFFCURVE",
"283 216 CURVE",
"284 216 LINE",
"268 203 OFFCURVE",
"252 190 OFFCURVE",
"236 177 CURVE SMOOTH",
"208 155 OFFCURVE",
"183 129 OFFCURVE",
"155 108 CURVE SMOOTH",
"129 88 OFFCURVE",
"100 71 OFFCURVE",
"75 49 CURVE",
"75 50 LINE",
"68 44 OFFCURVE",
"61 37 OFFCURVE",
"52 33 CURVE SMOOTH",
"53 34 LINE SMOOTH",
"27 23 OFFCURVE",
"25 7 OFFCURVE",
"28 -19 CURVE",
"71 -62 LINE",
"88 -56 OFFCURVE",
"106 -50 OFFCURVE",
"120 -39 CURVE SMOOTH",
"188 12 OFFCURVE",
"309 98 OFFCURVE",
"362 156 CURVE SMOOTH",
"379 175 OFFCURVE",
"402 188 OFFCURVE",
"420 209 CURVE SMOOTH",
"419 207 LINE",
"424 211 OFFCURVE",
"445 230 OFFCURVE",
"446 235 CURVE SMOOTH",
"423 151 OFFCURVE",
"396 67 OFFCURVE",
"371 -17 CURVE",
"375 -42 OFFCURVE",
"395 -56 OFFCURVE",
"418 -63 CURVE SMOOTH",
"444 -71 OFFCURVE",
"466 -56 OFFCURVE",
"472 -30 CURVE SMOOTH",
"500 88 OFFCURVE",
"523 175 OFFCURVE",
"563 288 CURVE",
"571 262 OFFCURVE",
"577 235 OFFCURVE",
"584 209 CURVE",
"583 210 LINE",
"589 192 LINE",
"588 193 LINE SMOOTH",
"592 185 OFFCURVE",
"598 159 OFFCURVE",
"606 143 CURVE SMOOTH",
"607 141 OFFCURVE",
"607 139 OFFCURVE",
"608 137 CURVE SMOOTH",
"607 143 LINE SMOOTH",
"608 139 OFFCURVE",
"608 136 OFFCURVE",
"609 132 CURVE SMOOTH",
"626 67 OFFCURVE",
"698 -31 OFFCURVE",
"761 -58 CURVE",
"761 -57 LINE",
"794 -71 LINE",
"808 -68 LINE",
"821 -67 LINE",
"849 -39 OFFCURVE",
"863 -1 OFFCURVE",
"817 19 CURVE",
"817 18 LINE",
"801 25 OFFCURVE",
"786 34 OFFCURVE",
"773 46 CURVE",
"761 67 OFFCURVE",
"743 78 OFFCURVE",
"732 101 CURVE SMOOTH",
"727 112 OFFCURVE",
"723 124 OFFCURVE",
"717 134 CURVE SMOOTH",
"718 133 LINE SMOOTH",
"691 184 OFFCURVE",
"671 264 OFFCURVE",
"663 317 CURVE",
"713 367 OFFCURVE",
"772 407 OFFCURVE",
"825 454 CURVE SMOOTH",
"881 504 OFFCURVE",
"940 550 OFFCURVE",
"997 597 CURVE SMOOTH",
"1013 610 OFFCURVE",
"1021 630 OFFCURVE",
"1021 650 CURVE",
"1004 679 OFFCURVE",
"979 687 OFFCURVE",
"948 692 CURVE",
"934 686 LINE"
);
}
);
width = 1031;
},
{
layerId = "BF4C3430-0F48-4C30-8275-6D85863A5F93";
paths = (
{
closed = 1;
nodes = (
"934 686 LINE",
"882 628 OFFCURVE",
"816 584 OFFCURVE",
"760 531 CURVE SMOOTH",
"732 504 OFFCURVE",
"699 483 OFFCURVE",
"671 456 CURVE SMOOTH",
"649 435 OFFCURVE",
"626 414 OFFCURVE",
"601 396 CURVE",
"636 488 OFFCURVE",
"679 574 OFFCURVE",
"727 660 CURVE",
"710 690 OFFCURVE",
"704 702 OFFCURVE",
"670 706 CURVE",
"645 710 LINE",
"594 664 OFFCURVE",
"529 465 OFFCURVE",
"498 391 CURVE",
"492 402 OFFCURVE",
"484 410 OFFCURVE",
"477 420 CURVE SMOOTH",
"459 446 OFFCURVE",
"453 474 OFFCURVE",
"432 499 CURVE SMOOTH",
"424 508 OFFCURVE",
"419 520 OFFCURVE",
"412 530 CURVE SMOOTH",
"383 573 OFFCURVE",
"356 615 OFFCURVE",
"329 659 CURVE SMOOTH",
"312 687 OFFCURVE",
"240 710 OFFCURVE",
"232 665 CURVE SMOOTH",
"230 657 OFFCURVE",
"232 646 OFFCURVE",
"232 637 CURVE",
"255 604 OFFCURVE",
"278 570 OFFCURVE",
"300 536 CURVE",
"300 537 LINE",
"306 528 OFFCURVE",
"310 518 OFFCURVE",
"317 510 CURVE",
"316 510 LINE",
"353 464 OFFCURVE",
"383 407 OFFCURVE",
"412 355 CURVE",
"390 322 OFFCURVE",
"357 287 OFFCURVE",
"327 262 CURVE SMOOTH",
"311 248 OFFCURVE",
"301 229 OFFCURVE",
"283 216 CURVE",
"284 216 LINE",
"268 203 OFFCURVE",
"252 190 OFFCURVE",
"236 177 CURVE SMOOTH",
"208 155 OFFCURVE",
"183 129 OFFCURVE",
"155 108 CURVE SMOOTH",
"129 88 OFFCURVE",
"100 71 OFFCURVE",
"75 49 CURVE",
"75 50 LINE",
"68 44 OFFCURVE",
"61 37 OFFCURVE",
"52 33 CURVE SMOOTH",
"53 34 LINE SMOOTH",
"27 23 OFFCURVE",
"25 7 OFFCURVE",
"28 -19 CURVE",
"71 -62 LINE",
"88 -56 OFFCURVE",
"106 -50 OFFCURVE",
"120 -39 CURVE SMOOTH",
"188 12 OFFCURVE",
"309 98 OFFCURVE",
"362 156 CURVE SMOOTH",
"379 175 OFFCURVE",
"402 188 OFFCURVE",
"420 209 CURVE SMOOTH",
"419 207 LINE",
"424 211 OFFCURVE",
"445 230 OFFCURVE",
"446 235 CURVE SMOOTH",
"423 151 OFFCURVE",
"396 67 OFFCURVE",
"371 -17 CURVE",
"375 -42 OFFCURVE",
"395 -56 OFFCURVE",
"418 -63 CURVE SMOOTH",
"444 -71 OFFCURVE",
"466 -56 OFFCURVE",
"472 -30 CURVE SMOOTH",
"500 88 OFFCURVE",
"523 175 OFFCURVE",
"563 288 CURVE",
"571 262 OFFCURVE",
"577 235 OFFCURVE",
"584 209 CURVE",
"583 210 LINE",
"589 192 LINE",
"588 193 LINE SMOOTH",
"592 185 OFFCURVE",
"598 159 OFFCURVE",
"606 143 CURVE SMOOTH",
"607 141 OFFCURVE",
"607 139 OFFCURVE",
"608 137 CURVE SMOOTH",
"607 143 LINE SMOOTH",
"608 139 OFFCURVE",
"608 136 OFFCURVE",
"609 132 CURVE SMOOTH",
"626 67 OFFCURVE",
"698 -31 OFFCURVE",
"761 -58 CURVE",
"761 -57 LINE",
"794 -71 LINE",
"808 -68 LINE",
"821 -67 LINE",
"849 -39 OFFCURVE",
"863 -1 OFFCURVE",
"817 19 CURVE",
"817 18 LINE",
"801 25 OFFCURVE",
"786 34 OFFCURVE",
"773 46 CURVE",
"761 67 OFFCURVE",
"743 78 OFFCURVE",
"732 101 CURVE SMOOTH",
"727 112 OFFCURVE",
"723 124 OFFCURVE",
"717 134 CURVE SMOOTH",
"718 133 LINE SMOOTH",
"691 184 OFFCURVE",
"671 264 OFFCURVE",
"663 317 CURVE",
"713 367 OFFCURVE",
"772 407 OFFCURVE",
"825 454 CURVE SMOOTH",
"881 504 OFFCURVE",
"940 550 OFFCURVE",
"997 597 CURVE SMOOTH",
"1013 610 OFFCURVE",
"1021 630 OFFCURVE",
"1021 650 CURVE",
"1004 679 OFFCURVE",
"979 687 OFFCURVE",
"948 692 CURVE",
"934 686 LINE"
);
}
);
width = 1031;
}
);
},
{
color = 9;
glyphname = "Ze-cy.ss01";
lastChange = "2017-12-15 09:51:13 +0000";
layers = (
{
layerId = UUID0;
paths = (
{
closed = 1;
nodes = (
"376 682 LINE",
"359 675 OFFCURVE",
"344 663 OFFCURVE",
"329 652 CURVE SMOOTH",
"272 609 OFFCURVE",
"257 591 OFFCURVE",
"231 523 CURVE",
"251 490 OFFCURVE",
"255 483 OFFCURVE",
"288 461 CURVE",
"313 472 OFFCURVE",
"326 491 OFFCURVE",
"336 516 CURVE SMOOTH",
"335 515 LINE SMOOTH",
"359 575 OFFCURVE",
"464 618 OFFCURVE",
"522 583 CURVE",
"527 569 OFFCURVE",
"531 550 OFFCURVE",
"527 536 CURVE SMOOTH",
"505 448 OFFCURVE",
"431 401 OFFCURVE",
"353 365 CURVE SMOOTH",
"339 358 OFFCURVE",
"322 360 OFFCURVE",
"307 354 CURVE",
"294 358 OFFCURVE",
"286 355 OFFCURVE",
"274 349 CURVE",
"275 349 LINE",
"230 327 OFFCURVE",
"261 289 OFFCURVE",
"280 264 CURVE SMOOTH",
"279 266 LINE SMOOTH",
"286 258 OFFCURVE",
"292 255 OFFCURVE",
"302 252 CURVE SMOOTH",
"298 254 LINE SMOOTH",
"308 250 OFFCURVE",
"315 245 OFFCURVE",
"326 250 CURVE",
"329 250 LINE SMOOTH",
"366 253 OFFCURVE",
"402 241 OFFCURVE",
"411 200 CURVE",
"413 197 OFFCURVE",
"415 191 OFFCURVE",
"415 188 CURVE SMOOTH",
"415 186 OFFCURVE",
"415 181 OFFCURVE",
"416 180 CURVE",
"418 170 OFFCURVE",
"421 160 OFFCURVE",
"421 150 CURVE SMOOTH",
"421 59 OFFCURVE",
"248 -20 OFFCURVE",
"181 61 CURVE",
"217 96 OFFCURVE",
"208 112 OFFCURVE",
"167 141 CURVE",
"130 146 OFFCURVE",
"74 94 OFFCURVE",
"81 56 CURVE SMOOTH",
"87 26 OFFCURVE",
"153 -26 OFFCURVE",
"178 -43 CURVE SMOOTH",
"219 -71 OFFCURVE",
"266 -67 OFFCURVE",
"314 -67 CURVE",
"324 -59 OFFCURVE",
"341 -63 OFFCURVE",
"356 -54 CURVE",
"355 -54 LINE",
"357 -53 OFFCURVE",
"361 -54 OFFCURVE",
"363 -55 CURVE",
"392 -43 OFFCURVE",
"417 -32 OFFCURVE",
"440 -10 CURVE SMOOTH",
"459 8 OFFCURVE",
"476 16 OFFCURVE",
"490 40 CURVE SMOOTH",
"489 38 LINE SMOOTH",
"505 62 OFFCURVE",
"516 80 OFFCURVE",
"519 110 CURVE SMOOTH",
"528 196 OFFCURVE",
"533 246 OFFCURVE",
"461 306 CURVE",
"498 329 OFFCURVE",
"534 349 OFFCURVE",
"564 381 CURVE SMOOTH",
"640 463 OFFCURVE",
"644 607 OFFCURVE",
"548 675 CURVE SMOOTH",
"539 681 OFFCURVE",
"528 687 OFFCURVE",
"517 689 CURVE SMOOTH",
"509 690 OFFCURVE",
"502 692 OFFCURVE",
"494 694 CURVE SMOOTH",
"463 701 OFFCURVE",
"459 700 OFFCURVE",
"429 695 CURVE SMOOTH",
"411 692 OFFCURVE",
"392 689 OFFCURVE",
"375 682 CURVE"
);
}
);
width = 629;
},
{
layerId = "BF4C3430-0F48-4C30-8275-6D85863A5F93";
paths = (
{
closed = 1;
nodes = (
"376 682 LINE",
"359 675 OFFCURVE",
"344 663 OFFCURVE",
"329 652 CURVE SMOOTH",
"272 609 OFFCURVE",
"257 591 OFFCURVE",
"231 523 CURVE",
"251 490 OFFCURVE",
"255 483 OFFCURVE",
"288 461 CURVE",
"313 472 OFFCURVE",
"326 491 OFFCURVE",
"336 516 CURVE SMOOTH",
"335 515 LINE SMOOTH",
"359 575 OFFCURVE",
"464 618 OFFCURVE",
"522 583 CURVE",
"527 569 OFFCURVE",
"531 550 OFFCURVE",
"527 536 CURVE SMOOTH",
"505 448 OFFCURVE",
"431 401 OFFCURVE",
"353 365 CURVE SMOOTH",
"339 358 OFFCURVE",
"322 360 OFFCURVE",
"307 354 CURVE",
"294 358 OFFCURVE",
"286 355 OFFCURVE",
"274 349 CURVE",
"275 349 LINE",
"230 327 OFFCURVE",
"261 289 OFFCURVE",
"280 264 CURVE SMOOTH",
"279 266 LINE SMOOTH",
"286 258 OFFCURVE",
"292 255 OFFCURVE",
"302 252 CURVE SMOOTH",
"298 254 LINE SMOOTH",
"308 250 OFFCURVE",
"315 245 OFFCURVE",
"326 250 CURVE",
"329 250 LINE SMOOTH",
"366 253 OFFCURVE",
"402 241 OFFCURVE",
"411 200 CURVE",
"413 197 OFFCURVE",
"415 191 OFFCURVE",
"415 188 CURVE SMOOTH",
"415 186 OFFCURVE",
"415 181 OFFCURVE",
"416 180 CURVE",
"418 170 OFFCURVE",
"421 160 OFFCURVE",
"421 150 CURVE SMOOTH",
"421 59 OFFCURVE",
"248 -20 OFFCURVE",
"181 61 CURVE",
"217 96 OFFCURVE",
"208 112 OFFCURVE",
"167 141 CURVE",
"130 146 OFFCURVE",
"74 94 OFFCURVE",
"81 56 CURVE SMOOTH",
"87 26 OFFCURVE",
"153 -26 OFFCURVE",
"178 -43 CURVE SMOOTH",
"219 -71 OFFCURVE",
"266 -67 OFFCURVE",
"314 -67 CURVE",
"324 -59 OFFCURVE",
"341 -63 OFFCURVE",
"356 -54 CURVE",
"355 -54 LINE",
"357 -53 OFFCURVE",
"361 -54 OFFCURVE",
"363 -55 CURVE",
"392 -43 OFFCURVE",
"417 -32 OFFCURVE",
"440 -10 CURVE SMOOTH",
"459 8 OFFCURVE",
"476 16 OFFCURVE",
"490 40 CURVE SMOOTH",
"489 38 LINE SMOOTH",
"505 62 OFFCURVE",
"516 80 OFFCURVE",
"519 110 CURVE SMOOTH",
"528 196 OFFCURVE",
"533 246 OFFCURVE",
"461 306 CURVE",
"498 329 OFFCURVE",
"534 349 OFFCURVE",
"564 381 CURVE SMOOTH",
"640 463 OFFCURVE",
"644 607 OFFCURVE",
"548 675 CURVE SMOOTH",
"539 681 OFFCURVE",
"528 687 OFFCURVE",
"517 689 CURVE SMOOTH",
"509 690 OFFCURVE",
"502 692 OFFCURVE",
"494 694 CURVE SMOOTH",
"463 701 OFFCURVE",
"459 700 OFFCURVE",
"429 695 CURVE SMOOTH",
"411 692 OFFCURVE",
"392 689 OFFCURVE",
"375 682 CURVE"
);
}
);
width = 629;
}
);
},
{
color = 9;
glyphname = "Ii-cy.ss01";
lastChange = "2017-12-15 09:51:13 +0000";
layers = (
{
layerId = UUID0;
paths = (
{
closed = 1;
nodes = (
"607 -42 LINE",
"615 17 OFFCURVE",
"623 76 OFFCURVE",
"638 134 CURVE SMOOTH",
"637 132 LINE SMOOTH",
"656 198 OFFCURVE",
"674 263 OFFCURVE",
"691 330 CURVE SMOOTH",
"697 355 OFFCURVE",
"714 385 OFFCURVE",
"714 410 CURVE SMOOTH",
"714 434 OFFCURVE",
"730 456 OFFCURVE",
"740 477 CURVE SMOOTH",
"746 489 OFFCURVE",
"747 502 OFFCURVE",
"749 514 CURVE SMOOTH",
"757 557 OFFCURVE",
"782 596 OFFCURVE",
"798 636 CURVE SMOOTH",
"816 681 OFFCURVE",
"758 731 OFFCURVE",
"722 714 CURVE",
"722 715 LINE",
"696 704 OFFCURVE",
"643 652 OFFCURVE",
"625 629 CURVE",
"625 630 LINE",
"580 577 OFFCURVE",
"532 524 OFFCURVE",
"490 468 CURVE SMOOTH",
"454 420 OFFCURVE",
"410 378 OFFCURVE",
"375 330 CURVE",
"375 331 LINE",
"333 277 OFFCURVE",
"286 227 OFFCURVE",
"243 175 CURVE",
"275 298 OFFCURVE",
"331 452 OFFCURVE",
"382 569 CURVE SMOOTH",
"381 568 LINE SMOOTH",
"387 581 OFFCURVE",
"396 610 OFFCURVE",
"403 620 CURVE SMOOTH",
"449 687 OFFCURVE",
"343 764 OFFCURVE",
"311 665 CURVE SMOOTH",
"312 667 LINE SMOOTH",
"303 641 OFFCURVE",
"292 618 OFFCURVE",
"279 594 CURVE SMOOTH",
"274 584 OFFCURVE",
"273 582 OFFCURVE",
"274 573 CURVE",
"273 574 LINE",
"268 568 OFFCURVE",
"263 559 OFFCURVE",
"267 551 CURVE",
"264 545 OFFCURVE",
"253 517 OFFCURVE",
"254 513 CURVE",
"236 475 OFFCURVE",
"228 460 OFFCURVE",
"218 418 CURVE SMOOTH",
"216 411 OFFCURVE",
"202 378 OFFCURVE",
"198 364 CURVE",
"198 365 LINE",
"192 343 OFFCURVE",
"173 307 OFFCURVE",
"172 288 CURVE SMOOTH",
"170 259 OFFCURVE",
"159 236 OFFCURVE",
"153 208 CURVE SMOOTH",
"137 140 OFFCURVE",
"98 68 OFFCURVE",
"105 -4 CURVE SMOOTH",
"108 -39 OFFCURVE",
"163 -50 OFFCURVE",
"187 -32 CURVE SMOOTH",
"225 -3 OFFCURVE",
"333 121 OFFCURVE",
"360 159 CURVE",
"360 158 LINE",
"369 170 OFFCURVE",
"378 182 OFFCURVE",
"388 193 CURVE SMOOTH",
"416 224 OFFCURVE",
"440 259 OFFCURVE",
"467 291 CURVE SMOOTH",
"528 362 OFFCURVE",
"586 435 OFFCURVE",
"644 508 CURVE",
"628 456 OFFCURVE",
"614 404 OFFCURVE",
"598 352 CURVE SMOOTH",
"590 326 OFFCURVE",
"581 301 OFFCURVE",
"574 275 CURVE",
"575 276 LINE",
"558 214 OFFCURVE",
"540 153 OFFCURVE",
"528 89 CURVE SMOOTH",
"524 69 OFFCURVE",
"519 49 OFFCURVE",
"512 30 CURVE",
"512 31 LINE",
"508 23 OFFCURVE",
"508 13 OFFCURVE",
"510 4 CURVE",
"510 5 LINE",
"511 -25 OFFCURVE",
"561 -56 OFFCURVE",
"589 -58 CURVE",
"607 -42 LINE"
);
}
);
width = 813;
},
{
layerId = "BF4C3430-0F48-4C30-8275-6D85863A5F93";
paths = (
{
closed = 1;
nodes = (
"607 -42 LINE",
"615 17 OFFCURVE",
"623 76 OFFCURVE",
"638 134 CURVE SMOOTH",
"637 132 LINE SMOOTH",
"656 198 OFFCURVE",
"674 263 OFFCURVE",
"691 330 CURVE SMOOTH",
"697 355 OFFCURVE",
"714 385 OFFCURVE",
"714 410 CURVE SMOOTH",
"714 434 OFFCURVE",
"730 456 OFFCURVE",
"740 477 CURVE SMOOTH",
"746 489 OFFCURVE",
"747 502 OFFCURVE",
"749 514 CURVE SMOOTH",
"757 557 OFFCURVE",
"782 596 OFFCURVE",
"798 636 CURVE SMOOTH",
"816 681 OFFCURVE",
"758 731 OFFCURVE",
"722 714 CURVE",
"722 715 LINE",
"696 704 OFFCURVE",
"643 652 OFFCURVE",
"625 629 CURVE",
"625 630 LINE",
"580 577 OFFCURVE",
"532 524 OFFCURVE",
"490 468 CURVE SMOOTH",
"454 420 OFFCURVE",
"410 378 OFFCURVE",
"375 330 CURVE",
"375 331 LINE",
"333 277 OFFCURVE",
"286 227 OFFCURVE",
"243 175 CURVE",
"275 298 OFFCURVE",
"331 452 OFFCURVE",
"382 569 CURVE SMOOTH",
"381 568 LINE SMOOTH",
"387 581 OFFCURVE",
"396 610 OFFCURVE",
"403 620 CURVE SMOOTH",
"449 687 OFFCURVE",
"343 764 OFFCURVE",
"311 665 CURVE SMOOTH",
"312 667 LINE SMOOTH",
"303 641 OFFCURVE",
"292 618 OFFCURVE",
"279 594 CURVE SMOOTH",
"274 584 OFFCURVE",
"273 582 OFFCURVE",
"274 573 CURVE",
"273 574 LINE",
"268 568 OFFCURVE",
"263 559 OFFCURVE",
"267 551 CURVE",
"264 545 OFFCURVE",
"253 517 OFFCURVE",
"254 513 CURVE",
"236 475 OFFCURVE",
"228 460 OFFCURVE",
"218 418 CURVE SMOOTH",
"216 411 OFFCURVE",
"202 378 OFFCURVE",
"198 364 CURVE",
"198 365 LINE",
"192 343 OFFCURVE",
"173 307 OFFCURVE",
"172 288 CURVE SMOOTH",
"170 259 OFFCURVE",
"159 236 OFFCURVE",
"153 208 CURVE SMOOTH",
"137 140 OFFCURVE",
"98 68 OFFCURVE",
"105 -4 CURVE SMOOTH",
"108 -39 OFFCURVE",
"163 -50 OFFCURVE",
"187 -32 CURVE SMOOTH",
"225 -3 OFFCURVE",
"333 121 OFFCURVE",
"360 159 CURVE",
"360 158 LINE",
"369 170 OFFCURVE",
"378 182 OFFCURVE",
"388 193 CURVE SMOOTH",
"416 224 OFFCURVE",
"440 259 OFFCURVE",
"467 291 CURVE SMOOTH",
"528 362 OFFCURVE",
"586 435 OFFCURVE",
"644 508 CURVE",
"628 456 OFFCURVE",
"614 404 OFFCURVE",
"598 352 CURVE SMOOTH",
"590 326 OFFCURVE",
"581 301 OFFCURVE",
"574 275 CURVE",
"575 276 LINE",
"558 214 OFFCURVE",
"540 153 OFFCURVE",
"528 89 CURVE SMOOTH",
"524 69 OFFCURVE",
"519 49 OFFCURVE",
"512 30 CURVE",
"512 31 LINE",
"508 23 OFFCURVE",
"508 13 OFFCURVE",
"510 4 CURVE",
"510 5 LINE",
"511 -25 OFFCURVE",
"561 -56 OFFCURVE",
"589 -58 CURVE",
"607 -42 LINE"
);
}
);
width = 813;
}
);
},
{
color = 9;
glyphname = "El-cy.ss01";
lastChange = "2017-12-15 09:51:13 +0000";
layers = (
{
layerId = UUID0;
paths = (
{
closed = 1;
nodes = (
"482 -14 LINE",
"497 29 OFFCURVE",
"514 71 OFFCURVE",
"530 113 CURVE",
"530 112 LINE",
"549 157 OFFCURVE",
"566 203 OFFCURVE",
"581 250 CURVE",
"581 249 LINE",
"593 277 OFFCURVE",
"603 306 OFFCURVE",
"611 335 CURVE SMOOTH",
"625 385 OFFCURVE",
"638 436 OFFCURVE",
"646 488 CURVE SMOOTH",
"656 555 OFFCURVE",
"623 605 OFFCURVE",
"567 638 CURVE SMOOTH",
"532 659 OFFCURVE",
"505 669 OFFCURVE",
"464 669 CURVE",
"452 675 OFFCURVE",
"438 676 OFFCURVE",
"425 672 CURVE",
"412 676 OFFCURVE",
"397 666 OFFCURVE",
"387 673 CURVE",
"340 665 OFFCURVE",
"203 635 OFFCURVE",
"203 574 CURVE SMOOTH",
"203 566 OFFCURVE",
"203 558 OFFCURVE",
"204 550 CURVE",
"221 532 OFFCURVE",
"244 520 OFFCURVE",
"268 518 CURVE",
"277 521 OFFCURVE",
"281 525 OFFCURVE",
"288 530 CURVE SMOOTH",
"306 545 OFFCURVE",
"347 558 OFFCURVE",
"370 564 CURVE",
"360 542 LINE",
"360 543 LINE",
"339 499 OFFCURVE",
"321 456 OFFCURVE",
"303 411 CURVE",
"303 412 LINE",
"252 291 OFFCURVE",
"193 164 OFFCURVE",
"109 62 CURVE SMOOTH",
"78 24 OFFCURVE",
"45 40 OFFCURVE",
"45 1 CURVE SMOOTH",
"45 -39 OFFCURVE",
"85 -51 OFFCURVE",
"117 -59 CURVE",
"136 -51 OFFCURVE",
"155 -41 OFFCURVE",
"169 -26 CURVE",
"169 -27 LINE",
"203 7 OFFCURVE",
"232 54 OFFCURVE",
"257 95 CURVE SMOOTH",
"270 117 OFFCURVE",
"278 139 OFFCURVE",
"294 159 CURVE",
"302 195 OFFCURVE",
"327 227 OFFCURVE",
"340 260 CURVE SMOOTH",
"339 259 LINE SMOOTH",
"345 268 OFFCURVE",
"347 277 OFFCURVE",
"352 286 CURVE SMOOTH",
"358 297 OFFCURVE",
"357 309 OFFCURVE",
"363 319 CURVE SMOOTH",
"362 318 LINE SMOOTH",
"387 373 OFFCURVE",
"410 435 OFFCURVE",
"442 487 CURVE SMOOTH",
"458 513 OFFCURVE",
"467 544 OFFCURVE",
"484 570 CURVE",
"503 571 OFFCURVE",
"520 562 OFFCURVE",
"536 553 CURVE",
"543 542 LINE",
"543 520 OFFCURVE",
"545 500 OFFCURVE",
"540 479 CURVE",
"541 480 LINE SMOOTH",
"538 472 OFFCURVE",
"537 464 OFFCURVE",
"537 456 CURVE",
"525 423 OFFCURVE",
"520 388 OFFCURVE",
"510 355 CURVE",
"510 356 LINE",
"502 334 OFFCURVE",
"498 311 OFFCURVE",
"489 290 CURVE SMOOTH",
"477 262 OFFCURVE",
"467 232 OFFCURVE",
"457 203 CURVE SMOOTH",
"446 171 OFFCURVE",
"431 140 OFFCURVE",
"419 109 CURVE",
"419 110 LINE",
"405 76 OFFCURVE",
"391 43 OFFCURVE",
"378 9 CURVE",
"398 -28 OFFCURVE",
"461 -79 OFFCURVE",
"482 -13 CURVE"
);
}
);
width = 658;
},
{
layerId = "BF4C3430-0F48-4C30-8275-6D85863A5F93";
paths = (
{
closed = 1;
nodes = (
"482 -14 LINE",
"497 29 OFFCURVE",
"514 71 OFFCURVE",
"530 113 CURVE",
"530 112 LINE",
"549 157 OFFCURVE",
"566 203 OFFCURVE",
"581 250 CURVE",
"581 249 LINE",
"593 277 OFFCURVE",
"603 306 OFFCURVE",
"611 335 CURVE SMOOTH",
"625 385 OFFCURVE",
"638 436 OFFCURVE",
"646 488 CURVE SMOOTH",
"656 555 OFFCURVE",
"623 605 OFFCURVE",
"567 638 CURVE SMOOTH",
"532 659 OFFCURVE",
"505 669 OFFCURVE",
"464 669 CURVE",
"452 675 OFFCURVE",
"438 676 OFFCURVE",
"425 672 CURVE",
"412 676 OFFCURVE",
"397 666 OFFCURVE",
"387 673 CURVE",
"340 665 OFFCURVE",
"203 635 OFFCURVE",
"203 574 CURVE SMOOTH",
"203 566 OFFCURVE",
"203 558 OFFCURVE",
"204 550 CURVE",
"221 532 OFFCURVE",
"244 520 OFFCURVE",
"268 518 CURVE",
"277 521 OFFCURVE",
"281 525 OFFCURVE",
"288 530 CURVE SMOOTH",
"306 545 OFFCURVE",
"347 558 OFFCURVE",
"370 564 CURVE",
"360 542 LINE",
"360 543 LINE",
"339 499 OFFCURVE",
"321 456 OFFCURVE",
"303 411 CURVE",
"303 412 LINE",
"252 291 OFFCURVE",
"193 164 OFFCURVE",
"109 62 CURVE SMOOTH",
"78 24 OFFCURVE",
"45 40 OFFCURVE",
"45 1 CURVE SMOOTH",
"45 -39 OFFCURVE",
"85 -51 OFFCURVE",
"117 -59 CURVE",
"136 -51 OFFCURVE",
"155 -41 OFFCURVE",
"169 -26 CURVE",
"169 -27 LINE",
"203 7 OFFCURVE",
"232 54 OFFCURVE",
"257 95 CURVE SMOOTH",
"270 117 OFFCURVE",
"278 139 OFFCURVE",
"294 159 CURVE",
"302 195 OFFCURVE",
"327 227 OFFCURVE",
"340 260 CURVE SMOOTH",
"339 259 LINE SMOOTH",
"345 268 OFFCURVE",
"347 277 OFFCURVE",
"352 286 CURVE SMOOTH",
"358 297 OFFCURVE",
"357 309 OFFCURVE",
"363 319 CURVE SMOOTH",
"362 318 LINE SMOOTH",
"387 373 OFFCURVE",
"410 435 OFFCURVE",
"442 487 CURVE SMOOTH",
"458 513 OFFCURVE",
"467 544 OFFCURVE",
"484 570 CURVE",
"503 571 OFFCURVE",
"520 562 OFFCURVE",
"536 553 CURVE",
"543 542 LINE",
"543 520 OFFCURVE",
"545 500 OFFCURVE",
"540 479 CURVE",
"541 480 LINE SMOOTH",
"538 472 OFFCURVE",
"537 464 OFFCURVE",
"537 456 CURVE",
"525 423 OFFCURVE",
"520 388 OFFCURVE",
"510 355 CURVE",
"510 356 LINE",
"502 334 OFFCURVE",
"498 311 OFFCURVE",
"489 290 CURVE SMOOTH",
"477 262 OFFCURVE",
"467 232 OFFCURVE",
"457 203 CURVE SMOOTH",
"446 171 OFFCURVE",
"431 140 OFFCURVE",
"419 109 CURVE",
"419 110 LINE",
"405 76 OFFCURVE",
"391 43 OFFCURVE",
"378 9 CURVE",
"398 -28 OFFCURVE",
"461 -79 OFFCURVE",
"482 -13 CURVE"
);
}
);
width = 658;
}
);
},
{
color = 9;
glyphname = "Pe-cy.ss01";
lastChange = "2017-12-15 09:51:13 +0000";
layers = (
{
layerId = UUID0;
paths = (
{
closed = 1;
nodes = (
"464 585 LINE",
"464 586 LINE",
"506 586 OFFCURVE",
"565 596 OFFCURVE",
"605 589 CURVE SMOOTH",
"630 584 OFFCURVE",
"658 590 OFFCURVE",
"679 584 CURVE",
"669 509 OFFCURVE",
"640 442 OFFCURVE",
"618 370 CURVE",
"619 371 LINE SMOOTH",
"580 255 OFFCURVE",
"543 138 OFFCURVE",
"499 24 CURVE SMOOTH",
"466 -62 OFFCURVE",
"566 -57 OFFCURVE",
"572 -49 CURVE SMOOTH",
"590 -25 OFFCURVE",
"621 80 OFFCURVE",
"633 114 CURVE SMOOTH",
"663 202 OFFCURVE",
"688 293 OFFCURVE",
"722 380 CURVE SMOOTH",
"721 379 LINE SMOOTH",
"730 398 OFFCURVE",
"791 612 OFFCURVE",
"791 622 CURVE SMOOTH",
"791 635 OFFCURVE",
"776 653 OFFCURVE",
"766 661 CURVE SMOOTH",
"740 681 OFFCURVE",
"675 677 OFFCURVE",
"643 680 CURVE SMOOTH",
"631 681 OFFCURVE",
"621 685 OFFCURVE",
"608 685 CURVE SMOOTH",
"577 685 OFFCURVE",
"526 690 OFFCURVE",
"497 683 CURVE",
"497 684 LINE",
"469 678 OFFCURVE",
"448 675 OFFCURVE",
"420 683 CURVE SMOOTH",
"386 692 OFFCURVE",
"385 668 OFFCURVE",
"364 668 CURVE SMOOTH",
"287 668 LINE SMOOTH",
"274 668 OFFCURVE",
"268 663 OFFCURVE",
"262 652 CURVE SMOOTH",
"248 627 OFFCURVE",
"261 587 OFFCURVE",
"282 570 CURVE",
"297 570 OFFCURVE",
"332 559 OFFCURVE",
"345 569 CURVE",
"330 524 OFFCURVE",
"311 480 OFFCURVE",
"289 438 CURVE SMOOTH",
"266 393 OFFCURVE",
"252 341 OFFCURVE",
"229 295 CURVE SMOOTH",
"186 208 OFFCURVE",
"150 111 OFFCURVE",
"122 18 CURVE SMOOTH",
"113 -13 OFFCURVE",
"119 -26 OFFCURVE",
"148 -40 CURVE",
"147 -40 LINE",
"171 -52 OFFCURVE",
"204 -51 OFFCURVE",
"216 -23 CURVE SMOOTH",
"215 -24 LINE SMOOTH",
"224 -8 OFFCURVE",
"226 11 OFFCURVE",
"231 29 CURVE SMOOTH",
"246 79 OFFCURVE",
"266 132 OFFCURVE",
"285 181 CURVE SMOOTH",
"304 229 OFFCURVE",
"326 276 OFFCURVE",
"346 324 CURVE SMOOTH",
"357 349 OFFCURVE",
"366 375 OFFCURVE",
"377 400 CURVE SMOOTH",
"388 424 OFFCURVE",
"401 448 OFFCURVE",
"411 473 CURVE SMOOTH",
"425 509 OFFCURVE",
"441 545 OFFCURVE",
"456 581 CURVE"
);
},
{
closed = 1;
nodes = (
"685 581 OFFCURVE",
"683 582 OFFCURVE",
"682 583 CURVE SMOOTH",
"684 582 OFFCURVE",
"685 581 OFFCURVE",
"687 581 CURVE SMOOTH"
);
}
);
width = 802;
},
{
layerId = "BF4C3430-0F48-4C30-8275-6D85863A5F93";
paths = (
{
closed = 1;
nodes = (
"464 585 LINE",
"464 586 LINE",
"506 586 OFFCURVE",
"565 596 OFFCURVE",
"605 589 CURVE SMOOTH",
"630 584 OFFCURVE",
"658 590 OFFCURVE",
"679 584 CURVE",
"669 509 OFFCURVE",
"640 442 OFFCURVE",
"618 370 CURVE",
"619 371 LINE SMOOTH",
"580 255 OFFCURVE",
"543 138 OFFCURVE",
"499 24 CURVE SMOOTH",
"466 -62 OFFCURVE",
"566 -57 OFFCURVE",
"572 -49 CURVE SMOOTH",
"590 -25 OFFCURVE",
"621 80 OFFCURVE",
"633 114 CURVE SMOOTH",
"663 202 OFFCURVE",
"688 293 OFFCURVE",
"722 380 CURVE SMOOTH",
"721 379 LINE SMOOTH",
"730 398 OFFCURVE",
"791 612 OFFCURVE",
"791 622 CURVE SMOOTH",
"791 635 OFFCURVE",
"776 653 OFFCURVE",
"766 661 CURVE SMOOTH",
"740 681 OFFCURVE",
"675 677 OFFCURVE",
"643 680 CURVE SMOOTH",
"631 681 OFFCURVE",
"621 685 OFFCURVE",
"608 685 CURVE SMOOTH",
"577 685 OFFCURVE",
"526 690 OFFCURVE",
"497 683 CURVE",
"497 684 LINE",
"469 678 OFFCURVE",
"448 675 OFFCURVE",
"420 683 CURVE SMOOTH",
"386 692 OFFCURVE",
"385 668 OFFCURVE",
"364 668 CURVE SMOOTH",
"287 668 LINE SMOOTH",
"274 668 OFFCURVE",
"268 663 OFFCURVE",
"262 652 CURVE SMOOTH",
"248 627 OFFCURVE",
"261 587 OFFCURVE",
"282 570 CURVE",
"297 570 OFFCURVE",
"332 559 OFFCURVE",
"345 569 CURVE",
"330 524 OFFCURVE",
"311 480 OFFCURVE",
"289 438 CURVE SMOOTH",
"266 393 OFFCURVE",
"252 341 OFFCURVE",
"229 295 CURVE SMOOTH",
"186 208 OFFCURVE",
"150 111 OFFCURVE",
"122 18 CURVE SMOOTH",
"113 -13 OFFCURVE",
"119 -26 OFFCURVE",
"148 -40 CURVE",
"147 -40 LINE",
"171 -52 OFFCURVE",
"204 -51 OFFCURVE",
"216 -23 CURVE SMOOTH",
"215 -24 LINE SMOOTH",
"224 -8 OFFCURVE",
"226 11 OFFCURVE",
"231 29 CURVE SMOOTH",
"246 79 OFFCURVE",
"266 132 OFFCURVE",
"285 181 CURVE SMOOTH",
"304 229 OFFCURVE",
"326 276 OFFCURVE",
"346 324 CURVE SMOOTH",
"357 349 OFFCURVE",
"366 375 OFFCURVE",
"377 400 CURVE SMOOTH",
"388 424 OFFCURVE",
"401 448 OFFCURVE",
"411 473 CURVE SMOOTH",
"425 509 OFFCURVE",
"441 545 OFFCURVE",
"456 581 CURVE"
);
},
{
closed = 1;
nodes = (
"685 581 OFFCURVE",
"683 582 OFFCURVE",
"682 583 CURVE SMOOTH",
"684 582 OFFCURVE",
"685 581 OFFCURVE",
"687 581 CURVE SMOOTH"
);
}
);
width = 802;
}
);
},
{
color = 9;
glyphname = "U-cy.ss01";
lastChange = "2017-12-15 09:51:13 +0000";
layers = (
{
anchors = (
{
name = topUC;
position = "{511, 769}";
}
);
layerId = UUID0;
paths = (
{
closed = 1;
nodes = (
"250 62 OFFCURVE",
"237 59 OFFCURVE",
"223 64 CURVE SMOOTH",
"204 71 OFFCURVE",
"196 75 OFFCURVE",
"175 73 CURVE",
"138 46 OFFCURVE",
"149 2 OFFCURVE",
"187 -17 CURVE SMOOTH",
"203 -25 OFFCURVE",
"221 -27 OFFCURVE",
"238 -31 CURVE",
"256 -28 OFFCURVE",
"312 -19 OFFCURVE",
"324 -8 CURVE",
"339 -8 OFFCURVE",
"346 3 OFFCURVE",
"356 12 CURVE SMOOTH",
"366 20 OFFCURVE",
"377 28 OFFCURVE",
"388 36 CURVE SMOOTH",
"424 65 OFFCURVE",
"457 99 OFFCURVE",
"483 137 CURVE SMOOTH",
"489 146 OFFCURVE",
"496 153 OFFCURVE",
"502 162 CURVE",
"501 162 LINE",
"525 196 OFFCURVE",
"563 250 OFFCURVE",
"579 287 CURVE SMOOTH",
"592 318 OFFCURVE",
"610 349 OFFCURVE",
"625 379 CURVE",
"624 379 LINE",
"691 515 LINE",
"691 514 LINE",
"706 537 OFFCURVE",
"718 570 OFFCURVE",
"726 596 CURVE",
"725 595 LINE",
"733 626 OFFCURVE",
"714 657 OFFCURVE",
"686 670 CURVE SMOOTH",
"673 676 OFFCURVE",
"653 666 OFFCURVE",
"641 660 CURVE",
"628 632 OFFCURVE",
"623 602 OFFCURVE",
"610 575 CURVE SMOOTH",
"555 457 OFFCURVE",
"498 310 OFFCURVE",
"424 204 CURVE",
"406 247 OFFCURVE",
"363 347 OFFCURVE",
"357 390 CURVE",
"348 403 OFFCURVE",
"331 505 OFFCURVE",
"333 522 CURVE SMOOTH",
"334 528 OFFCURVE",
"333 544 OFFCURVE",
"327 547 CURVE",
"326 570 OFFCURVE",
"328 593 OFFCURVE",
"326 617 CURVE",
"326 616 LINE",
"325 631 OFFCURVE",
"324 646 OFFCURVE",
"324 661 CURVE",
"309 669 OFFCURVE",
"296 682 OFFCURVE",
"282 692 CURVE",
"236 687 LINE",
"225 657 OFFCURVE",
"227 631 OFFCURVE",
"233 600 CURVE SMOOTH",
"236 585 OFFCURVE",
"238 571 OFFCURVE",
"237 556 CURVE SMOOTH",
"235 512 OFFCURVE",
"255 410 OFFCURVE",
"267 366 CURVE SMOOTH",
"276 335 OFFCURVE",
"290 305 OFFCURVE",
"298 274 CURVE SMOOTH",
"301 263 OFFCURVE",
"302 251 OFFCURVE",
"304 240 CURVE SMOOTH",
"307 219 OFFCURVE",
"336 138 OFFCURVE",
"351 120 CURVE",
"345 116 OFFCURVE",
"342 110 OFFCURVE",
"338 105 CURVE SMOOTH",
"320 84 OFFCURVE",
"291 62 OFFCURVE",
"263 58 CURVE"
);
},
{
closed = 1;
nodes = (
"329 -4 LINE",
"327 -6 OFFCURVE",
"326 -7 OFFCURVE",
"324 -8 CURVE SMOOTH",
"329 -4 LINE"
);
}
);
width = 738;
},
{
anchors = (
{
name = topUC;
position = "{511, 769}";
}
);
layerId = "BF4C3430-0F48-4C30-8275-6D85863A5F93";
paths = (
{
closed = 1;
nodes = (
"250 62 OFFCURVE",
"237 59 OFFCURVE",
"223 64 CURVE SMOOTH",
"204 71 OFFCURVE",
"196 75 OFFCURVE",
"175 73 CURVE",
"138 46 OFFCURVE",
"149 2 OFFCURVE",
"187 -17 CURVE SMOOTH",
"203 -25 OFFCURVE",
"221 -27 OFFCURVE",
"238 -31 CURVE",
"256 -28 OFFCURVE",
"312 -19 OFFCURVE",
"324 -8 CURVE",
"339 -8 OFFCURVE",
"346 3 OFFCURVE",
"356 12 CURVE SMOOTH",
"366 20 OFFCURVE",
"377 28 OFFCURVE",
"388 36 CURVE SMOOTH",
"424 65 OFFCURVE",
"457 99 OFFCURVE",
"483 137 CURVE SMOOTH",
"489 146 OFFCURVE",
"496 153 OFFCURVE",
"502 162 CURVE",
"501 162 LINE",
"525 196 OFFCURVE",
"563 250 OFFCURVE",
"579 287 CURVE SMOOTH",
"592 318 OFFCURVE",
"610 349 OFFCURVE",
"625 379 CURVE",
"624 379 LINE",
"691 515 LINE",
"691 514 LINE",
"706 537 OFFCURVE",
"718 570 OFFCURVE",
"726 596 CURVE",
"725 595 LINE",
"733 626 OFFCURVE",
"714 657 OFFCURVE",
"686 670 CURVE SMOOTH",
"673 676 OFFCURVE",
"653 666 OFFCURVE",
"641 660 CURVE",
"628 632 OFFCURVE",
"623 602 OFFCURVE",
"610 575 CURVE SMOOTH",
"555 457 OFFCURVE",
"498 310 OFFCURVE",
"424 204 CURVE",
"406 247 OFFCURVE",
"363 347 OFFCURVE",
"357 390 CURVE",
"348 403 OFFCURVE",
"331 505 OFFCURVE",
"333 522 CURVE SMOOTH",
"334 528 OFFCURVE",
"333 544 OFFCURVE",
"327 547 CURVE",
"326 570 OFFCURVE",
"328 593 OFFCURVE",
"326 617 CURVE",
"326 616 LINE",
"325 631 OFFCURVE",
"324 646 OFFCURVE",
"324 661 CURVE",
"309 669 OFFCURVE",
"296 682 OFFCURVE",
"282 692 CURVE",
"236 687 LINE",
"225 657 OFFCURVE",
"227 631 OFFCURVE",
"233 600 CURVE SMOOTH",
"236 585 OFFCURVE",
"238 571 OFFCURVE",
"237 556 CURVE SMOOTH",
"235 512 OFFCURVE",
"255 410 OFFCURVE",
"267 366 CURVE SMOOTH",
"276 335 OFFCURVE",
"290 305 OFFCURVE",
"298 274 CURVE SMOOTH",
"301 263 OFFCURVE",
"302 251 OFFCURVE",
"304 240 CURVE SMOOTH",
"307 219 OFFCURVE",
"336 138 OFFCURVE",
"351 120 CURVE",
"345 116 OFFCURVE",
"342 110 OFFCURVE",
"338 105 CURVE SMOOTH",
"320 84 OFFCURVE",
"291 62 OFFCURVE",
"263 58 CURVE"
);
},
{
closed = 1;
nodes = (
"329 -4 LINE",
"327 -6 OFFCURVE",
"326 -7 OFFCURVE",
"324 -8 CURVE SMOOTH",
"329 -4 LINE"
);
}
);
width = 738;
}
);
},
{
color = 9;
glyphname = "Ef-cy.ss01";
lastChange = "2017-12-15 09:51:13 +0000";
layers = (
{
layerId = UUID0;
paths = (
{
closed = 1;
nodes = (
"386 15 OFFCURVE",
"367 -38 OFFCURVE",
"371 -56 CURVE",
"392 -85 LINE",
"442 -91 OFFCURVE",
"449 -92 OFFCURVE",
"469 -46 CURVE SMOOTH",
"479 -23 OFFCURVE",
"478 -1 OFFCURVE",
"485 22 CURVE",
"498 22 LINE SMOOTH",
"640 22 OFFCURVE",
"747 85 OFFCURVE",
"818 207 CURVE SMOOTH",
"924 389 OFFCURVE",
"890 542 OFFCURVE",
"656 576 CURVE",
"671 598 OFFCURVE",
"678 616 OFFCURVE",
"664 641 CURVE",
"659 643 OFFCURVE",
"653 647 OFFCURVE",
"650 652 CURVE SMOOTH",
"651 651 LINE",
"637 668 LINE",
"603 668 LINE",
"590 662 OFFCURVE",
"548 599 OFFCURVE",
"550 588 CURVE",
"433 598 OFFCURVE",
"337 549 OFFCURVE",
"254 470 CURVE SMOOTH",
"232 449 OFFCURVE",
"184 397 OFFCURVE",
"176 369 CURVE SMOOTH",
"168 341 OFFCURVE",
"163 316 OFFCURVE",
"158 287 CURVE SMOOTH",
"153 256 OFFCURVE",
"162 183 OFFCURVE",
"181 157 CURVE SMOOTH",
"214 112 OFFCURVE",
"262 81 OFFCURVE",
"311 55 CURVE SMOOTH",
"334 43 OFFCURVE",
"365 41 OFFCURVE",
"390 35 CURVE"
);
},
{
closed = 1;
nodes = (
"510 133 OFFCURVE",
"515 154 OFFCURVE",
"518 173 CURVE SMOOTH",
"529 257 OFFCURVE",
"584 412 OFFCURVE",
"617 493 CURVE",
"645 494 OFFCURVE",
"696 487 OFFCURVE",
"722 477 CURVE SMOOTH",
"739 470 OFFCURVE",
"750 441 OFFCURVE",
"755 425 CURVE SMOOTH",
"799 292 OFFCURVE",
"648 92 OFFCURVE",
"504 115 CURVE"
);
},
{
closed = 1;
nodes = (
"111 200 OFFCURVE",
"270 487 OFFCURVE",
"514 501 CURVE",
"512 495 LINE SMOOTH",
"483 418 OFFCURVE",
"459 335 OFFCURVE",
"438 255 CURVE SMOOTH",
"436 248 OFFCURVE",
"438 241 OFFCURVE",
"436 234 CURVE",
"434 218 OFFCURVE",
"429 203 OFFCURVE",
"424 187 CURVE SMOOTH",
"418 168 OFFCURVE",
"412 149 OFFCURVE",
"409 129 CURVE"
);
}
);
width = 885;
},
{
layerId = "BF4C3430-0F48-4C30-8275-6D85863A5F93";
paths = (
{
closed = 1;
nodes = (
"386 15 OFFCURVE",
"367 -38 OFFCURVE",
"371 -56 CURVE",
"392 -85 LINE",
"442 -91 OFFCURVE",
"449 -92 OFFCURVE",
"469 -46 CURVE SMOOTH",
"479 -23 OFFCURVE",
"478 -1 OFFCURVE",
"485 22 CURVE",
"498 22 LINE SMOOTH",
"640 22 OFFCURVE",
"747 85 OFFCURVE",
"818 207 CURVE SMOOTH",
"924 389 OFFCURVE",
"890 542 OFFCURVE",
"656 576 CURVE",
"671 598 OFFCURVE",
"678 616 OFFCURVE",
"664 641 CURVE",
"659 643 OFFCURVE",
"653 647 OFFCURVE",
"650 652 CURVE SMOOTH",
"651 651 LINE",
"637 668 LINE",
"603 668 LINE",
"590 662 OFFCURVE",
"548 599 OFFCURVE",
"550 588 CURVE",
"433 598 OFFCURVE",
"337 549 OFFCURVE",
"254 470 CURVE SMOOTH",
"232 449 OFFCURVE",
"184 397 OFFCURVE",
"176 369 CURVE SMOOTH",
"168 341 OFFCURVE",
"163 316 OFFCURVE",
"158 287 CURVE SMOOTH",
"153 256 OFFCURVE",
"162 183 OFFCURVE",
"181 157 CURVE SMOOTH",
"214 112 OFFCURVE",
"262 81 OFFCURVE",
"311 55 CURVE SMOOTH",
"334 43 OFFCURVE",
"365 41 OFFCURVE",
"390 35 CURVE"
);
},
{
closed = 1;
nodes = (
"510 133 OFFCURVE",
"515 154 OFFCURVE",
"518 173 CURVE SMOOTH",
"529 257 OFFCURVE",
"584 412 OFFCURVE",
"617 493 CURVE",
"645 494 OFFCURVE",
"696 487 OFFCURVE",
"722 477 CURVE SMOOTH",
"739 470 OFFCURVE",
"750 441 OFFCURVE",
"755 425 CURVE SMOOTH",
"799 292 OFFCURVE",
"648 92 OFFCURVE",
"504 115 CURVE"
);
},
{
closed = 1;
nodes = (
"111 200 OFFCURVE",
"270 487 OFFCURVE",
"514 501 CURVE",
"512 495 LINE SMOOTH",
"483 418 OFFCURVE",
"459 335 OFFCURVE",
"438 255 CURVE SMOOTH",
"436 248 OFFCURVE",
"438 241 OFFCURVE",
"436 234 CURVE",
"434 218 OFFCURVE",
"429 203 OFFCURVE",
"424 187 CURVE SMOOTH",
"418 168 OFFCURVE",
"412 149 OFFCURVE",
"409 129 CURVE"
);
}
);
width = 885;
}
);
},
{
color = 9;
glyphname = "Che-cy.ss01";
lastChange = "2017-12-15 09:51:13 +0000";
layers = (
{
layerId = UUID0;
paths = (
{
closed = 1;
nodes = (
"295 682 OFFCURVE",
"287 650 OFFCURVE",
"275 625 CURVE SMOOTH",
"272 618 OFFCURVE",
"268 615 OFFCURVE",
"268 607 CURVE",
"258 600 OFFCURVE",
"251 595 OFFCURVE",
"257 582 CURVE",
"231 530 OFFCURVE",
"191 426 OFFCURVE",
"180 370 CURVE",
"172 357 OFFCURVE",
"175 344 OFFCURVE",
"173 330 CURVE SMOOTH",
"167 297 OFFCURVE",
"184 269 OFFCURVE",
"206 246 CURVE SMOOTH",
"235 216 OFFCURVE",
"274 206 OFFCURVE",
"313 195 CURVE SMOOTH",
"334 189 OFFCURVE",
"392 214 OFFCURVE",
"407 230 CURVE",
"426 235 OFFCURVE",
"439 254 OFFCURVE",
"452 267 CURVE",
"420 193 OFFCURVE",
"404 114 OFFCURVE",
"375 39 CURVE",
"365 38 OFFCURVE",
"354 38 OFFCURVE",
"344 40 CURVE",
"375 -11 LINE SMOOTH",
"395 -44 OFFCURVE",
"407 -60 OFFCURVE",
"450 -52 CURVE",
"457 -37 OFFCURVE",
"458 -32 OFFCURVE",
"470 -20 CURVE",
"459 -10 OFFCURVE",
"466 3 OFFCURVE",
"469 15 CURVE",
"469 11 LINE",
"475 41 OFFCURVE",
"489 104 OFFCURVE",
"503 129 CURVE",
"503 128 LINE",
"517 154 OFFCURVE",
"519 182 OFFCURVE",
"529 209 CURVE SMOOTH",
"554 280 OFFCURVE",
"586 349 OFFCURVE",
"614 419 CURVE SMOOTH",
"617 426 OFFCURVE",
"623 432 OFFCURVE",
"626 439 CURVE SMOOTH",
"642 469 OFFCURVE",
"655 502 OFFCURVE",
"669 533 CURVE SMOOTH",
"668 532 LINE SMOOTH",
"675 546 OFFCURVE",
"678 560 OFFCURVE",
"684 574 CURVE",
"692 582 OFFCURVE",
"705 598 OFFCURVE",
"698 610 CURVE SMOOTH",
"700 607 LINE",
"688 641 OFFCURVE",
"658 646 OFFCURVE",
"627 655 CURVE",
"618 647 LINE",
"614 646 OFFCURVE",
"609 640 OFFCURVE",
"607 637 CURVE SMOOTH",
"608 638 LINE SMOOTH",
"597 624 OFFCURVE",
"584 594 OFFCURVE",
"569 587 CURVE",
"537 523 OFFCURVE",
"444 381 OFFCURVE",
"387 338 CURVE",
"387 339 LINE",
"360 315 OFFCURVE",
"319 277 OFFCURVE",
"279 290 CURVE",
"271 306 OFFCURVE",
"280 336 OFFCURVE",
"278 355 CURVE",
"287 374 OFFCURVE",
"295 394 OFFCURVE",
"300 415 CURVE",
"300 414 LINE",
"312 451 OFFCURVE",
"323 492 OFFCURVE",
"341 527 CURVE SMOOTH",
"356 556 OFFCURVE",
"373 586 OFFCURVE",
"383 617 CURVE SMOOTH",
"387 629 OFFCURVE",
"385 643 OFFCURVE",
"379 653 CURVE SMOOTH",
"368 671 OFFCURVE",
"343 683 OFFCURVE",
"325 692 CURVE"
);
}
);
width = 710;
},
{
layerId = "BF4C3430-0F48-4C30-8275-6D85863A5F93";
paths = (
{
closed = 1;
nodes = (
"295 682 OFFCURVE",
"287 650 OFFCURVE",
"275 625 CURVE SMOOTH",
"272 618 OFFCURVE",
"268 615 OFFCURVE",
"268 607 CURVE",
"258 600 OFFCURVE",
"251 595 OFFCURVE",
"257 582 CURVE",
"231 530 OFFCURVE",
"191 426 OFFCURVE",
"180 370 CURVE",
"172 357 OFFCURVE",
"175 344 OFFCURVE",
"173 330 CURVE SMOOTH",
"167 297 OFFCURVE",
"184 269 OFFCURVE",
"206 246 CURVE SMOOTH",
"235 216 OFFCURVE",
"274 206 OFFCURVE",
"313 195 CURVE SMOOTH",
"334 189 OFFCURVE",
"392 214 OFFCURVE",
"407 230 CURVE",
"426 235 OFFCURVE",
"439 254 OFFCURVE",
"452 267 CURVE",
"420 193 OFFCURVE",
"404 114 OFFCURVE",
"375 39 CURVE",
"365 38 OFFCURVE",
"354 38 OFFCURVE",
"344 40 CURVE",
"375 -11 LINE SMOOTH",
"395 -44 OFFCURVE",
"407 -60 OFFCURVE",
"450 -52 CURVE",
"457 -37 OFFCURVE",
"458 -32 OFFCURVE",
"470 -20 CURVE",
"459 -10 OFFCURVE",
"466 3 OFFCURVE",
"469 15 CURVE",
"469 11 LINE",
"475 41 OFFCURVE",
"489 104 OFFCURVE",
"503 129 CURVE",
"503 128 LINE",
"517 154 OFFCURVE",
"519 182 OFFCURVE",
"529 209 CURVE SMOOTH",
"554 280 OFFCURVE",
"586 349 OFFCURVE",
"614 419 CURVE SMOOTH",
"617 426 OFFCURVE",
"623 432 OFFCURVE",
"626 439 CURVE SMOOTH",
"642 469 OFFCURVE",
"655 502 OFFCURVE",
"669 533 CURVE SMOOTH",
"668 532 LINE SMOOTH",
"675 546 OFFCURVE",
"678 560 OFFCURVE",
"684 574 CURVE",
"692 582 OFFCURVE",
"705 598 OFFCURVE",
"698 610 CURVE SMOOTH",
"700 607 LINE",
"688 641 OFFCURVE",
"658 646 OFFCURVE",
"627 655 CURVE",
"618 647 LINE",
"614 646 OFFCURVE",
"609 640 OFFCURVE",
"607 637 CURVE SMOOTH",
"608 638 LINE SMOOTH",
"597 624 OFFCURVE",
"584 594 OFFCURVE",
"569 587 CURVE",
"537 523 OFFCURVE",
"444 381 OFFCURVE",
"387 338 CURVE",
"387 339 LINE",
"360 315 OFFCURVE",
"319 277 OFFCURVE",
"279 290 CURVE",
"271 306 OFFCURVE",
"280 336 OFFCURVE",
"278 355 CURVE",
"287 374 OFFCURVE",
"295 394 OFFCURVE",
"300 415 CURVE",
"300 414 LINE",
"312 451 OFFCURVE",
"323 492 OFFCURVE",
"341 527 CURVE SMOOTH",
"356 556 OFFCURVE",
"373 586 OFFCURVE",
"383 617 CURVE SMOOTH",
"387 629 OFFCURVE",
"385 643 OFFCURVE",
"379 653 CURVE SMOOTH",
"368 671 OFFCURVE",
"343 683 OFFCURVE",
"325 692 CURVE"
);
}
);
width = 710;
}
);
},
{
color = 9;
glyphname = "Tse-cy.ss01";
lastChange = "2017-12-15 09:51:13 +0000";
layers = (
{
layerId = UUID0;
paths = (
{
closed = 1;
nodes = (
"557 -227 LINE",
"575 -229 OFFCURVE",
"591 -227 OFFCURVE",
"608 -223 CURVE",
"615 -196 OFFCURVE",
"633 -160 OFFCURVE",
"645 -134 CURVE SMOOTH",
"672 -75 OFFCURVE",
"739 40 OFFCURVE",
"642 75 CURVE SMOOTH",
"623 82 OFFCURVE",
"607 86 OFFCURVE",
"587 86 CURVE",
"594 106 OFFCURVE",
"595 127 OFFCURVE",
"605 147 CURVE",
"609 188 OFFCURVE",
"632 222 OFFCURVE",
"641 261 CURVE SMOOTH",
"657 333 OFFCURVE",
"680 399 OFFCURVE",
"707 467 CURVE SMOOTH",
"720 500 OFFCURVE",
"771 612 OFFCURVE",
"758 641 CURVE SMOOTH",
"752 655 OFFCURVE",
"705 679 OFFCURVE",
"690 675 CURVE SMOOTH",
"663 669 OFFCURVE",
"643 592 OFFCURVE",
"637 572 CURVE",
"637 573 LINE",
"617 519 OFFCURVE",
"575 414 OFFCURVE",
"563 362 CURVE SMOOTH",
"556 333 OFFCURVE",
"556 322 OFFCURVE",
"543 293 CURVE SMOOTH",
"533 271 OFFCURVE",
"530 247 OFFCURVE",
"520 225 CURVE SMOOTH",
"521 226 LINE SMOOTH",
"516 216 OFFCURVE",
"513 206 OFFCURVE",
"511 196 CURVE",
"512 197 LINE SMOOTH",
"499 158 OFFCURVE",
"491 118 OFFCURVE",
"479 79 CURVE",
"463 79 OFFCURVE",
"440 81 OFFCURVE",
"425 77 CURVE SMOOTH",
"415 74 OFFCURVE",
"407 74 OFFCURVE",
"397 74 CURVE SMOOTH",
"382 74 OFFCURVE",
"369 68 OFFCURVE",
"355 68 CURVE SMOOTH",
"322 68 OFFCURVE",
"273 63 OFFCURVE",
"241 73 CURVE SMOOTH",
"230 77 OFFCURVE",
"232 100 OFFCURVE",
"234 109 CURVE",
"234 108 LINE",
"259 226 OFFCURVE",
"308 339 OFFCURVE",
"354 450 CURVE SMOOTH",
"360 464 OFFCURVE",
"361 475 OFFCURVE",
"371 487 CURVE",
"373 512 OFFCURVE",
"392 532 OFFCURVE",
"400 556 CURVE",
"400 555 LINE",
"412 585 OFFCURVE",
"435 615 OFFCURVE",
"429 649 CURVE",
"413 665 OFFCURVE",
"395 685 OFFCURVE",
"372 690 CURVE",
"373 689 LINE",
"354 694 OFFCURVE",
"333 679 OFFCURVE",
"333 659 CURVE SMOOTH",
"333 646 OFFCURVE",
"288 558 OFFCURVE",
"282 543 CURVE SMOOTH",
"255 482 OFFCURVE",
"228 419 OFFCURVE",
"204 356 CURVE",
"204 357 LINE",
"195 336 OFFCURVE",
"189 314 OFFCURVE",
"182 293 CURVE",
"182 294 LINE",
"163 238 OFFCURVE",
"142 185 OFFCURVE",
"133 127 CURVE",
"134 129 LINE SMOOTH",
"121 77 OFFCURVE",
"151 51 OFFCURVE",
"174 9 CURVE",
"180 8 OFFCURVE",
"212 -13 OFFCURVE",
"218 -18 CURVE",
"239 -18 OFFCURVE",
"276 -25 OFFCURVE",
"300 -27 CURVE SMOOTH",
"352 -32 OFFCURVE",
"443 -22 OFFCURVE",
"497 -11 CURVE",
"503 -13 OFFCURVE",
"574 -9 OFFCURVE",
"586 -9 CURVE",
"584 -34 OFFCURVE",
"569 -75 OFFCURVE",
"555 -95 CURVE",
"555 -94 LINE",
"547 -105 OFFCURVE",
"544 -114 OFFCURVE",
"541 -127 CURVE SMOOTH",
"534 -160 OFFCURVE",
"514 -170 OFFCURVE",
"528 -208 CURVE",
"557 -227 LINE"
);
}
);
width = 771;
},
{
layerId = "BF4C3430-0F48-4C30-8275-6D85863A5F93";
paths = (
{
closed = 1;
nodes = (
"557 -227 LINE",
"575 -229 OFFCURVE",
"591 -227 OFFCURVE",
"608 -223 CURVE",
"615 -196 OFFCURVE",
"633 -160 OFFCURVE",
"645 -134 CURVE SMOOTH",
"672 -75 OFFCURVE",
"739 40 OFFCURVE",
"642 75 CURVE SMOOTH",
"623 82 OFFCURVE",
"607 86 OFFCURVE",
"587 86 CURVE",
"594 106 OFFCURVE",
"595 127 OFFCURVE",
"605 147 CURVE",
"609 188 OFFCURVE",
"632 222 OFFCURVE",
"641 261 CURVE SMOOTH",
"657 333 OFFCURVE",
"680 399 OFFCURVE",
"707 467 CURVE SMOOTH",
"720 500 OFFCURVE",
"771 612 OFFCURVE",
"758 641 CURVE SMOOTH",
"752 655 OFFCURVE",
"705 679 OFFCURVE",
"690 675 CURVE SMOOTH",
"663 669 OFFCURVE",
"643 592 OFFCURVE",
"637 572 CURVE",
"637 573 LINE",
"617 519 OFFCURVE",
"575 414 OFFCURVE",
"563 362 CURVE SMOOTH",
"556 333 OFFCURVE",
"556 322 OFFCURVE",
"543 293 CURVE SMOOTH",
"533 271 OFFCURVE",
"530 247 OFFCURVE",
"520 225 CURVE SMOOTH",
"521 226 LINE SMOOTH",
"516 216 OFFCURVE",
"513 206 OFFCURVE",
"511 196 CURVE",
"512 197 LINE SMOOTH",
"499 158 OFFCURVE",
"491 118 OFFCURVE",
"479 79 CURVE",
"463 79 OFFCURVE",
"440 81 OFFCURVE",
"425 77 CURVE SMOOTH",
"415 74 OFFCURVE",
"407 74 OFFCURVE",
"397 74 CURVE SMOOTH",
"382 74 OFFCURVE",
"369 68 OFFCURVE",
"355 68 CURVE SMOOTH",
"322 68 OFFCURVE",
"273 63 OFFCURVE",
"241 73 CURVE SMOOTH",
"230 77 OFFCURVE",
"232 100 OFFCURVE",
"234 109 CURVE",
"234 108 LINE",
"259 226 OFFCURVE",
"308 339 OFFCURVE",
"354 450 CURVE SMOOTH",
"360 464 OFFCURVE",
"361 475 OFFCURVE",
"371 487 CURVE",
"373 512 OFFCURVE",
"392 532 OFFCURVE",
"400 556 CURVE",
"400 555 LINE",
"412 585 OFFCURVE",
"435 615 OFFCURVE",
"429 649 CURVE",
"413 665 OFFCURVE",
"395 685 OFFCURVE",
"372 690 CURVE",
"373 689 LINE",
"354 694 OFFCURVE",
"333 679 OFFCURVE",
"333 659 CURVE SMOOTH",
"333 646 OFFCURVE",
"288 558 OFFCURVE",
"282 543 CURVE SMOOTH",
"255 482 OFFCURVE",
"228 419 OFFCURVE",
"204 356 CURVE",
"204 357 LINE",
"195 336 OFFCURVE",
"189 314 OFFCURVE",
"182 293 CURVE",
"182 294 LINE",
"163 238 OFFCURVE",
"142 185 OFFCURVE",
"133 127 CURVE",
"134 129 LINE SMOOTH",
"121 77 OFFCURVE",
"151 51 OFFCURVE",
"174 9 CURVE",
"180 8 OFFCURVE",
"212 -13 OFFCURVE",
"218 -18 CURVE",
"239 -18 OFFCURVE",
"276 -25 OFFCURVE",
"300 -27 CURVE SMOOTH",
"352 -32 OFFCURVE",
"443 -22 OFFCURVE",
"497 -11 CURVE",
"503 -13 OFFCURVE",
"574 -9 OFFCURVE",
"586 -9 CURVE",
"584 -34 OFFCURVE",
"569 -75 OFFCURVE",
"555 -95 CURVE",
"555 -94 LINE",
"547 -105 OFFCURVE",
"544 -114 OFFCURVE",
"541 -127 CURVE SMOOTH",
"534 -160 OFFCURVE",
"514 -170 OFFCURVE",
"528 -208 CURVE",
"557 -227 LINE"
);
}
);
width = 771;
}
);
},
{
color = 9;
glyphname = "Sha-cy.ss01";
lastChange = "2017-12-15 09:51:13 +0000";
layers = (
{
layerId = UUID0;
paths = (
{
closed = 1;
nodes = (
"248 14 OFFCURVE",
"203 11 OFFCURVE",
"200 26 CURVE SMOOTH",
"190 71 OFFCURVE",
"276 292 OFFCURVE",
"297 346 CURVE",
"297 345 LINE",
"301 354 OFFCURVE",
"305 363 OFFCURVE",
"309 372 CURVE SMOOTH",
"308 371 LINE SMOOTH",
"340 446 OFFCURVE",
"375 518 OFFCURVE",
"413 590 CURVE SMOOTH",
"425 612 OFFCURVE",
"423 636 OFFCURVE",
"416 659 CURVE",
"392 667 OFFCURVE",
"384 686 OFFCURVE",
"357 688 CURVE",
"341 680 OFFCURVE",
"335 670 OFFCURVE",
"329 654 CURVE SMOOTH",
"330 655 LINE SMOOTH",
"316 632 OFFCURVE",
"305 604 OFFCURVE",
"294 579 CURVE",
"294 580 LINE",
"288 568 OFFCURVE",
"235 459 OFFCURVE",
"234 455 CURVE SMOOTH",
"231 441 OFFCURVE",
"227 430 OFFCURVE",
"221 417 CURVE",
"222 417 LINE",
"203 383 OFFCURVE",
"121 155 OFFCURVE",
"113 115 CURVE",
"114 116 LINE",
"106 86 OFFCURVE",
"99 56 OFFCURVE",
"103 24 CURVE SMOOTH",
"107 -10 OFFCURVE",
"142 -48 OFFCURVE",
"173 -62 CURVE SMOOTH",
"197 -72 OFFCURVE",
"225 -77 OFFCURVE",
"251 -77 CURVE SMOOTH",
"287 -77 OFFCURVE",
"317 -63 OFFCURVE",
"352 -60 CURVE SMOOTH",
"375 -58 OFFCURVE",
"400 -48 OFFCURVE",
"422 -42 CURVE SMOOTH",
"464 -31 OFFCURVE",
"507 -21 OFFCURVE",
"549 -9 CURVE SMOOTH",
"558 -6 OFFCURVE",
"569 -7 OFFCURVE",
"579 -4 CURVE SMOOTH",
"623 8 OFFCURVE",
"666 15 OFFCURVE",
"712 21 CURVE",
"716 20 LINE",
"725 5 LINE",
"771 5 LINE",
"790 26 LINE",
"857 29 OFFCURVE",
"856 89 OFFCURVE",
"801 107 CURVE",
"810 147 OFFCURVE",
"830 183 OFFCURVE",
"840 222 CURVE SMOOTH",
"846 243 OFFCURVE",
"856 262 OFFCURVE",
"861 283 CURVE SMOOTH",
"877 347 OFFCURVE",
"904 405 OFFCURVE",
"925 467 CURVE SMOOTH",
"939 507 OFFCURVE",
"968 553 OFFCURVE",
"974 594 CURVE SMOOTH",
"981 638 OFFCURVE",
"917 663 OFFCURVE",
"882 651 CURVE",
"881 649 OFFCURVE",
"869 624 OFFCURVE",
"870 621 CURVE SMOOTH",
"871 620 OFFCURVE",
"875 626 OFFCURVE",
"875 622 CURVE SMOOTH",
"875 614 OFFCURVE",
"871 606 OFFCURVE",
"869 599 CURVE SMOOTH",
"870 600 LINE",
"865 580 OFFCURVE",
"856 562 OFFCURVE",
"848 543 CURVE SMOOTH",
"831 505 OFFCURVE",
"817 462 OFFCURVE",
"806 422 CURVE SMOOTH",
"806 424 LINE",
"787 378 LINE SMOOTH",
"768 332 OFFCURVE",
"756 296 OFFCURVE",
"742 248 CURVE SMOOTH",
"728 199 OFFCURVE",
"710 163 OFFCURVE",
"701 110 CURVE",
"641 108 OFFCURVE",
"585 89 OFFCURVE",
"527 78 CURVE",
"528 79 LINE",
"520 77 OFFCURVE",
"513 75 OFFCURVE",
"505 73 CURVE",
"507 93 OFFCURVE",
"533 167 OFFCURVE",
"543 184 CURVE SMOOTH",
"554 202 OFFCURVE",
"559 222 OFFCURVE",
"566 242 CURVE SMOOTH",
"582 289 OFFCURVE",
"673 539 OFFCURVE",
"693 563 CURVE",
"687 581 OFFCURVE",
"678 604 OFFCURVE",
"661 614 CURVE SMOOTH",
"662 613 LINE SMOOTH",
"657 616 OFFCURVE",
"653 622 OFFCURVE",
"651 628 CURVE",
"637 629 OFFCURVE",
"623 632 OFFCURVE",
"609 635 CURVE",
"589 605 OFFCURVE",
"557 507 OFFCURVE",
"544 468 CURVE SMOOTH",
"515 383 OFFCURVE",
"472 301 OFFCURVE",
"449 214 CURVE SMOOTH",
"446 202 OFFCURVE",
"443 189 OFFCURVE",
"437 177 CURVE SMOOTH",
"422 145 OFFCURVE",
"412 113 OFFCURVE",
"403 79 CURVE SMOOTH",
"400 68 OFFCURVE",
"399 58 OFFCURVE",
"400 47 CURVE",
"366 36 OFFCURVE",
"330 32 OFFCURVE",
"297 20 CURVE SMOOTH",
"293 19 OFFCURVE",
"289 17 OFFCURVE",
"285 17 CURVE SMOOTH",
"276 17 OFFCURVE",
"268 19 OFFCURVE",
"260 14 CURVE"
);
}
);
width = 985;
},
{
layerId = "BF4C3430-0F48-4C30-8275-6D85863A5F93";
paths = (
{
closed = 1;
nodes = (
"248 14 OFFCURVE",
"203 11 OFFCURVE",
"200 26 CURVE SMOOTH",
"190 71 OFFCURVE",
"276 292 OFFCURVE",
"297 346 CURVE",
"297 345 LINE",
"301 354 OFFCURVE",
"305 363 OFFCURVE",
"309 372 CURVE SMOOTH",
"308 371 LINE SMOOTH",
"340 446 OFFCURVE",
"375 518 OFFCURVE",
"413 590 CURVE SMOOTH",
"425 612 OFFCURVE",
"423 636 OFFCURVE",
"416 659 CURVE",
"392 667 OFFCURVE",
"384 686 OFFCURVE",
"357 688 CURVE",
"341 680 OFFCURVE",
"335 670 OFFCURVE",
"329 654 CURVE SMOOTH",
"330 655 LINE SMOOTH",
"316 632 OFFCURVE",
"305 604 OFFCURVE",
"294 579 CURVE",
"294 580 LINE",
"288 568 OFFCURVE",
"235 459 OFFCURVE",
"234 455 CURVE SMOOTH",
"231 441 OFFCURVE",
"227 430 OFFCURVE",
"221 417 CURVE",
"222 417 LINE",
"203 383 OFFCURVE",
"121 155 OFFCURVE",
"113 115 CURVE",
"114 116 LINE",
"106 86 OFFCURVE",
"99 56 OFFCURVE",
"103 24 CURVE SMOOTH",
"107 -10 OFFCURVE",
"142 -48 OFFCURVE",
"173 -62 CURVE SMOOTH",
"197 -72 OFFCURVE",
"225 -77 OFFCURVE",
"251 -77 CURVE SMOOTH",
"287 -77 OFFCURVE",
"317 -63 OFFCURVE",
"352 -60 CURVE SMOOTH",
"375 -58 OFFCURVE",
"400 -48 OFFCURVE",
"422 -42 CURVE SMOOTH",
"464 -31 OFFCURVE",
"507 -21 OFFCURVE",
"549 -9 CURVE SMOOTH",
"558 -6 OFFCURVE",
"569 -7 OFFCURVE",
"579 -4 CURVE SMOOTH",
"623 8 OFFCURVE",
"666 15 OFFCURVE",
"712 21 CURVE",
"716 20 LINE",
"725 5 LINE",
"771 5 LINE",
"790 26 LINE",
"857 29 OFFCURVE",
"856 89 OFFCURVE",
"801 107 CURVE",
"810 147 OFFCURVE",
"830 183 OFFCURVE",
"840 222 CURVE SMOOTH",
"846 243 OFFCURVE",
"856 262 OFFCURVE",
"861 283 CURVE SMOOTH",
"877 347 OFFCURVE",
"904 405 OFFCURVE",
"925 467 CURVE SMOOTH",
"939 507 OFFCURVE",
"968 553 OFFCURVE",
"974 594 CURVE SMOOTH",
"981 638 OFFCURVE",
"917 663 OFFCURVE",
"882 651 CURVE",
"881 649 OFFCURVE",
"869 624 OFFCURVE",
"870 621 CURVE SMOOTH",
"871 620 OFFCURVE",
"875 626 OFFCURVE",
"875 622 CURVE SMOOTH",
"875 614 OFFCURVE",
"871 606 OFFCURVE",
"869 599 CURVE SMOOTH",
"870 600 LINE",
"865 580 OFFCURVE",
"856 562 OFFCURVE",
"848 543 CURVE SMOOTH",
"831 505 OFFCURVE",
"817 462 OFFCURVE",
"806 422 CURVE SMOOTH",
"806 424 LINE",
"787 378 LINE SMOOTH",
"768 332 OFFCURVE",
"756 296 OFFCURVE",
"742 248 CURVE SMOOTH",
"728 199 OFFCURVE",
"710 163 OFFCURVE",
"701 110 CURVE",
"641 108 OFFCURVE",
"585 89 OFFCURVE",
"527 78 CURVE",
"528 79 LINE",
"520 77 OFFCURVE",
"513 75 OFFCURVE",
"505 73 CURVE",
"507 93 OFFCURVE",
"533 167 OFFCURVE",
"543 184 CURVE SMOOTH",
"554 202 OFFCURVE",
"559 222 OFFCURVE",
"566 242 CURVE SMOOTH",
"582 289 OFFCURVE",
"673 539 OFFCURVE",
"693 563 CURVE",
"687 581 OFFCURVE",
"678 604 OFFCURVE",
"661 614 CURVE SMOOTH",
"662 613 LINE SMOOTH",
"657 616 OFFCURVE",
"653 622 OFFCURVE",
"651 628 CURVE",
"637 629 OFFCURVE",
"623 632 OFFCURVE",
"609 635 CURVE",
"589 605 OFFCURVE",
"557 507 OFFCURVE",
"544 468 CURVE SMOOTH",
"515 383 OFFCURVE",
"472 301 OFFCURVE",
"449 214 CURVE SMOOTH",
"446 202 OFFCURVE",
"443 189 OFFCURVE",
"437 177 CURVE SMOOTH",
"422 145 OFFCURVE",
"412 113 OFFCURVE",
"403 79 CURVE SMOOTH",
"400 68 OFFCURVE",
"399 58 OFFCURVE",
"400 47 CURVE",
"366 36 OFFCURVE",
"330 32 OFFCURVE",
"297 20 CURVE SMOOTH",
"293 19 OFFCURVE",
"289 17 OFFCURVE",
"285 17 CURVE SMOOTH",
"276 17 OFFCURVE",
"268 19 OFFCURVE",
"260 14 CURVE"
);
}
);
width = 985;
}
);
},
{
color = 9;
glyphname = "Shcha-cy.ss01";
lastChange = "2017-12-15 09:51:13 +0000";
layers = (
{
layerId = UUID0;
paths = (
{
closed = 1;
nodes = (
"966 696 LINE",
"938 687 OFFCURVE",
"915 702 OFFCURVE",
"913 659 CURVE",
"900 633 OFFCURVE",
"889 605 OFFCURVE",
"877 579 CURVE SMOOTH",
"844 508 OFFCURVE",
"809 437 OFFCURVE",
"779 364 CURVE SMOOTH",
"780 365 LINE SMOOTH",
"756 316 OFFCURVE",
"729 265 OFFCURVE",
"714 212 CURVE SMOOTH",
"713 209 OFFCURVE",
"713 211 OFFCURVE",
"711 208 CURVE SMOOTH",
"687 177 OFFCURVE",
"684 129 OFFCURVE",
"668 104 CURVE",
"670 109 LINE",
"667 105 OFFCURVE",
"665 100 OFFCURVE",
"665 95 CURVE",
"610 93 OFFCURVE",
"557 76 OFFCURVE",
"502 73 CURVE",
"508 95 OFFCURVE",
"514 118 OFFCURVE",
"519 140 CURVE SMOOTH",
"524 164 OFFCURVE",
"535 185 OFFCURVE",
"544 208 CURVE SMOOTH",
"570 276 OFFCURVE",
"596 346 OFFCURVE",
"626 412 CURVE SMOOTH",
"651 468 OFFCURVE",
"678 523 OFFCURVE",
"698 581 CURVE SMOOTH",
"702 593 OFFCURVE",
"703 600 OFFCURVE",
"697 612 CURVE SMOOTH",
"698 611 LINE SMOOTH",
"690 631 OFFCURVE",
"667 648 OFFCURVE",
"645 651 CURVE SMOOTH",
"619 655 OFFCURVE",
"615 648 OFFCURVE",
"604 626 CURVE SMOOTH",
"591 599 OFFCURVE",
"585 570 OFFCURVE",
"573 543 CURVE SMOOTH",
"546 483 OFFCURVE",
"520 424 OFFCURVE",
"500 361 CURVE SMOOTH",
"493 339 OFFCURVE",
"481 319 OFFCURVE",
"472 299 CURVE SMOOTH",
"443 237 OFFCURVE",
"422 166 OFFCURVE",
"404 100 CURVE",
"404 101 LINE",
"399 88 OFFCURVE",
"397 74 OFFCURVE",
"392 60 CURVE",
"359 60 OFFCURVE",
"254 54 OFFCURVE",
"229 83 CURVE SMOOTH",
"227 85 OFFCURVE",
"226 87 OFFCURVE",
"224 89 CURVE",
"224 123 OFFCURVE",
"223 157 OFFCURVE",
"243 187 CURVE",
"241 211 OFFCURVE",
"256 222 OFFCURVE",
"256 242 CURVE",
"283 293 OFFCURVE",
"303 350 OFFCURVE",
"326 403 CURVE SMOOTH",
"329 409 OFFCURVE",
"332 415 OFFCURVE",
"334 421 CURVE SMOOTH",
"334 419 LINE",
"351 455 OFFCURVE",
"369 492 OFFCURVE",
"390 526 CURVE",
"390 525 LINE",
"402 541 OFFCURVE",
"411 559 OFFCURVE",
"418 578 CURVE SMOOTH",
"434 620 OFFCURVE",
"420 636 OFFCURVE",
"383 653 CURVE SMOOTH",
"375 657 OFFCURVE",
"370 659 OFFCURVE",
"363 665 CURVE",
"328 640 OFFCURVE",
"329 638 OFFCURVE",
"310 598 CURVE SMOOTH",
"311 599 LINE SMOOTH",
"289 556 OFFCURVE",
"261 513 OFFCURVE",
"245 467 CURVE",
"245 468 LINE",
"238 454 OFFCURVE",
"233 438 OFFCURVE",
"224 425 CURVE",
"220 397 OFFCURVE",
"199 361 OFFCURVE",
"187 336 CURVE SMOOTH",
"173 306 OFFCURVE",
"162 272 OFFCURVE",
"150 241 CURVE SMOOTH",
"111 140 OFFCURVE",
"100 62 OFFCURVE",
"203 -3 CURVE SMOOTH",
"251 -33 OFFCURVE",
"326 -27 OFFCURVE",
"380 -27 CURVE SMOOTH",
"396 -27 OFFCURVE",
"415 -29 OFFCURVE",
"431 -25 CURVE SMOOTH",
"429 -26 LINE",
"490 -16 LINE SMOOTH",
"515 -12 OFFCURVE",
"541 -14 OFFCURVE",
"566 -9 CURVE",
"585 2 OFFCURVE",
"666 5 OFFCURVE",
"693 8 CURVE",
"698 13 OFFCURVE",
"776 16 OFFCURVE",
"792 19 CURVE SMOOTH",
"789 19 LINE SMOOTH",
"798 20 OFFCURVE",
"806 22 OFFCURVE",
"815 22 CURVE",
"785 -59 OFFCURVE",
"756 -107 OFFCURVE",
"716 -182 CURVE SMOOTH",
"706 -200 OFFCURVE",
"709 -220 OFFCURVE",
"717 -238 CURVE",
"750 -252 OFFCURVE",
"797 -278 OFFCURVE",
"809 -223 CURVE",
"858 -150 OFFCURVE",
"886 -66 OFFCURVE",
"925 12 CURVE SMOOTH",
"931 24 OFFCURVE",
"931 37 OFFCURVE",
"936 49 CURVE SMOOTH",
"946 74 OFFCURVE",
"940 90 OFFCURVE",
"923 110 CURVE",
"906 114 OFFCURVE",
"890 120 OFFCURVE",
"872 122 CURVE",
"844 111 OFFCURVE",
"808 117 OFFCURVE",
"778 109 CURVE",
"806 183 OFFCURVE",
"979 583 OFFCURVE",
"1016 624 CURVE",
"1017 641 LINE",
"1014 648 OFFCURVE",
"1012 656 OFFCURVE",
"1011 664 CURVE",
"966 696 LINE"
);
},
{
closed = 1;
nodes = (
"665 84 OFFCURVE",
"665 85 OFFCURVE",
"665 86 CURVE SMOOTH",
"665 85 OFFCURVE",
"665 85 OFFCURVE",
"666 84 CURVE"
);
}
);
width = 1027;
},
{
layerId = "BF4C3430-0F48-4C30-8275-6D85863A5F93";
paths = (
{
closed = 1;
nodes = (
"966 696 LINE",
"938 687 OFFCURVE",
"915 702 OFFCURVE",
"913 659 CURVE",
"900 633 OFFCURVE",
"889 605 OFFCURVE",
"877 579 CURVE SMOOTH",
"844 508 OFFCURVE",
"809 437 OFFCURVE",
"779 364 CURVE SMOOTH",
"780 365 LINE SMOOTH",
"756 316 OFFCURVE",
"729 265 OFFCURVE",
"714 212 CURVE SMOOTH",
"713 209 OFFCURVE",
"713 211 OFFCURVE",
"711 208 CURVE SMOOTH",
"687 177 OFFCURVE",
"684 129 OFFCURVE",
"668 104 CURVE",
"670 109 LINE",
"667 105 OFFCURVE",
"665 100 OFFCURVE",
"665 95 CURVE",
"610 93 OFFCURVE",
"557 76 OFFCURVE",
"502 73 CURVE",
"508 95 OFFCURVE",
"514 118 OFFCURVE",
"519 140 CURVE SMOOTH",
"524 164 OFFCURVE",
"535 185 OFFCURVE",
"544 208 CURVE SMOOTH",
"570 276 OFFCURVE",
"596 346 OFFCURVE",
"626 412 CURVE SMOOTH",
"651 468 OFFCURVE",
"678 523 OFFCURVE",
"698 581 CURVE SMOOTH",
"702 593 OFFCURVE",
"703 600 OFFCURVE",
"697 612 CURVE SMOOTH",
"698 611 LINE SMOOTH",
"690 631 OFFCURVE",
"667 648 OFFCURVE",
"645 651 CURVE SMOOTH",
"619 655 OFFCURVE",
"615 648 OFFCURVE",
"604 626 CURVE SMOOTH",
"591 599 OFFCURVE",
"585 570 OFFCURVE",
"573 543 CURVE SMOOTH",
"546 483 OFFCURVE",
"520 424 OFFCURVE",
"500 361 CURVE SMOOTH",
"493 339 OFFCURVE",
"481 319 OFFCURVE",
"472 299 CURVE SMOOTH",
"443 237 OFFCURVE",
"422 166 OFFCURVE",
"404 100 CURVE",
"404 101 LINE",
"399 88 OFFCURVE",
"397 74 OFFCURVE",
"392 60 CURVE",
"359 60 OFFCURVE",
"254 54 OFFCURVE",
"229 83 CURVE SMOOTH",
"227 85 OFFCURVE",
"226 87 OFFCURVE",
"224 89 CURVE",
"224 123 OFFCURVE",
"223 157 OFFCURVE",
"243 187 CURVE",
"241 211 OFFCURVE",
"256 222 OFFCURVE",
"256 242 CURVE",
"283 293 OFFCURVE",
"303 350 OFFCURVE",
"326 403 CURVE SMOOTH",
"329 409 OFFCURVE",
"332 415 OFFCURVE",
"334 421 CURVE SMOOTH",
"334 419 LINE",
"351 455 OFFCURVE",
"369 492 OFFCURVE",
"390 526 CURVE",
"390 525 LINE",
"402 541 OFFCURVE",
"411 559 OFFCURVE",
"418 578 CURVE SMOOTH",
"434 620 OFFCURVE",
"420 636 OFFCURVE",
"383 653 CURVE SMOOTH",
"375 657 OFFCURVE",
"370 659 OFFCURVE",
"363 665 CURVE",
"328 640 OFFCURVE",
"329 638 OFFCURVE",
"310 598 CURVE SMOOTH",
"311 599 LINE SMOOTH",
"289 556 OFFCURVE",
"261 513 OFFCURVE",
"245 467 CURVE",
"245 468 LINE",
"238 454 OFFCURVE",
"233 438 OFFCURVE",
"224 425 CURVE",
"220 397 OFFCURVE",
"199 361 OFFCURVE",
"187 336 CURVE SMOOTH",
"173 306 OFFCURVE",
"162 272 OFFCURVE",
"150 241 CURVE SMOOTH",
"111 140 OFFCURVE",
"100 62 OFFCURVE",
"203 -3 CURVE SMOOTH",
"251 -33 OFFCURVE",
"326 -27 OFFCURVE",
"380 -27 CURVE SMOOTH",
"396 -27 OFFCURVE",
"415 -29 OFFCURVE",
"431 -25 CURVE SMOOTH",
"429 -26 LINE",
"490 -16 LINE SMOOTH",
"515 -12 OFFCURVE",
"541 -14 OFFCURVE",
"566 -9 CURVE",
"585 2 OFFCURVE",
"666 5 OFFCURVE",
"693 8 CURVE",
"698 13 OFFCURVE",
"776 16 OFFCURVE",
"792 19 CURVE SMOOTH",
"789 19 LINE SMOOTH",
"798 20 OFFCURVE",
"806 22 OFFCURVE",
"815 22 CURVE",
"785 -59 OFFCURVE",
"756 -107 OFFCURVE",
"716 -182 CURVE SMOOTH",
"706 -200 OFFCURVE",
"709 -220 OFFCURVE",
"717 -238 CURVE",
"750 -252 OFFCURVE",
"797 -278 OFFCURVE",
"809 -223 CURVE",
"858 -150 OFFCURVE",
"886 -66 OFFCURVE",
"925 12 CURVE SMOOTH",
"931 24 OFFCURVE",
"931 37 OFFCURVE",
"936 49 CURVE SMOOTH",
"946 74 OFFCURVE",
"940 90 OFFCURVE",
"923 110 CURVE",
"906 114 OFFCURVE",
"890 120 OFFCURVE",
"872 122 CURVE",
"844 111 OFFCURVE",
"808 117 OFFCURVE",
"778 109 CURVE",
"806 183 OFFCURVE",
"979 583 OFFCURVE",
"1016 624 CURVE",
"1017 641 LINE",
"1014 648 OFFCURVE",
"1012 656 OFFCURVE",
"1011 664 CURVE",
"966 696 LINE"
);
},
{
closed = 1;
nodes = (
"665 84 OFFCURVE",
"665 85 OFFCURVE",
"665 86 CURVE SMOOTH",
"665 85 OFFCURVE",
"665 85 OFFCURVE",
"666 84 CURVE"
);
}
);
width = 1027;
}
);
},
{
color = 9;
glyphname = "Softsign-cy.ss01";
lastChange = "2017-12-15 09:51:13 +0000";
layers = (
{
layerId = UUID0;
paths = (
{
closed = 1;
nodes = (
"353 413 LINE SMOOTH",
"345 416 OFFCURVE",
"336 418 OFFCURVE",
"329 423 CURVE",
"352 493 OFFCURVE",
"387 558 OFFCURVE",
"422 623 CURVE SMOOTH",
"431 640 OFFCURVE",
"438 664 OFFCURVE",
"429 683 CURVE SMOOTH",
"430 682 LINE SMOOTH",
"415 715 OFFCURVE",
"353 726 OFFCURVE",
"336 689 CURVE SMOOTH",
"316 646 OFFCURVE",
"299 602 OFFCURVE",
"277 559 CURVE SMOOTH",
"252 512 OFFCURVE",
"205 342 OFFCURVE",
"184 320 CURVE",
"170 261 OFFCURVE",
"83 27 OFFCURVE",
"101 -14 CURVE SMOOTH",
"104 -22 OFFCURVE",
"144 -56 OFFCURVE",
"152 -60 CURVE SMOOTH",
"197 -83 OFFCURVE",
"270 -84 OFFCURVE",
"314 -59 CURVE SMOOTH",
"424 3 OFFCURVE",
"542 124 OFFCURVE",
"500 261 CURVE SMOOTH",
"478 331 OFFCURVE",
"419 387 OFFCURVE",
"352 414 CURVE"
);
},
{
closed = 1;
nodes = (
"211 114 OFFCURVE",
"263 255 OFFCURVE",
"296 343 CURVE",
"325 338 OFFCURVE",
"390 297 OFFCURVE",
"404 271 CURVE SMOOTH",
"412 256 OFFCURVE",
"409 236 OFFCURVE",
"414 219 CURVE",
"411 209 OFFCURVE",
"413 199 OFFCURVE",
"411 189 CURVE SMOOTH",
"398 123 OFFCURVE",
"272 -5 OFFCURVE",
"203 21 CURVE"
);
}
);
width = 519;
},
{
layerId = "BF4C3430-0F48-4C30-8275-6D85863A5F93";
paths = (
{
closed = 1;
nodes = (
"353 413 LINE SMOOTH",
"345 416 OFFCURVE",
"336 418 OFFCURVE",
"329 423 CURVE",
"352 493 OFFCURVE",
"387 558 OFFCURVE",
"422 623 CURVE SMOOTH",
"431 640 OFFCURVE",
"438 664 OFFCURVE",
"429 683 CURVE SMOOTH",
"430 682 LINE SMOOTH",
"415 715 OFFCURVE",
"353 726 OFFCURVE",
"336 689 CURVE SMOOTH",
"316 646 OFFCURVE",
"299 602 OFFCURVE",
"277 559 CURVE SMOOTH",
"252 512 OFFCURVE",
"205 342 OFFCURVE",
"184 320 CURVE",
"170 261 OFFCURVE",
"83 27 OFFCURVE",
"101 -14 CURVE SMOOTH",
"104 -22 OFFCURVE",
"144 -56 OFFCURVE",
"152 -60 CURVE SMOOTH",
"197 -83 OFFCURVE",
"270 -84 OFFCURVE",
"314 -59 CURVE SMOOTH",
"424 3 OFFCURVE",
"542 124 OFFCURVE",
"500 261 CURVE SMOOTH",
"478 331 OFFCURVE",
"419 387 OFFCURVE",
"352 414 CURVE"
);
},
{
closed = 1;
nodes = (
"211 114 OFFCURVE",
"263 255 OFFCURVE",
"296 343 CURVE",
"325 338 OFFCURVE",
"390 297 OFFCURVE",
"404 271 CURVE SMOOTH",
"412 256 OFFCURVE",
"409 236 OFFCURVE",
"414 219 CURVE",
"411 209 OFFCURVE",
"413 199 OFFCURVE",
"411 189 CURVE SMOOTH",
"398 123 OFFCURVE",
"272 -5 OFFCURVE",
"203 21 CURVE"
);
}
);
width = 519;
}
);
},
{
color = 9;
glyphname = "Iu-cy.ss01";
lastChange = "2017-12-15 09:51:13 +0000";
layers = (
{
layerId = UUID0;
paths = (
{
closed = 1;
nodes = (
"359 107 OFFCURVE",
"361 87 OFFCURVE",
"364 68 CURVE SMOOTH",
"368 41 LINE SMOOTH",
"377 -17 OFFCURVE",
"432 -44 OFFCURVE",
"484 -51 CURVE SMOOTH",
"499 -53 OFFCURVE",
"510 -59 OFFCURVE",
"525 -50 CURVE",
"684 -25 OFFCURVE",
"804 261 OFFCURVE",
"812 416 CURVE SMOOTH",
"813 434 OFFCURVE",
"819 447 OFFCURVE",
"819 471 CURVE SMOOTH",
"819 516 OFFCURVE",
"806 585 OFFCURVE",
"772 617 CURVE SMOOTH",
"766 622 OFFCURVE",
"763 630 OFFCURVE",
"759 637 CURVE",
"720 650 LINE",
"722 658 OFFCURVE",
"714 666 OFFCURVE",
"716 676 CURVE",
"692 689 OFFCURVE",
"668 704 OFFCURVE",
"641 690 CURVE SMOOTH",
"553 644 OFFCURVE",
"495 556 OFFCURVE",
"454 469 CURVE",
"414 465 OFFCURVE",
"375 455 OFFCURVE",
"337 441 CURVE",
"344 453 LINE",
"345 459 LINE",
"345 456 LINE",
"353 475 LINE",
"353 474 LINE",
"373 524 OFFCURVE",
"397 573 OFFCURVE",
"416 624 CURVE SMOOTH",
"427 654 OFFCURVE",
"413 678 OFFCURVE",
"391 698 CURVE",
"373 701 OFFCURVE",
"345 700 OFFCURVE",
"327 698 CURVE",
"326 685 LINE",
"317 670 OFFCURVE",
"314 647 OFFCURVE",
"306 630 CURVE SMOOTH",
"280 572 OFFCURVE",
"259 513 OFFCURVE",
"239 453 CURVE SMOOTH",
"231 430 OFFCURVE",
"221 406 OFFCURVE",
"212 383 CURVE SMOOTH",
"201 354 OFFCURVE",
"180 332 OFFCURVE",
"167 304 CURVE SMOOTH",
"140 244 OFFCURVE",
"126 137 OFFCURVE",
"111 70 CURVE SMOOTH",
"103 34 OFFCURVE",
"87 -1 OFFCURVE",
"85 -38 CURVE",
"95 -56 OFFCURVE",
"123 -73 OFFCURVE",
"142 -80 CURVE",
"161 -65 OFFCURVE",
"168 -58 OFFCURVE",
"181 -36 CURVE",
"183 2 OFFCURVE",
"212 83 OFFCURVE",
"221 128 CURVE SMOOTH",
"225 150 OFFCURVE",
"229 173 OFFCURVE",
"236 194 CURVE SMOOTH",
"236 192 LINE",
"280 317 LINE SMOOTH",
"284 327 OFFCURVE",
"305 334 OFFCURVE",
"314 341 CURVE",
"327 345 OFFCURVE",
"338 356 OFFCURVE",
"351 359 CURVE SMOOTH",
"370 364 OFFCURVE",
"393 368 OFFCURVE",
"413 370 CURVE",
"404 346 OFFCURVE",
"401 320 OFFCURVE",
"394 296 CURVE SMOOTH",
"384 262 OFFCURVE",
"375 228 OFFCURVE",
"371 193 CURVE SMOOTH",
"369 180 OFFCURVE",
"370 167 OFFCURVE",
"368 154 CURVE SMOOTH",
"367 144 OFFCURVE",
"361 137 OFFCURVE",
"364 126 CURVE"
);
},
{
closed = 1;
nodes = (
"664 567 LINE",
"672 570 OFFCURVE",
"682 573 OFFCURVE",
"690 574 CURVE",
"726 542 OFFCURVE",
"717 503 OFFCURVE",
"721 460 CURVE",
"717 451 OFFCURVE",
"716 440 OFFCURVE",
"718 430 CURVE",
"709 401 OFFCURVE",
"709 371 OFFCURVE",
"701 342 CURVE SMOOTH",
"681 271 OFFCURVE",
"617 132 OFFCURVE",
"561 86 CURVE SMOOTH",
"553 80 OFFCURVE",
"545 74 OFFCURVE",
"538 67 CURVE SMOOTH",
"526 56 OFFCURVE",
"508 42 OFFCURVE",
"492 38 CURVE SMOOTH",
"456 29 OFFCURVE",
"472 151 OFFCURVE",
"477 179 CURVE SMOOTH",
"501 301 OFFCURVE",
"554 493 OFFCURVE",
"654 575 CURVE",
"664 567 LINE"
);
}
);
width = 829;
},
{
layerId = "BF4C3430-0F48-4C30-8275-6D85863A5F93";
paths = (
{
closed = 1;
nodes = (
"359 107 OFFCURVE",
"361 87 OFFCURVE",
"364 68 CURVE SMOOTH",
"368 41 LINE SMOOTH",
"377 -17 OFFCURVE",
"432 -44 OFFCURVE",
"484 -51 CURVE SMOOTH",
"499 -53 OFFCURVE",
"510 -59 OFFCURVE",
"525 -50 CURVE",
"684 -25 OFFCURVE",
"804 261 OFFCURVE",
"812 416 CURVE SMOOTH",
"813 434 OFFCURVE",
"819 447 OFFCURVE",
"819 471 CURVE SMOOTH",
"819 516 OFFCURVE",
"806 585 OFFCURVE",
"772 617 CURVE SMOOTH",
"766 622 OFFCURVE",
"763 630 OFFCURVE",
"759 637 CURVE",
"720 650 LINE",
"722 658 OFFCURVE",
"714 666 OFFCURVE",
"716 676 CURVE",
"692 689 OFFCURVE",
"668 704 OFFCURVE",
"641 690 CURVE SMOOTH",
"553 644 OFFCURVE",
"495 556 OFFCURVE",
"454 469 CURVE",
"414 465 OFFCURVE",
"375 455 OFFCURVE",
"337 441 CURVE",
"344 453 LINE",
"345 459 LINE",
"345 456 LINE",
"353 475 LINE",
"353 474 LINE",
"373 524 OFFCURVE",
"397 573 OFFCURVE",
"416 624 CURVE SMOOTH",
"427 654 OFFCURVE",
"413 678 OFFCURVE",
"391 698 CURVE",
"373 701 OFFCURVE",
"345 700 OFFCURVE",
"327 698 CURVE",
"326 685 LINE",
"317 670 OFFCURVE",
"314 647 OFFCURVE",
"306 630 CURVE SMOOTH",
"280 572 OFFCURVE",
"259 513 OFFCURVE",
"239 453 CURVE SMOOTH",
"231 430 OFFCURVE",
"221 406 OFFCURVE",
"212 383 CURVE SMOOTH",
"201 354 OFFCURVE",
"180 332 OFFCURVE",
"167 304 CURVE SMOOTH",
"140 244 OFFCURVE",
"126 137 OFFCURVE",
"111 70 CURVE SMOOTH",
"103 34 OFFCURVE",
"87 -1 OFFCURVE",
"85 -38 CURVE",
"95 -56 OFFCURVE",
"123 -73 OFFCURVE",
"142 -80 CURVE",
"161 -65 OFFCURVE",
"168 -58 OFFCURVE",
"181 -36 CURVE",
"183 2 OFFCURVE",
"212 83 OFFCURVE",
"221 128 CURVE SMOOTH",
"225 150 OFFCURVE",
"229 173 OFFCURVE",
"236 194 CURVE SMOOTH",
"236 192 LINE",
"280 317 LINE SMOOTH",
"284 327 OFFCURVE",
"305 334 OFFCURVE",
"314 341 CURVE",
"327 345 OFFCURVE",
"338 356 OFFCURVE",
"351 359 CURVE SMOOTH",
"370 364 OFFCURVE",
"393 368 OFFCURVE",
"413 370 CURVE",
"404 346 OFFCURVE",
"401 320 OFFCURVE",
"394 296 CURVE SMOOTH",
"384 262 OFFCURVE",
"375 228 OFFCURVE",
"371 193 CURVE SMOOTH",
"369 180 OFFCURVE",
"370 167 OFFCURVE",
"368 154 CURVE SMOOTH",
"367 144 OFFCURVE",
"361 137 OFFCURVE",
"364 126 CURVE"
);
},
{
closed = 1;
nodes = (
"664 567 LINE",
"672 570 OFFCURVE",
"682 573 OFFCURVE",
"690 574 CURVE",
"726 542 OFFCURVE",
"717 503 OFFCURVE",
"721 460 CURVE",
"717 451 OFFCURVE",
"716 440 OFFCURVE",
"718 430 CURVE",
"709 401 OFFCURVE",
"709 371 OFFCURVE",
"701 342 CURVE SMOOTH",
"681 271 OFFCURVE",
"617 132 OFFCURVE",
"561 86 CURVE SMOOTH",
"553 80 OFFCURVE",
"545 74 OFFCURVE",
"538 67 CURVE SMOOTH",
"526 56 OFFCURVE",
"508 42 OFFCURVE",
"492 38 CURVE SMOOTH",
"456 29 OFFCURVE",
"472 151 OFFCURVE",
"477 179 CURVE SMOOTH",
"501 301 OFFCURVE",
"554 493 OFFCURVE",
"654 575 CURVE",
"664 567 LINE"
);
}
);
width = 829;
}
);
},
{
color = 9;
glyphname = "Ia-cy.ss01";
lastChange = "2017-12-15 09:51:13 +0000";
layers = (
{
layerId = UUID0;
paths = (
{
closed = 1;
nodes = (
"223 -50 OFFCURVE",
"331 83 OFFCURVE",
"385 148 CURVE",
"385 147 LINE",
"408 174 OFFCURVE",
"432 200 OFFCURVE",
"450 230 CURVE",
"451 230 LINE",
"447 213 LINE",
"448 214 LINE SMOOTH",
"440 193 OFFCURVE",
"437 168 OFFCURVE",
"432 146 CURVE",
"433 147 LINE",
"428 128 OFFCURVE",
"424 109 OFFCURVE",
"423 89 CURVE",
"412 65 OFFCURVE",
"413 37 OFFCURVE",
"405 12 CURVE",
"418 -1 OFFCURVE",
"431 -15 OFFCURVE",
"448 -23 CURVE",
"447 -23 LINE",
"467 -34 OFFCURVE",
"504 -15 OFFCURVE",
"509 7 CURVE SMOOTH",
"519 48 OFFCURVE",
"518 95 OFFCURVE",
"532 134 CURVE",
"539 214 OFFCURVE",
"603 422 OFFCURVE",
"635 500 CURVE SMOOTH",
"650 536 OFFCURVE",
"661 574 OFFCURVE",
"674 611 CURVE SMOOTH",
"687 648 OFFCURVE",
"608 696 OFFCURVE",
"575 687 CURVE",
"566 689 OFFCURVE",
"556 688 OFFCURVE",
"547 685 CURVE SMOOTH",
"548 686 LINE",
"534 684 LINE",
"536 684 LINE SMOOTH",
"512 687 OFFCURVE",
"483 676 OFFCURVE",
"461 667 CURVE",
"462 667 LINE",
"389 642 OFFCURVE",
"305 598 OFFCURVE",
"278 520 CURVE SMOOTH",
"256 455 LINE",
"256 456 LINE",
"251 442 OFFCURVE",
"256 426 OFFCURVE",
"248 414 CURVE",
"248 403 OFFCURVE",
"249 392 OFFCURVE",
"252 381 CURVE SMOOTH",
"251 386 LINE",
"250 382 OFFCURVE",
"252 378 OFFCURVE",
"253 374 CURVE SMOOTH",
"267 310 OFFCURVE",
"294 281 OFFCURVE",
"351 250 CURVE",
"298 177 OFFCURVE",
"211 71 OFFCURVE",
"120 49 CURVE SMOOTH",
"57 34 OFFCURVE",
"99 -11 OFFCURVE",
"129 -36 CURVE"
);
},
{
closed = 1;
nodes = (
"460 330 OFFCURVE",
"448 337 OFFCURVE",
"436 344 CURVE",
"424 337 OFFCURVE",
"405 324 OFFCURVE",
"390 328 CURVE SMOOTH",
"364 334 OFFCURVE",
"337 372 OFFCURVE",
"348 398 CURVE SMOOTH",
"351 406 OFFCURVE",
"352 414 OFFCURVE",
"353 422 CURVE SMOOTH",
"363 517 OFFCURVE",
"464 578 OFFCURVE",
"552 588 CURVE",
"527 499 OFFCURVE",
"500 411 OFFCURVE",
"472 323 CURVE"
);
}
);
width = 686;
},
{
layerId = "BF4C3430-0F48-4C30-8275-6D85863A5F93";
paths = (
{
closed = 1;
nodes = (
"223 -50 OFFCURVE",
"331 83 OFFCURVE",
"385 148 CURVE",
"385 147 LINE",
"408 174 OFFCURVE",
"432 200 OFFCURVE",
"450 230 CURVE",
"451 230 LINE",
"447 213 LINE",
"448 214 LINE SMOOTH",
"440 193 OFFCURVE",
"437 168 OFFCURVE",
"432 146 CURVE",
"433 147 LINE",
"428 128 OFFCURVE",
"424 109 OFFCURVE",
"423 89 CURVE",
"412 65 OFFCURVE",
"413 37 OFFCURVE",
"405 12 CURVE",
"418 -1 OFFCURVE",
"431 -15 OFFCURVE",
"448 -23 CURVE",
"447 -23 LINE",
"467 -34 OFFCURVE",
"504 -15 OFFCURVE",
"509 7 CURVE SMOOTH",
"519 48 OFFCURVE",
"518 95 OFFCURVE",
"532 134 CURVE",
"539 214 OFFCURVE",
"603 422 OFFCURVE",
"635 500 CURVE SMOOTH",
"650 536 OFFCURVE",
"661 574 OFFCURVE",
"674 611 CURVE SMOOTH",
"687 648 OFFCURVE",
"608 696 OFFCURVE",
"575 687 CURVE",
"566 689 OFFCURVE",
"556 688 OFFCURVE",
"547 685 CURVE SMOOTH",
"548 686 LINE",
"534 684 LINE",
"536 684 LINE SMOOTH",
"512 687 OFFCURVE",
"483 676 OFFCURVE",
"461 667 CURVE",
"462 667 LINE",
"389 642 OFFCURVE",
"305 598 OFFCURVE",
"278 520 CURVE SMOOTH",
"256 455 LINE",
"256 456 LINE",
"251 442 OFFCURVE",
"256 426 OFFCURVE",
"248 414 CURVE",
"248 403 OFFCURVE",
"249 392 OFFCURVE",
"252 381 CURVE SMOOTH",
"251 386 LINE",
"250 382 OFFCURVE",
"252 378 OFFCURVE",
"253 374 CURVE SMOOTH",
"267 310 OFFCURVE",
"294 281 OFFCURVE",
"351 250 CURVE",
"298 177 OFFCURVE",
"211 71 OFFCURVE",
"120 49 CURVE SMOOTH",
"57 34 OFFCURVE",
"99 -11 OFFCURVE",
"129 -36 CURVE"
);
},
{
closed = 1;
nodes = (
"460 330 OFFCURVE",
"448 337 OFFCURVE",
"436 344 CURVE",
"424 337 OFFCURVE",
"405 324 OFFCURVE",
"390 328 CURVE SMOOTH",
"364 334 OFFCURVE",
"337 372 OFFCURVE",
"348 398 CURVE SMOOTH",
"351 406 OFFCURVE",
"352 414 OFFCURVE",
"353 422 CURVE SMOOTH",
"363 517 OFFCURVE",
"464 578 OFFCURVE",
"552 588 CURVE",
"527 499 OFFCURVE",
"500 411 OFFCURVE",
"472 323 CURVE"
);
}
);
width = 686;
}
);
},
{
color = 7;
glyphname = "Be-cy.ss02";
lastChange = "2017-12-15 09:51:13 +0000";
layers = (
{
layerId = UUID0;
paths = (
{
closed = 1;
nodes = (
"252 -31 LINE",
"285 -31 OFFCURVE",
"340 -27 OFFCURVE",
"369 -9 CURVE SMOOTH",
"368 -10 LINE SMOOTH",
"374 -7 OFFCURVE",
"380 -4 OFFCURVE",
"386 -3 CURVE SMOOTH",
"413 3 OFFCURVE",
"425 13 OFFCURVE",
"449 25 CURVE SMOOTH",
"448 24 LINE SMOOTH",
"472 37 OFFCURVE",
"489 54 OFFCURVE",
"510 71 CURVE SMOOTH",
"550 104 OFFCURVE",
"603 183 OFFCURVE",
"606 236 CURVE SMOOTH",
"613 346 OFFCURVE",
"523 412 OFFCURVE",
"424 428 CURVE",
"411 435 OFFCURVE",
"351 438 OFFCURVE",
"337 434 CURVE",
"347 465 OFFCURVE",
"386 566 OFFCURVE",
"405 588 CURVE",
"445 587 OFFCURVE",
"482 602 OFFCURVE",
"522 602 CURVE SMOOTH",
"558 602 OFFCURVE",
"595 596 OFFCURVE",
"631 596 CURVE SMOOTH",
"667 596 OFFCURVE",
"680 604 OFFCURVE",
"676 644 CURVE SMOOTH",
"673 675 OFFCURVE",
"601 703 OFFCURVE",
"574 691 CURVE",
"559 692 OFFCURVE",
"478 691 OFFCURVE",
"467 688 CURVE SMOOTH",
"457 685 OFFCURVE",
"447 685 OFFCURVE",
"436 685 CURVE SMOOTH",
"407 685 OFFCURVE",
"390 673 OFFCURVE",
"373 673 CURVE SMOOTH",
"354 673 OFFCURVE",
"339 664 OFFCURVE",
"334 645 CURVE",
"334 646 LINE",
"318 597 OFFCURVE",
"283 557 OFFCURVE",
"265 509 CURVE",
"265 510 LINE",
"247 466 OFFCURVE",
"224 425 OFFCURVE",
"206 382 CURVE SMOOTH",
"175 306 OFFCURVE",
"148 225 OFFCURVE",
"124 147 CURVE",
"124 148 LINE",
"113 118 OFFCURVE",
"113 83 OFFCURVE",
"97 55 CURVE",
"100 -34 OFFCURVE",
"180 -48 OFFCURVE",
"252 -32 CURVE",
"252 -31 LINE"
);
},
{
closed = 1;
nodes = (
"220 164 OFFCURVE",
"270 289 OFFCURVE",
"312 378 CURVE",
"315 358 OFFCURVE",
"348 341 OFFCURVE",
"366 338 CURVE SMOOTH",
"409 331 OFFCURVE",
"509 315 OFFCURVE",
"509 256 CURVE SMOOTH",
"509 183 OFFCURVE",
"457 145 OFFCURVE",
"400 112 CURVE SMOOTH",
"346 81 OFFCURVE",
"269 55 OFFCURVE",
"206 67 CURVE"
);
}
);
width = 686;
},
{
layerId = "BF4C3430-0F48-4C30-8275-6D85863A5F93";
paths = (
{
closed = 1;
nodes = (
"252 -31 LINE",
"285 -31 OFFCURVE",
"340 -27 OFFCURVE",
"369 -9 CURVE SMOOTH",
"368 -10 LINE SMOOTH",
"374 -7 OFFCURVE",
"380 -4 OFFCURVE",
"386 -3 CURVE SMOOTH",
"413 3 OFFCURVE",
"425 13 OFFCURVE",
"449 25 CURVE SMOOTH",
"448 24 LINE SMOOTH",
"472 37 OFFCURVE",
"489 54 OFFCURVE",
"510 71 CURVE SMOOTH",
"550 104 OFFCURVE",
"603 183 OFFCURVE",
"606 236 CURVE SMOOTH",
"613 346 OFFCURVE",
"523 412 OFFCURVE",
"424 428 CURVE",
"411 435 OFFCURVE",
"351 438 OFFCURVE",
"337 434 CURVE",
"347 465 OFFCURVE",
"386 566 OFFCURVE",
"405 588 CURVE",
"445 587 OFFCURVE",
"482 602 OFFCURVE",
"522 602 CURVE SMOOTH",
"558 602 OFFCURVE",
"595 596 OFFCURVE",
"631 596 CURVE SMOOTH",
"667 596 OFFCURVE",
"680 604 OFFCURVE",
"676 644 CURVE SMOOTH",
"673 675 OFFCURVE",
"601 703 OFFCURVE",
"574 691 CURVE",
"559 692 OFFCURVE",
"478 691 OFFCURVE",
"467 688 CURVE SMOOTH",
"457 685 OFFCURVE",
"447 685 OFFCURVE",
"436 685 CURVE SMOOTH",
"407 685 OFFCURVE",
"390 673 OFFCURVE",
"373 673 CURVE SMOOTH",
"354 673 OFFCURVE",
"339 664 OFFCURVE",
"334 645 CURVE",
"334 646 LINE",
"318 597 OFFCURVE",
"283 557 OFFCURVE",
"265 509 CURVE",
"265 510 LINE",
"247 466 OFFCURVE",
"224 425 OFFCURVE",
"206 382 CURVE SMOOTH",
"175 306 OFFCURVE",
"148 225 OFFCURVE",
"124 147 CURVE",
"124 148 LINE",
"113 118 OFFCURVE",
"113 83 OFFCURVE",
"97 55 CURVE",
"100 -34 OFFCURVE",
"180 -48 OFFCURVE",
"252 -32 CURVE",
"252 -31 LINE"
);
},
{
closed = 1;
nodes = (
"220 164 OFFCURVE",
"270 289 OFFCURVE",
"312 378 CURVE",
"315 358 OFFCURVE",
"348 341 OFFCURVE",
"366 338 CURVE SMOOTH",
"409 331 OFFCURVE",
"509 315 OFFCURVE",
"509 256 CURVE SMOOTH",
"509 183 OFFCURVE",
"457 145 OFFCURVE",
"400 112 CURVE SMOOTH",
"346 81 OFFCURVE",
"269 55 OFFCURVE",
"206 67 CURVE"
);
}
);
width = 686;
}
);
},
{
color = 7;
glyphname = "De-cy.ss02";
lastChange = "2017-12-15 09:51:13 +0000";
layers = (
{
layerId = UUID0;
paths = (
{
closed = 1;
nodes = (
"125 -188 OFFCURVE",
"123 -173 OFFCURVE",
"127 -154 CURVE SMOOTH",
"135 -115 OFFCURVE",
"145 -75 OFFCURVE",
"159 -37 CURVE",
"177 -34 OFFCURVE",
"196 -27 OFFCURVE",
"214 -23 CURVE",
"213 -24 LINE",
"232 -21 OFFCURVE",
"252 -20 OFFCURVE",
"271 -20 CURVE SMOOTH",
"291 -20 OFFCURVE",
"311 -19 OFFCURVE",
"330 -16 CURVE SMOOTH",
"339 -15 OFFCURVE",
"350 -10 OFFCURVE",
"359 -10 CURVE SMOOTH",
"400 -8 OFFCURVE",
"442 -5 OFFCURVE",
"484 -5 CURVE SMOOTH",
"623 -5 LINE SMOOTH",
"638 -5 OFFCURVE",
"656 -10 OFFCURVE",
"672 -10 CURVE SMOOTH",
"683 -10 LINE",
"665 -57 OFFCURVE",
"607 -122 OFFCURVE",
"626 -173 CURVE",
"659 -202 LINE",
"681 -210 OFFCURVE",
"700 -201 OFFCURVE",
"712 -181 CURVE SMOOTH",
"731 -148 OFFCURVE",
"803 -2 OFFCURVE",
"787 29 CURVE",
"786 29 LINE",
"763 78 OFFCURVE",
"722 78 OFFCURVE",
"675 83 CURVE",
"686 122 OFFCURVE",
"701 159 OFFCURVE",
"716 196 CURVE",
"716 195 LINE",
"725 218 OFFCURVE",
"731 239 OFFCURVE",
"736 263 CURVE SMOOTH",
"740 281 OFFCURVE",
"749 301 OFFCURVE",
"757 318 CURVE SMOOTH",
"776 360 OFFCURVE",
"848 573 OFFCURVE",
"848 608 CURVE SMOOTH",
"848 627 OFFCURVE",
"834 655 OFFCURVE",
"822 669 CURVE",
"771 692 OFFCURVE",
"712 727 OFFCURVE",
"654 727 CURVE",
"655 727 LINE",
"618 731 OFFCURVE",
"573 741 OFFCURVE",
"536 730 CURVE SMOOTH",
"520 725 OFFCURVE",
"504 723 OFFCURVE",
"488 721 CURVE SMOOTH",
"465 718 OFFCURVE",
"443 711 OFFCURVE",
"421 705 CURVE",
"422 705 LINE",
"400 701 OFFCURVE",
"382 689 OFFCURVE",
"361 684 CURVE",
"404 686 OFFCURVE",
"464 628 OFFCURVE",
"417 600 CURVE",
"452 614 OFFCURVE",
"488 629 OFFCURVE",
"525 638 CURVE",
"514 611 OFFCURVE",
"512 585 OFFCURVE",
"497 559 CURVE SMOOTH",
"473 517 OFFCURVE",
"462 467 OFFCURVE",
"440 424 CURVE SMOOTH",
"404 354 OFFCURVE",
"309 188 OFFCURVE",
"259 136 CURVE SMOOTH",
"194 68 LINE",
"167 65 OFFCURVE",
"141 63 OFFCURVE",
"114 63 CURVE SMOOTH",
"85 63 OFFCURVE",
"79 58 OFFCURVE",
"72 30 CURVE SMOOTH",
"57 -27 OFFCURVE",
"37 -92 OFFCURVE",
"33 -151 CURVE SMOOTH",
"31 -176 OFFCURVE",
"40 -187 OFFCURVE",
"56 -204 CURVE SMOOTH",
"81 -231 OFFCURVE",
"88 -224 OFFCURVE",
"118 -207 CURVE"
);
},
{
closed = 1;
nodes = (
"431 216 LINE",
"506 331 OFFCURVE",
"587 495 OFFCURVE",
"627 624 CURVE",
"627 623 LINE",
"629 630 OFFCURVE",
"632 638 OFFCURVE",
"632 646 CURVE",
"634 650 LINE",
"633 644 OFFCURVE",
"653 644 OFFCURVE",
"656 644 CURVE SMOOTH",
"686 644 OFFCURVE",
"716 631 OFFCURVE",
"743 617 CURVE",
"749 598 OFFCURVE",
"719 504 OFFCURVE",
"714 487 CURVE SMOOTH",
"708 468 OFFCURVE",
"698 450 OFFCURVE",
"693 431 CURVE",
"693 432 LINE",
"683 390 OFFCURVE",
"668 349 OFFCURVE",
"651 309 CURVE SMOOTH",
"634 269 OFFCURVE",
"621 228 OFFCURVE",
"607 187 CURVE SMOOTH",
"599 164 OFFCURVE",
"589 141 OFFCURVE",
"583 118 CURVE",
"584 119 LINE",
"574 90 LINE",
"493 90 OFFCURVE",
"413 79 OFFCURVE",
"332 81 CURVE",
"352 104 OFFCURVE",
"423 199 OFFCURVE",
"432 223 CURVE"
);
},
{
closed = 1;
nodes = (
"417 600 LINE",
"413 597 OFFCURVE",
"407 595 OFFCURVE",
"402 593 CURVE"
);
},
{
closed = 1;
nodes = (
"358 684 LINE",
"361 684 LINE",
"358 684 LINE"
);
}
);
width = 859;
},
{
layerId = "BF4C3430-0F48-4C30-8275-6D85863A5F93";
paths = (
{
closed = 1;
nodes = (
"125 -188 OFFCURVE",
"123 -173 OFFCURVE",
"127 -154 CURVE SMOOTH",
"135 -115 OFFCURVE",
"145 -75 OFFCURVE",
"159 -37 CURVE",
"177 -34 OFFCURVE",
"196 -27 OFFCURVE",
"214 -23 CURVE",
"213 -24 LINE",
"232 -21 OFFCURVE",
"252 -20 OFFCURVE",
"271 -20 CURVE SMOOTH",
"291 -20 OFFCURVE",
"311 -19 OFFCURVE",
"330 -16 CURVE SMOOTH",
"339 -15 OFFCURVE",
"350 -10 OFFCURVE",
"359 -10 CURVE SMOOTH",
"400 -8 OFFCURVE",
"442 -5 OFFCURVE",
"484 -5 CURVE SMOOTH",
"623 -5 LINE SMOOTH",
"638 -5 OFFCURVE",
"656 -10 OFFCURVE",
"672 -10 CURVE SMOOTH",
"683 -10 LINE",
"665 -57 OFFCURVE",
"607 -122 OFFCURVE",
"626 -173 CURVE",
"659 -202 LINE",
"681 -210 OFFCURVE",
"700 -201 OFFCURVE",
"712 -181 CURVE SMOOTH",
"731 -148 OFFCURVE",
"803 -2 OFFCURVE",
"787 29 CURVE",
"786 29 LINE",
"763 78 OFFCURVE",
"722 78 OFFCURVE",
"675 83 CURVE",
"686 122 OFFCURVE",
"701 159 OFFCURVE",
"716 196 CURVE",
"716 195 LINE",
"725 218 OFFCURVE",
"731 239 OFFCURVE",
"736 263 CURVE SMOOTH",
"740 281 OFFCURVE",
"749 301 OFFCURVE",
"757 318 CURVE SMOOTH",
"776 360 OFFCURVE",
"848 573 OFFCURVE",
"848 608 CURVE SMOOTH",
"848 627 OFFCURVE",
"834 655 OFFCURVE",
"822 669 CURVE",
"771 692 OFFCURVE",
"712 727 OFFCURVE",
"654 727 CURVE",
"655 727 LINE",
"618 731 OFFCURVE",
"573 741 OFFCURVE",
"536 730 CURVE SMOOTH",
"520 725 OFFCURVE",
"504 723 OFFCURVE",
"488 721 CURVE SMOOTH",
"465 718 OFFCURVE",
"443 711 OFFCURVE",
"421 705 CURVE",
"422 705 LINE",
"400 701 OFFCURVE",
"382 689 OFFCURVE",
"361 684 CURVE",
"404 686 OFFCURVE",
"464 628 OFFCURVE",
"417 600 CURVE",
"452 614 OFFCURVE",
"488 629 OFFCURVE",
"525 638 CURVE",
"514 611 OFFCURVE",
"512 585 OFFCURVE",
"497 559 CURVE SMOOTH",
"473 517 OFFCURVE",
"462 467 OFFCURVE",
"440 424 CURVE SMOOTH",
"404 354 OFFCURVE",
"309 188 OFFCURVE",
"259 136 CURVE SMOOTH",
"194 68 LINE",
"167 65 OFFCURVE",
"141 63 OFFCURVE",
"114 63 CURVE SMOOTH",
"85 63 OFFCURVE",
"79 58 OFFCURVE",
"72 30 CURVE SMOOTH",
"57 -27 OFFCURVE",
"37 -92 OFFCURVE",
"33 -151 CURVE SMOOTH",
"31 -176 OFFCURVE",
"40 -187 OFFCURVE",
"56 -204 CURVE SMOOTH",
"81 -231 OFFCURVE",
"88 -224 OFFCURVE",
"118 -207 CURVE"
);
},
{
closed = 1;
nodes = (
"431 216 LINE",
"506 331 OFFCURVE",
"587 495 OFFCURVE",
"627 624 CURVE",
"627 623 LINE",
"629 630 OFFCURVE",
"632 638 OFFCURVE",
"632 646 CURVE",
"634 650 LINE",
"633 644 OFFCURVE",
"653 644 OFFCURVE",
"656 644 CURVE SMOOTH",
"686 644 OFFCURVE",
"716 631 OFFCURVE",
"743 617 CURVE",
"749 598 OFFCURVE",
"719 504 OFFCURVE",
"714 487 CURVE SMOOTH",
"708 468 OFFCURVE",
"698 450 OFFCURVE",
"693 431 CURVE",
"693 432 LINE",
"683 390 OFFCURVE",
"668 349 OFFCURVE",
"651 309 CURVE SMOOTH",
"634 269 OFFCURVE",
"621 228 OFFCURVE",
"607 187 CURVE SMOOTH",
"599 164 OFFCURVE",
"589 141 OFFCURVE",
"583 118 CURVE",
"584 119 LINE",
"574 90 LINE",
"493 90 OFFCURVE",
"413 79 OFFCURVE",
"332 81 CURVE",
"352 104 OFFCURVE",
"423 199 OFFCURVE",
"432 223 CURVE"
);
},
{
closed = 1;
nodes = (
"417 600 LINE",
"413 597 OFFCURVE",
"407 595 OFFCURVE",
"402 593 CURVE"
);
},
{
closed = 1;
nodes = (
"358 684 LINE",
"361 684 LINE",
"358 684 LINE"
);
}
);
width = 859;
}
);
},
{
color = 7;
glyphname = "Zhe-cy.ss02";
lastChange = "2017-12-15 09:51:13 +0000";
layers = (
{
layerId = UUID0;
paths = (
{
closed = 1;
nodes = (
"283 668 LINE",
"295 640 OFFCURVE",
"309 633 OFFCURVE",
"328 612 CURVE",
"328 613 LINE",
"374 557 OFFCURVE",
"421 474 OFFCURVE",
"451 408 CURVE",
"437 404 OFFCURVE",
"429 391 OFFCURVE",
"426 377 CURVE",
"427 378 LINE",
"409 317 OFFCURVE",
"118 75 OFFCURVE",
"62 54 CURVE SMOOTH",
"31 42 OFFCURVE",
"31 26 OFFCURVE",
"31 -5 CURVE",
"59 -23 OFFCURVE",
"54 -43 OFFCURVE",
"93 -51 CURVE",
"119 -25 OFFCURVE",
"154 -8 OFFCURVE",
"181 17 CURVE SMOOTH",
"204 38 OFFCURVE",
"231 54 OFFCURVE",
"253 76 CURVE SMOOTH",
"276 99 OFFCURVE",
"302 115 OFFCURVE",
"326 137 CURVE SMOOTH",
"380 186 OFFCURVE",
"456 258 OFFCURVE",
"497 316 CURVE",
"507 300 OFFCURVE",
"508 283 OFFCURVE",
"522 270 CURVE",
"524 274 LINE",
"494 174 OFFCURVE",
"454 78 OFFCURVE",
"443 -27 CURVE",
"468 -44 OFFCURVE",
"477 -64 OFFCURVE",
"511 -59 CURVE",
"521 -50 OFFCURVE",
"531 -41 OFFCURVE",
"540 -31 CURVE",
"544 -11 OFFCURVE",
"539 1 OFFCURVE",
"549 20 CURVE",
"546 47 OFFCURVE",
"608 255 OFFCURVE",
"624 286 CURVE",
"624 285 LINE",
"629 294 OFFCURVE",
"630 305 OFFCURVE",
"626 315 CURVE",
"628 318 LINE",
"635 300 LINE SMOOTH",
"701 125 OFFCURVE",
"742 42 OFFCURVE",
"901 -68 CURVE",
"916 -68 OFFCURVE",
"932 -67 OFFCURVE",
"947 -67 CURVE",
"967 -54 OFFCURVE",
"981 -38 OFFCURVE",
"985 -14 CURVE",
"974 12 OFFCURVE",
"953 25 OFFCURVE",
"930 38 CURVE",
"931 38 LINE",
"848 88 OFFCURVE",
"758 218 OFFCURVE",
"738 313 CURVE",
"874 396 OFFCURVE",
"947 466 OFFCURVE",
"1042 590 CURVE",
"1041 590 LINE",
"1068 626 OFFCURVE",
"1089 653 OFFCURVE",
"1068 700 CURVE",
"1053 705 OFFCURVE",
"1043 701 OFFCURVE",
"1033 713 CURVE",
"998 702 LINE",
"909 563 OFFCURVE",
"856 494 OFFCURVE",
"718 401 CURVE",
"709 417 OFFCURVE",
"694 429 OFFCURVE",
"676 433 CURVE",
"688 451 OFFCURVE",
"689 471 OFFCURVE",
"701 489 CURVE",
"696 498 OFFCURVE",
"709 511 OFFCURVE",
"715 517 CURVE",
"715 525 LINE",
"720 533 OFFCURVE",
"717 545 OFFCURVE",
"719 554 CURVE",
"719 553 LINE",
"733 573 OFFCURVE",
"758 633 OFFCURVE",
"744 656 CURVE SMOOTH",
"730 679 OFFCURVE",
"691 679 OFFCURVE",
"668 675 CURVE",
"649 654 OFFCURVE",
"581 448 OFFCURVE",
"569 411 CURVE",
"563 436 OFFCURVE",
"512 510 OFFCURVE",
"498 534 CURVE",
"496 546 OFFCURVE",
"480 553 OFFCURVE",
"479 566 CURVE",
"478 567 LINE SMOOTH",
"470 592 OFFCURVE",
"404 681 OFFCURVE",
"383 702 CURVE SMOOTH",
"358 727 OFFCURVE",
"339 718 OFFCURVE",
"308 716 CURVE",
"300 705 OFFCURVE",
"291 695 OFFCURVE",
"284 684 CURVE",
"283 668 LINE"
);
}
);
width = 1087;
},
{
layerId = "BF4C3430-0F48-4C30-8275-6D85863A5F93";
paths = (
{
closed = 1;
nodes = (
"283 668 LINE",
"295 640 OFFCURVE",
"309 633 OFFCURVE",
"328 612 CURVE",
"328 613 LINE",
"374 557 OFFCURVE",
"421 474 OFFCURVE",
"451 408 CURVE",
"437 404 OFFCURVE",
"429 391 OFFCURVE",
"426 377 CURVE",
"427 378 LINE",
"409 317 OFFCURVE",
"118 75 OFFCURVE",
"62 54 CURVE SMOOTH",
"31 42 OFFCURVE",
"31 26 OFFCURVE",
"31 -5 CURVE",
"59 -23 OFFCURVE",
"54 -43 OFFCURVE",
"93 -51 CURVE",
"119 -25 OFFCURVE",
"154 -8 OFFCURVE",
"181 17 CURVE SMOOTH",
"204 38 OFFCURVE",
"231 54 OFFCURVE",
"253 76 CURVE SMOOTH",
"276 99 OFFCURVE",
"302 115 OFFCURVE",
"326 137 CURVE SMOOTH",
"380 186 OFFCURVE",
"456 258 OFFCURVE",
"497 316 CURVE",
"507 300 OFFCURVE",
"508 283 OFFCURVE",
"522 270 CURVE",
"524 274 LINE",
"494 174 OFFCURVE",
"454 78 OFFCURVE",
"443 -27 CURVE",
"468 -44 OFFCURVE",
"477 -64 OFFCURVE",
"511 -59 CURVE",
"521 -50 OFFCURVE",
"531 -41 OFFCURVE",
"540 -31 CURVE",
"544 -11 OFFCURVE",
"539 1 OFFCURVE",
"549 20 CURVE",
"546 47 OFFCURVE",
"608 255 OFFCURVE",
"624 286 CURVE",
"624 285 LINE",
"629 294 OFFCURVE",
"630 305 OFFCURVE",
"626 315 CURVE",
"628 318 LINE",
"635 300 LINE SMOOTH",
"701 125 OFFCURVE",
"742 42 OFFCURVE",
"901 -68 CURVE",
"916 -68 OFFCURVE",
"932 -67 OFFCURVE",
"947 -67 CURVE",
"967 -54 OFFCURVE",
"981 -38 OFFCURVE",
"985 -14 CURVE",
"974 12 OFFCURVE",
"953 25 OFFCURVE",
"930 38 CURVE",
"931 38 LINE",
"848 88 OFFCURVE",
"758 218 OFFCURVE",
"738 313 CURVE",
"874 396 OFFCURVE",
"947 466 OFFCURVE",
"1042 590 CURVE",
"1041 590 LINE",
"1068 626 OFFCURVE",
"1089 653 OFFCURVE",
"1068 700 CURVE",
"1053 705 OFFCURVE",
"1043 701 OFFCURVE",
"1033 713 CURVE",
"998 702 LINE",
"909 563 OFFCURVE",
"856 494 OFFCURVE",
"718 401 CURVE",
"709 417 OFFCURVE",
"694 429 OFFCURVE",
"676 433 CURVE",
"688 451 OFFCURVE",
"689 471 OFFCURVE",
"701 489 CURVE",
"696 498 OFFCURVE",
"709 511 OFFCURVE",
"715 517 CURVE",
"715 525 LINE",
"720 533 OFFCURVE",
"717 545 OFFCURVE",
"719 554 CURVE",
"719 553 LINE",
"733 573 OFFCURVE",
"758 633 OFFCURVE",
"744 656 CURVE SMOOTH",
"730 679 OFFCURVE",
"691 679 OFFCURVE",
"668 675 CURVE",
"649 654 OFFCURVE",
"581 448 OFFCURVE",
"569 411 CURVE",
"563 436 OFFCURVE",
"512 510 OFFCURVE",
"498 534 CURVE",
"496 546 OFFCURVE",
"480 553 OFFCURVE",
"479 566 CURVE",
"478 567 LINE SMOOTH",
"470 592 OFFCURVE",
"404 681 OFFCURVE",
"383 702 CURVE SMOOTH",
"358 727 OFFCURVE",
"339 718 OFFCURVE",
"308 716 CURVE",
"300 705 OFFCURVE",
"291 695 OFFCURVE",
"284 684 CURVE",
"283 668 LINE"
);
}
);
width = 1087;
}
);
},
{
color = 7;
glyphname = "Ze-cy.ss02";
lastChange = "2017-12-15 09:51:13 +0000";
layers = (
{
layerId = UUID0;
paths = (
{
closed = 1;
nodes = (
"357 276 LINE",
"384 281 OFFCURVE",
"406 268 OFFCURVE",
"431 266 CURVE",
"473 249 OFFCURVE",
"488 182 OFFCURVE",
"482 141 CURVE",
"482 142 LINE",
"481 140 OFFCURVE",
"479 137 OFFCURVE",
"478 134 CURVE SMOOTH",
"473 120 OFFCURVE",
"473 106 OFFCURVE",
"466 91 CURVE SMOOTH",
"442 37 OFFCURVE",
"387 6 OFFCURVE",
"329 6 CURVE SMOOTH",
"259 6 OFFCURVE",
"199 46 OFFCURVE",
"179 115 CURVE",
"180 114 LINE",
"184 132 OFFCURVE",
"184 137 OFFCURVE",
"175 155 CURVE",
"142 165 OFFCURVE",
"98 146 OFFCURVE",
"92 109 CURVE SMOOTH",
"91 102 OFFCURVE",
"95 80 OFFCURVE",
"97 73 CURVE SMOOTH",
"115 5 OFFCURVE",
"189 -70 OFFCURVE",
"260 -83 CURVE",
"254 -79 LINE",
"266 -83 OFFCURVE",
"282 -83 OFFCURVE",
"295 -83 CURVE",
"304 -89 OFFCURVE",
"316 -89 OFFCURVE",
"326 -84 CURVE",
"381 -85 OFFCURVE",
"416 -71 OFFCURVE",
"464 -49 CURVE SMOOTH",
"467 -48 LINE",
"470 -45 OFFCURVE",
"474 -42 OFFCURVE",
"477 -40 CURVE SMOOTH",
"487 -33 OFFCURVE",
"497 -29 OFFCURVE",
"506 -21 CURVE SMOOTH",
"550 19 OFFCURVE",
"590 103 OFFCURVE",
"590 163 CURVE SMOOTH",
"590 235 OFFCURVE",
"557 306 OFFCURVE",
"493 342 CURVE",
"545 377 OFFCURVE",
"594 441 OFFCURVE",
"606 503 CURVE SMOOTH",
"648 718 OFFCURVE",
"347 765 OFFCURVE",
"242 631 CURVE",
"236 591 OFFCURVE",
"278 551 OFFCURVE",
"316 548 CURVE",
"355 594 OFFCURVE",
"465 634 OFFCURVE",
"511 592 CURVE",
"524 487 OFFCURVE",
"458 386 OFFCURVE",
"346 386 CURVE SMOOTH",
"334 386 OFFCURVE",
"323 380 OFFCURVE",
"310 380 CURVE",
"293 338 OFFCURVE",
"313 311 OFFCURVE",
"341 282 CURVE",
"357 276 LINE"
);
}
);
width = 620;
},
{
layerId = "BF4C3430-0F48-4C30-8275-6D85863A5F93";
paths = (
{
closed = 1;
nodes = (
"357 276 LINE",
"384 281 OFFCURVE",
"406 268 OFFCURVE",
"431 266 CURVE",
"473 249 OFFCURVE",
"488 182 OFFCURVE",
"482 141 CURVE",
"482 142 LINE",
"481 140 OFFCURVE",
"479 137 OFFCURVE",
"478 134 CURVE SMOOTH",
"473 120 OFFCURVE",
"473 106 OFFCURVE",
"466 91 CURVE SMOOTH",
"442 37 OFFCURVE",
"387 6 OFFCURVE",
"329 6 CURVE SMOOTH",
"259 6 OFFCURVE",
"199 46 OFFCURVE",
"179 115 CURVE",
"180 114 LINE",
"184 132 OFFCURVE",
"184 137 OFFCURVE",
"175 155 CURVE",
"142 165 OFFCURVE",
"98 146 OFFCURVE",
"92 109 CURVE SMOOTH",
"91 102 OFFCURVE",
"95 80 OFFCURVE",
"97 73 CURVE SMOOTH",
"115 5 OFFCURVE",
"189 -70 OFFCURVE",
"260 -83 CURVE",
"254 -79 LINE",
"266 -83 OFFCURVE",
"282 -83 OFFCURVE",
"295 -83 CURVE",
"304 -89 OFFCURVE",
"316 -89 OFFCURVE",
"326 -84 CURVE",
"381 -85 OFFCURVE",
"416 -71 OFFCURVE",
"464 -49 CURVE SMOOTH",
"467 -48 LINE",
"470 -45 OFFCURVE",
"474 -42 OFFCURVE",
"477 -40 CURVE SMOOTH",
"487 -33 OFFCURVE",
"497 -29 OFFCURVE",
"506 -21 CURVE SMOOTH",
"550 19 OFFCURVE",
"590 103 OFFCURVE",
"590 163 CURVE SMOOTH",
"590 235 OFFCURVE",
"557 306 OFFCURVE",
"493 342 CURVE",
"545 377 OFFCURVE",
"594 441 OFFCURVE",
"606 503 CURVE SMOOTH",
"648 718 OFFCURVE",
"347 765 OFFCURVE",
"242 631 CURVE",
"236 591 OFFCURVE",
"278 551 OFFCURVE",
"316 548 CURVE",
"355 594 OFFCURVE",
"465 634 OFFCURVE",
"511 592 CURVE",
"524 487 OFFCURVE",
"458 386 OFFCURVE",
"346 386 CURVE SMOOTH",
"334 386 OFFCURVE",
"323 380 OFFCURVE",
"310 380 CURVE",
"293 338 OFFCURVE",
"313 311 OFFCURVE",
"341 282 CURVE",
"357 276 LINE"
);
}
);
width = 620;
}
);
},
{
color = 7;
glyphname = "Ii-cy.ss02";
lastChange = "2017-12-15 09:51:13 +0000";
layers = (
{
layerId = UUID0;
paths = (
{
closed = 1;
nodes = (
"282 654 LINE",
"269 566 OFFCURVE",
"249 514 OFFCURVE",
"223 428 CURVE SMOOTH",
"97 17 LINE SMOOTH",
"78 -45 OFFCURVE",
"159 -81 OFFCURVE",
"187 -54 CURVE SMOOTH",
"193 -48 OFFCURVE",
"199 -41 OFFCURVE",
"205 -35 CURVE SMOOTH",
"204 -37 LINE",
"215 -27 OFFCURVE",
"222 -17 OFFCURVE",
"227 -3 CURVE SMOOTH",
"239 32 OFFCURVE",
"255 60 OFFCURVE",
"278 89 CURVE SMOOTH",
"300 117 OFFCURVE",
"322 144 OFFCURVE",
"345 171 CURVE",
"345 170 LINE",
"383 215 OFFCURVE",
"418 263 OFFCURVE",
"458 306 CURVE SMOOTH",
"475 324 OFFCURVE",
"489 345 OFFCURVE",
"506 362 CURVE SMOOTH",
"511 368 OFFCURVE",
"519 372 OFFCURVE",
"525 378 CURVE SMOOTH",
"541 392 OFFCURVE",
"555 408 OFFCURVE",
"570 424 CURVE SMOOTH",
"589 444 OFFCURVE",
"608 463 OFFCURVE",
"628 482 CURVE",
"620 450 OFFCURVE",
"611 420 OFFCURVE",
"596 390 CURVE SMOOTH",
"589 376 OFFCURVE",
"585 361 OFFCURVE",
"581 346 CURVE SMOOTH",
"577 332 OFFCURVE",
"573 319 OFFCURVE",
"567 306 CURVE SMOOTH",
"547 258 OFFCURVE",
"535 207 OFFCURVE",
"522 157 CURVE",
"523 158 LINE",
"509 108 OFFCURVE",
"496 57 OFFCURVE",
"486 6 CURVE SMOOTH",
"486 9 LINE SMOOTH",
"484 -1 OFFCURVE",
"485 -10 OFFCURVE",
"490 -19 CURVE SMOOTH",
"505 -45 OFFCURVE",
"566 -78 OFFCURVE",
"579 -34 CURVE SMOOTH",
"593 12 OFFCURVE",
"599 61 OFFCURVE",
"607 108 CURVE SMOOTH",
"615 160 OFFCURVE",
"637 211 OFFCURVE",
"654 261 CURVE SMOOTH",
"682 345 OFFCURVE",
"710 429 OFFCURVE",
"740 512 CURVE SMOOTH",
"751 542 OFFCURVE",
"762 572 OFFCURVE",
"773 602 CURVE SMOOTH",
"784 634 OFFCURVE",
"745 681 OFFCURVE",
"713 682 CURVE SMOOTH",
"690 683 OFFCURVE",
"681 667 OFFCURVE",
"668 651 CURVE SMOOTH",
"655 635 OFFCURVE",
"590 576 OFFCURVE",
"571 559 CURVE SMOOTH",
"486 484 OFFCURVE",
"408 401 OFFCURVE",
"339 312 CURVE SMOOTH",
"310 275 OFFCURVE",
"281 237 OFFCURVE",
"251 201 CURVE",
"273 284 OFFCURVE",
"301 367 OFFCURVE",
"329 448 CURVE SMOOTH",
"345 495 OFFCURVE",
"364 543 OFFCURVE",
"375 592 CURVE SMOOTH",
"385 634 OFFCURVE",
"336 679 OFFCURVE",
"295 668 CURVE",
"282 654 LINE"
);
}
);
width = 785;
},
{
layerId = "BF4C3430-0F48-4C30-8275-6D85863A5F93";
paths = (
{
closed = 1;
nodes = (
"282 654 LINE",
"269 566 OFFCURVE",
"249 514 OFFCURVE",
"223 428 CURVE SMOOTH",
"97 17 LINE SMOOTH",
"78 -45 OFFCURVE",
"159 -81 OFFCURVE",
"187 -54 CURVE SMOOTH",
"193 -48 OFFCURVE",
"199 -41 OFFCURVE",
"205 -35 CURVE SMOOTH",
"204 -37 LINE",
"215 -27 OFFCURVE",
"222 -17 OFFCURVE",
"227 -3 CURVE SMOOTH",
"239 32 OFFCURVE",
"255 60 OFFCURVE",
"278 89 CURVE SMOOTH",
"300 117 OFFCURVE",
"322 144 OFFCURVE",
"345 171 CURVE",
"345 170 LINE",
"383 215 OFFCURVE",
"418 263 OFFCURVE",
"458 306 CURVE SMOOTH",
"475 324 OFFCURVE",
"489 345 OFFCURVE",
"506 362 CURVE SMOOTH",
"511 368 OFFCURVE",
"519 372 OFFCURVE",
"525 378 CURVE SMOOTH",
"541 392 OFFCURVE",
"555 408 OFFCURVE",
"570 424 CURVE SMOOTH",
"589 444 OFFCURVE",
"608 463 OFFCURVE",
"628 482 CURVE",
"620 450 OFFCURVE",
"611 420 OFFCURVE",
"596 390 CURVE SMOOTH",
"589 376 OFFCURVE",
"585 361 OFFCURVE",
"581 346 CURVE SMOOTH",
"577 332 OFFCURVE",
"573 319 OFFCURVE",
"567 306 CURVE SMOOTH",
"547 258 OFFCURVE",
"535 207 OFFCURVE",
"522 157 CURVE",
"523 158 LINE",
"509 108 OFFCURVE",
"496 57 OFFCURVE",
"486 6 CURVE SMOOTH",
"486 9 LINE SMOOTH",
"484 -1 OFFCURVE",
"485 -10 OFFCURVE",
"490 -19 CURVE SMOOTH",
"505 -45 OFFCURVE",
"566 -78 OFFCURVE",
"579 -34 CURVE SMOOTH",
"593 12 OFFCURVE",
"599 61 OFFCURVE",
"607 108 CURVE SMOOTH",
"615 160 OFFCURVE",
"637 211 OFFCURVE",
"654 261 CURVE SMOOTH",
"682 345 OFFCURVE",
"710 429 OFFCURVE",
"740 512 CURVE SMOOTH",
"751 542 OFFCURVE",
"762 572 OFFCURVE",
"773 602 CURVE SMOOTH",
"784 634 OFFCURVE",
"745 681 OFFCURVE",
"713 682 CURVE SMOOTH",
"690 683 OFFCURVE",
"681 667 OFFCURVE",
"668 651 CURVE SMOOTH",
"655 635 OFFCURVE",
"590 576 OFFCURVE",
"571 559 CURVE SMOOTH",
"486 484 OFFCURVE",
"408 401 OFFCURVE",
"339 312 CURVE SMOOTH",
"310 275 OFFCURVE",
"281 237 OFFCURVE",
"251 201 CURVE",
"273 284 OFFCURVE",
"301 367 OFFCURVE",
"329 448 CURVE SMOOTH",
"345 495 OFFCURVE",
"364 543 OFFCURVE",
"375 592 CURVE SMOOTH",
"385 634 OFFCURVE",
"336 679 OFFCURVE",
"295 668 CURVE",
"282 654 LINE"
);
}
);
width = 785;
}
);
},
{
color = 7;
glyphname = "El-cy.ss02";
lastChange = "2017-12-15 09:51:13 +0000";
layers = (
{
layerId = UUID0;
paths = (
{
closed = 1;
nodes = (
"535 280 LINE",
"519 244 OFFCURVE",
"516 206 OFFCURVE",
"504 169 CURVE SMOOTH",
"487 116 OFFCURVE",
"467 61 OFFCURVE",
"442 11 CURVE",
"454 -32 OFFCURVE",
"497 -59 OFFCURVE",
"533 -22 CURVE SMOOTH",
"544 -10 OFFCURVE",
"545 6 OFFCURVE",
"555 18 CURVE",
"564 54 OFFCURVE",
"577 88 OFFCURVE",
"589 123 CURVE SMOOTH",
"608 176 OFFCURVE",
"626 228 OFFCURVE",
"637 284 CURVE SMOOTH",
"639 296 OFFCURVE",
"643 307 OFFCURVE",
"647 318 CURVE",
"647 317 LINE",
"661 355 OFFCURVE",
"663 394 OFFCURVE",
"674 433 CURVE",
"672 430 LINE SMOOTH",
"682 453 OFFCURVE",
"709 566 OFFCURVE",
"706 588 CURVE SMOOTH",
"704 604 OFFCURVE",
"699 620 OFFCURVE",
"695 636 CURVE",
"674 652 LINE",
"670 659 OFFCURVE",
"663 663 OFFCURVE",
"658 669 CURVE",
"658 668 LINE",
"646 689 OFFCURVE",
"596 696 OFFCURVE",
"574 696 CURVE",
"562 690 OFFCURVE",
"501 684 OFFCURVE",
"486 684 CURVE",
"443 666 OFFCURVE",
"397 658 OFFCURVE",
"354 641 CURVE",
"356 641 LINE SMOOTH",
"290 619 OFFCURVE",
"215 609 OFFCURVE",
"257 518 CURVE",
"320 500 OFFCURVE",
"350 535 OFFCURVE",
"402 557 CURVE",
"384 521 OFFCURVE",
"370 488 OFFCURVE",
"360 449 CURVE SMOOTH",
"359 447 LINE",
"358 448 LINE",
"360 450 LINE SMOOTH",
"346 440 OFFCURVE",
"308 347 OFFCURVE",
"294 321 CURVE",
"295 319 LINE",
"287 311 OFFCURVE",
"284 300 OFFCURVE",
"282 289 CURVE",
"253 260 OFFCURVE",
"237 217 OFFCURVE",
"214 183 CURVE SMOOTH",
"200 162 OFFCURVE",
"101 35 OFFCURVE",
"85 35 CURVE SMOOTH",
"64 35 OFFCURVE",
"49 20 OFFCURVE",
"43 1 CURVE",
"46 -33 OFFCURVE",
"90 -67 OFFCURVE",
"124 -54 CURVE SMOOTH",
"149 -45 OFFCURVE",
"189 -2 OFFCURVE",
"206 19 CURVE",
"205 19 LINE",
"287 118 OFFCURVE",
"356 227 OFFCURVE",
"406 346 CURVE SMOOTH",
"419 378 OFFCURVE",
"434 408 OFFCURVE",
"449 439 CURVE SMOOTH",
"472 485 OFFCURVE",
"493 533 OFFCURVE",
"510 581 CURVE",
"518 587 LINE",
"517 586 LINE",
"545 592 OFFCURVE",
"574 596 OFFCURVE",
"603 597 CURVE",
"594 512 OFFCURVE",
"569 434 OFFCURVE",
"550 351 CURVE SMOOTH",
"545 328 OFFCURVE",
"542 302 OFFCURVE",
"535 279 CURVE"
);
}
);
width = 717;
},
{
layerId = "BF4C3430-0F48-4C30-8275-6D85863A5F93";
paths = (
{
closed = 1;
nodes = (
"535 280 LINE",
"519 244 OFFCURVE",
"516 206 OFFCURVE",
"504 169 CURVE SMOOTH",
"487 116 OFFCURVE",
"467 61 OFFCURVE",
"442 11 CURVE",
"454 -32 OFFCURVE",
"497 -59 OFFCURVE",
"533 -22 CURVE SMOOTH",
"544 -10 OFFCURVE",
"545 6 OFFCURVE",
"555 18 CURVE",
"564 54 OFFCURVE",
"577 88 OFFCURVE",
"589 123 CURVE SMOOTH",
"608 176 OFFCURVE",
"626 228 OFFCURVE",
"637 284 CURVE SMOOTH",
"639 296 OFFCURVE",
"643 307 OFFCURVE",
"647 318 CURVE",
"647 317 LINE",
"661 355 OFFCURVE",
"663 394 OFFCURVE",
"674 433 CURVE",
"672 430 LINE SMOOTH",
"682 453 OFFCURVE",
"709 566 OFFCURVE",
"706 588 CURVE SMOOTH",
"704 604 OFFCURVE",
"699 620 OFFCURVE",
"695 636 CURVE",
"674 652 LINE",
"670 659 OFFCURVE",
"663 663 OFFCURVE",
"658 669 CURVE",
"658 668 LINE",
"646 689 OFFCURVE",
"596 696 OFFCURVE",
"574 696 CURVE",
"562 690 OFFCURVE",
"501 684 OFFCURVE",
"486 684 CURVE",
"443 666 OFFCURVE",
"397 658 OFFCURVE",
"354 641 CURVE",
"356 641 LINE SMOOTH",
"290 619 OFFCURVE",
"215 609 OFFCURVE",
"257 518 CURVE",
"320 500 OFFCURVE",
"350 535 OFFCURVE",
"402 557 CURVE",
"384 521 OFFCURVE",
"370 488 OFFCURVE",
"360 449 CURVE SMOOTH",
"359 447 LINE",
"358 448 LINE",
"360 450 LINE SMOOTH",
"346 440 OFFCURVE",
"308 347 OFFCURVE",
"294 321 CURVE",
"295 319 LINE",
"287 311 OFFCURVE",
"284 300 OFFCURVE",
"282 289 CURVE",
"253 260 OFFCURVE",
"237 217 OFFCURVE",
"214 183 CURVE SMOOTH",
"200 162 OFFCURVE",
"101 35 OFFCURVE",
"85 35 CURVE SMOOTH",
"64 35 OFFCURVE",
"49 20 OFFCURVE",
"43 1 CURVE",
"46 -33 OFFCURVE",
"90 -67 OFFCURVE",
"124 -54 CURVE SMOOTH",
"149 -45 OFFCURVE",
"189 -2 OFFCURVE",
"206 19 CURVE",
"205 19 LINE",
"287 118 OFFCURVE",
"356 227 OFFCURVE",
"406 346 CURVE SMOOTH",
"419 378 OFFCURVE",
"434 408 OFFCURVE",
"449 439 CURVE SMOOTH",
"472 485 OFFCURVE",
"493 533 OFFCURVE",
"510 581 CURVE",
"518 587 LINE",
"517 586 LINE",
"545 592 OFFCURVE",
"574 596 OFFCURVE",
"603 597 CURVE",
"594 512 OFFCURVE",
"569 434 OFFCURVE",
"550 351 CURVE SMOOTH",
"545 328 OFFCURVE",
"542 302 OFFCURVE",
"535 279 CURVE"
);
}
);
width = 717;
}
);
},
{
color = 7;
glyphname = "Pe-cy.ss02";
lastChange = "2017-12-15 09:51:13 +0000";
layers = (
{
layerId = UUID0;
paths = (
{
closed = 1;
nodes = (
"191 316 OFFCURVE",
"187 308 OFFCURVE",
"184 299 CURVE SMOOTH",
"150 202 OFFCURVE",
"122 85 OFFCURVE",
"98 -16 CURVE SMOOTH",
"84 -73 OFFCURVE",
"165 -97 OFFCURVE",
"177 -70 CURVE SMOOTH",
"176 -71 LINE SMOOTH",
"194 -29 OFFCURVE",
"212 52 OFFCURVE",
"221 99 CURVE",
"229 112 OFFCURVE",
"229 128 OFFCURVE",
"232 142 CURVE",
"231 141 LINE SMOOTH",
"254 207 OFFCURVE",
"279 273 OFFCURVE",
"300 340 CURVE SMOOTH",
"306 360 OFFCURVE",
"317 379 OFFCURVE",
"325 399 CURVE SMOOTH",
"330 413 OFFCURVE",
"335 428 OFFCURVE",
"339 442 CURVE SMOOTH",
"352 485 OFFCURVE",
"386 552 OFFCURVE",
"410 591 CURVE",
"410 590 LINE",
"414 592 LINE",
"424 592 OFFCURVE",
"433 591 OFFCURVE",
"443 591 CURVE SMOOTH",
"466 591 OFFCURVE",
"488 597 OFFCURVE",
"510 596 CURVE SMOOTH",
"544 595 OFFCURVE",
"634 593 OFFCURVE",
"663 587 CURVE",
"660 566 OFFCURVE",
"639 528 OFFCURVE",
"632 503 CURVE SMOOTH",
"615 442 OFFCURVE",
"597 383 OFFCURVE",
"573 324 CURVE SMOOTH",
"546 257 OFFCURVE",
"529 187 OFFCURVE",
"512 117 CURVE SMOOTH",
"505 87 OFFCURVE",
"472 9 OFFCURVE",
"478 -17 CURVE SMOOTH",
"485 -43 OFFCURVE",
"534 -59 OFFCURVE",
"558 -59 CURVE",
"576 25 OFFCURVE",
"598 108 OFFCURVE",
"627 189 CURVE SMOOTH",
"657 275 OFFCURVE",
"679 363 OFFCURVE",
"715 446 CURVE",
"727 457 OFFCURVE",
"724 471 OFFCURVE",
"729 485 CURVE SMOOTH",
"742 523 OFFCURVE",
"850 659 OFFCURVE",
"778 674 CURVE",
"779 674 LINE",
"713 689 OFFCURVE",
"643 685 OFFCURVE",
"576 685 CURVE SMOOTH",
"569 685 OFFCURVE",
"560 688 OFFCURVE",
"552 689 CURVE SMOOTH",
"532 691 OFFCURVE",
"511 692 OFFCURVE",
"490 692 CURVE SMOOTH",
"463 692 OFFCURVE",
"437 691 OFFCURVE",
"410 691 CURVE",
"388 702 OFFCURVE",
"364 724 OFFCURVE",
"346 691 CURVE",
"320 690 OFFCURVE",
"294 696 OFFCURVE",
"274 674 CURVE SMOOTH",
"254 651 OFFCURVE",
"242 600 OFFCURVE",
"283 592 CURVE SMOOTH",
"301 589 LINE",
"281 549 OFFCURVE",
"217 414 OFFCURVE",
"212 376 CURVE SMOOTH",
"209 358 OFFCURVE",
"195 346 OFFCURVE",
"195 324 CURVE"
);
}
);
width = 815;
},
{
layerId = "BF4C3430-0F48-4C30-8275-6D85863A5F93";
paths = (
{
closed = 1;
nodes = (
"191 316 OFFCURVE",
"187 308 OFFCURVE",
"184 299 CURVE SMOOTH",
"150 202 OFFCURVE",
"122 85 OFFCURVE",
"98 -16 CURVE SMOOTH",
"84 -73 OFFCURVE",
"165 -97 OFFCURVE",
"177 -70 CURVE SMOOTH",
"176 -71 LINE SMOOTH",
"194 -29 OFFCURVE",
"212 52 OFFCURVE",
"221 99 CURVE",
"229 112 OFFCURVE",
"229 128 OFFCURVE",
"232 142 CURVE",
"231 141 LINE SMOOTH",
"254 207 OFFCURVE",
"279 273 OFFCURVE",
"300 340 CURVE SMOOTH",
"306 360 OFFCURVE",
"317 379 OFFCURVE",
"325 399 CURVE SMOOTH",
"330 413 OFFCURVE",
"335 428 OFFCURVE",
"339 442 CURVE SMOOTH",
"352 485 OFFCURVE",
"386 552 OFFCURVE",
"410 591 CURVE",
"410 590 LINE",
"414 592 LINE",
"424 592 OFFCURVE",
"433 591 OFFCURVE",
"443 591 CURVE SMOOTH",
"466 591 OFFCURVE",
"488 597 OFFCURVE",
"510 596 CURVE SMOOTH",
"544 595 OFFCURVE",
"634 593 OFFCURVE",
"663 587 CURVE",
"660 566 OFFCURVE",
"639 528 OFFCURVE",
"632 503 CURVE SMOOTH",
"615 442 OFFCURVE",
"597 383 OFFCURVE",
"573 324 CURVE SMOOTH",
"546 257 OFFCURVE",
"529 187 OFFCURVE",
"512 117 CURVE SMOOTH",
"505 87 OFFCURVE",
"472 9 OFFCURVE",
"478 -17 CURVE SMOOTH",
"485 -43 OFFCURVE",
"534 -59 OFFCURVE",
"558 -59 CURVE",
"576 25 OFFCURVE",
"598 108 OFFCURVE",
"627 189 CURVE SMOOTH",
"657 275 OFFCURVE",
"679 363 OFFCURVE",
"715 446 CURVE",
"727 457 OFFCURVE",
"724 471 OFFCURVE",
"729 485 CURVE SMOOTH",
"742 523 OFFCURVE",
"850 659 OFFCURVE",
"778 674 CURVE",
"779 674 LINE",
"713 689 OFFCURVE",
"643 685 OFFCURVE",
"576 685 CURVE SMOOTH",
"569 685 OFFCURVE",
"560 688 OFFCURVE",
"552 689 CURVE SMOOTH",
"532 691 OFFCURVE",
"511 692 OFFCURVE",
"490 692 CURVE SMOOTH",
"463 692 OFFCURVE",
"437 691 OFFCURVE",
"410 691 CURVE",
"388 702 OFFCURVE",
"364 724 OFFCURVE",
"346 691 CURVE",
"320 690 OFFCURVE",
"294 696 OFFCURVE",
"274 674 CURVE SMOOTH",
"254 651 OFFCURVE",
"242 600 OFFCURVE",
"283 592 CURVE SMOOTH",
"301 589 LINE",
"281 549 OFFCURVE",
"217 414 OFFCURVE",
"212 376 CURVE SMOOTH",
"209 358 OFFCURVE",
"195 346 OFFCURVE",
"195 324 CURVE"
);
}
);
width = 815;
}
);
},
{
color = 7;
glyphname = "U-cy.ss02";
lastChange = "2017-12-15 09:51:13 +0000";
layers = (
{
anchors = (
{
name = topUC;
position = "{550, 769}";
}
);
layerId = UUID0;
paths = (
{
closed = 1;
nodes = (
"403 296 LINE",
"393 354 OFFCURVE",
"369 410 OFFCURVE",
"356 467 CURVE",
"356 463 LINE SMOOTH",
"354 477 OFFCURVE",
"352 491 OFFCURVE",
"349 505 CURVE SMOOTH",
"347 514 OFFCURVE",
"350 524 OFFCURVE",
"348 533 CURVE SMOOTH",
"348 530 LINE SMOOTH",
"343 570 OFFCURVE",
"331 632 OFFCURVE",
"347 669 CURVE",
"330 691 LINE SMOOTH",
"311 715 OFFCURVE",
"237 739 OFFCURVE",
"237 688 CURVE SMOOTH",
"237 678 OFFCURVE",
"234 611 OFFCURVE",
"238 602 CURVE",
"234 588 OFFCURVE",
"240 575 OFFCURVE",
"242 562 CURVE SMOOTH",
"247 522 OFFCURVE",
"252 484 OFFCURVE",
"262 445 CURVE SMOOTH",
"271 410 OFFCURVE",
"280 375 OFFCURVE",
"287 339 CURVE",
"297 327 OFFCURVE",
"292 311 OFFCURVE",
"300 298 CURVE",
"300 299 LINE",
"327 249 OFFCURVE",
"310 188 OFFCURVE",
"367 150 CURVE",
"350 131 OFFCURVE",
"258 48 OFFCURVE",
"237 50 CURVE",
"226 45 OFFCURVE",
"199 16 OFFCURVE",
"201 3 CURVE SMOOTH",
"204 -24 OFFCURVE",
"240 -47 OFFCURVE",
"265 -48 CURVE",
"272 -42 OFFCURVE",
"297 -41 OFFCURVE",
"318 -22 CURVE",
"317 -22 LINE",
"353 8 OFFCURVE",
"390 38 OFFCURVE",
"429 66 CURVE",
"429 65 LINE",
"444 78 OFFCURVE",
"500 156 OFFCURVE",
"513 176 CURVE",
"512 173 LINE",
"552 228 OFFCURVE",
"618 339 OFFCURVE",
"643 399 CURVE SMOOTH",
"654 427 OFFCURVE",
"662 459 OFFCURVE",
"680 484 CURVE",
"686 533 OFFCURVE",
"721 596 OFFCURVE",
"735 645 CURVE SMOOTH",
"744 677 OFFCURVE",
"705 710 OFFCURVE",
"678 718 CURVE",
"646 708 LINE",
"593 536 OFFCURVE",
"528 374 OFFCURVE",
"423 227 CURVE SMOOTH",
"422 226 OFFCURVE",
"422 225 OFFCURVE",
"422 224 CURVE SMOOTH",
"413 248 OFFCURVE",
"409 275 OFFCURVE",
"403 300 CURVE"
);
},
{
closed = 1;
nodes = (
"348 501 OFFCURVE",
"348 503 OFFCURVE",
"349 504 CURVE",
"349 503 OFFCURVE",
"349 501 OFFCURVE",
"348 500 CURVE"
);
}
);
width = 747;
},
{
anchors = (
{
name = topUC;
position = "{550, 769}";
}
);
layerId = "BF4C3430-0F48-4C30-8275-6D85863A5F93";
paths = (
{
closed = 1;
nodes = (
"403 296 LINE",
"393 354 OFFCURVE",
"369 410 OFFCURVE",
"356 467 CURVE",
"356 463 LINE SMOOTH",
"354 477 OFFCURVE",
"352 491 OFFCURVE",
"349 505 CURVE SMOOTH",
"347 514 OFFCURVE",
"350 524 OFFCURVE",
"348 533 CURVE SMOOTH",
"348 530 LINE SMOOTH",
"343 570 OFFCURVE",
"331 632 OFFCURVE",
"347 669 CURVE",
"330 691 LINE SMOOTH",
"311 715 OFFCURVE",
"237 739 OFFCURVE",
"237 688 CURVE SMOOTH",
"237 678 OFFCURVE",
"234 611 OFFCURVE",
"238 602 CURVE",
"234 588 OFFCURVE",
"240 575 OFFCURVE",
"242 562 CURVE SMOOTH",
"247 522 OFFCURVE",
"252 484 OFFCURVE",
"262 445 CURVE SMOOTH",
"271 410 OFFCURVE",
"280 375 OFFCURVE",
"287 339 CURVE",
"297 327 OFFCURVE",
"292 311 OFFCURVE",
"300 298 CURVE",
"300 299 LINE",
"327 249 OFFCURVE",
"310 188 OFFCURVE",
"367 150 CURVE",
"350 131 OFFCURVE",
"258 48 OFFCURVE",
"237 50 CURVE",
"226 45 OFFCURVE",
"199 16 OFFCURVE",
"201 3 CURVE SMOOTH",
"204 -24 OFFCURVE",
"240 -47 OFFCURVE",
"265 -48 CURVE",
"272 -42 OFFCURVE",
"297 -41 OFFCURVE",
"318 -22 CURVE",
"317 -22 LINE",
"353 8 OFFCURVE",
"390 38 OFFCURVE",
"429 66 CURVE",
"429 65 LINE",
"444 78 OFFCURVE",
"500 156 OFFCURVE",
"513 176 CURVE",
"512 173 LINE",
"552 228 OFFCURVE",
"618 339 OFFCURVE",
"643 399 CURVE SMOOTH",
"654 427 OFFCURVE",
"662 459 OFFCURVE",
"680 484 CURVE",
"686 533 OFFCURVE",
"721 596 OFFCURVE",
"735 645 CURVE SMOOTH",
"744 677 OFFCURVE",
"705 710 OFFCURVE",
"678 718 CURVE",
"646 708 LINE",
"593 536 OFFCURVE",
"528 374 OFFCURVE",
"423 227 CURVE SMOOTH",
"422 226 OFFCURVE",
"422 225 OFFCURVE",
"422 224 CURVE SMOOTH",
"413 248 OFFCURVE",
"409 275 OFFCURVE",
"403 300 CURVE"
);
},
{
closed = 1;
nodes = (
"348 501 OFFCURVE",
"348 503 OFFCURVE",
"349 504 CURVE",
"349 503 OFFCURVE",
"349 501 OFFCURVE",
"348 500 CURVE"
);
}
);
width = 747;
}
);
},
{
color = 7;
glyphname = "Ef-cy.ss02";
lastChange = "2017-12-15 09:51:13 +0000";
layers = (
{
layerId = UUID0;
paths = (
{
closed = 1;
nodes = (
"551 69 LINE",
"550 69 LINE",
"581 71 OFFCURVE",
"610 75 OFFCURVE",
"640 84 CURVE",
"639 84 LINE",
"639 84 LINE",
"638 84 LINE",
"636 84 LINE",
"635 84 OFFCURVE",
"633 83 OFFCURVE",
"633 84 CURVE",
"642 87 OFFCURVE",
"656 88 OFFCURVE",
"664 90 CURVE SMOOTH",
"767 112 OFFCURVE",
"822 174 OFFCURVE",
"865 266 CURVE SMOOTH",
"886 312 OFFCURVE",
"885 359 OFFCURVE",
"869 406 CURVE SMOOTH",
"870 405 LINE SMOOTH",
"858 441 OFFCURVE",
"852 458 OFFCURVE",
"826 486 CURVE SMOOTH",
"777 539 OFFCURVE",
"719 576 OFFCURVE",
"647 587 CURVE",
"653 605 OFFCURVE",
"655 623 OFFCURVE",
"652 642 CURVE",
"636 657 OFFCURVE",
"621 672 OFFCURVE",
"602 683 CURVE",
"565 673 LINE",
"557 650 OFFCURVE",
"550 627 OFFCURVE",
"543 604 CURVE",
"529 609 OFFCURVE",
"504 604 OFFCURVE",
"489 603 CURVE SMOOTH",
"381 594 OFFCURVE",
"226 515 OFFCURVE",
"186 410 CURVE SMOOTH",
"154 325 OFFCURVE",
"173 240 OFFCURVE",
"229 170 CURVE SMOOTH",
"227 172 LINE SMOOTH",
"264 119 OFFCURVE",
"340 93 OFFCURVE",
"400 75 CURVE",
"401 36 OFFCURVE",
"367 2 OFFCURVE",
"390 -36 CURVE SMOOTH",
"398 -49 OFFCURVE",
"409 -59 OFFCURVE",
"424 -62 CURVE",
"423 -61 LINE SMOOTH",
"432 -65 OFFCURVE",
"441 -69 OFFCURVE",
"450 -72 CURVE",
"491 -49 LINE",
"494 -12 OFFCURVE",
"498 26 OFFCURVE",
"502 63 CURVE",
"551 69 LINE"
);
},
{
closed = 1;
nodes = (
"572 338 LINE",
"589 383 OFFCURVE",
"602 430 OFFCURVE",
"618 476 CURVE",
"618 475 LINE",
"625 498 LINE",
"637 496 OFFCURVE",
"699 487 OFFCURVE",
"706 481 CURVE SMOOTH",
"716 472 OFFCURVE",
"726 462 OFFCURVE",
"737 453 CURVE SMOOTH",
"747 445 OFFCURVE",
"759 437 OFFCURVE",
"768 428 CURVE",
"772 415 OFFCURVE",
"776 403 OFFCURVE",
"779 390 CURVE",
"778 391 LINE",
"781 380 OFFCURVE",
"782 369 OFFCURVE",
"782 358 CURVE SMOOTH",
"782 282 OFFCURVE",
"722 214 OFFCURVE",
"656 182 CURVE SMOOTH",
"612 161 OFFCURVE",
"566 157 OFFCURVE",
"518 157 CURVE",
"531 220 OFFCURVE",
"551 279 OFFCURVE",
"572 339 CURVE"
);
},
{
closed = 1;
nodes = (
"484 503 LINE",
"515 509 LINE",
"506 475 OFFCURVE",
"496 441 OFFCURVE",
"485 407 CURVE SMOOTH",
"482 397 OFFCURVE",
"476 385 OFFCURVE",
"473 375 CURVE SMOOTH",
"420 165 LINE",
"360 172 OFFCURVE",
"294 204 OFFCURVE",
"277 266 CURVE SMOOTH",
"273 283 OFFCURVE",
"268 301 OFFCURVE",
"271 318 CURVE SMOOTH",
"293 430 OFFCURVE",
"384 478 OFFCURVE",
"485 504 CURVE"
);
}
);
width = 891;
},
{
layerId = "BF4C3430-0F48-4C30-8275-6D85863A5F93";
paths = (
{
closed = 1;
nodes = (
"551 69 LINE",
"550 69 LINE",
"581 71 OFFCURVE",
"610 75 OFFCURVE",
"640 84 CURVE",
"639 84 LINE",
"639 84 LINE",
"638 84 LINE",
"636 84 LINE",
"635 84 OFFCURVE",
"633 83 OFFCURVE",
"633 84 CURVE",
"642 87 OFFCURVE",
"656 88 OFFCURVE",
"664 90 CURVE SMOOTH",
"767 112 OFFCURVE",
"822 174 OFFCURVE",
"865 266 CURVE SMOOTH",
"886 312 OFFCURVE",
"885 359 OFFCURVE",
"869 406 CURVE SMOOTH",
"870 405 LINE SMOOTH",
"858 441 OFFCURVE",
"852 458 OFFCURVE",
"826 486 CURVE SMOOTH",
"777 539 OFFCURVE",
"719 576 OFFCURVE",
"647 587 CURVE",
"653 605 OFFCURVE",
"655 623 OFFCURVE",
"652 642 CURVE",
"636 657 OFFCURVE",
"621 672 OFFCURVE",
"602 683 CURVE",
"565 673 LINE",
"557 650 OFFCURVE",
"550 627 OFFCURVE",
"543 604 CURVE",
"529 609 OFFCURVE",
"504 604 OFFCURVE",
"489 603 CURVE SMOOTH",
"381 594 OFFCURVE",
"226 515 OFFCURVE",
"186 410 CURVE SMOOTH",
"154 325 OFFCURVE",
"173 240 OFFCURVE",
"229 170 CURVE SMOOTH",
"227 172 LINE SMOOTH",
"264 119 OFFCURVE",
"340 93 OFFCURVE",
"400 75 CURVE",
"401 36 OFFCURVE",
"367 2 OFFCURVE",
"390 -36 CURVE SMOOTH",
"398 -49 OFFCURVE",
"409 -59 OFFCURVE",
"424 -62 CURVE",
"423 -61 LINE SMOOTH",
"432 -65 OFFCURVE",
"441 -69 OFFCURVE",
"450 -72 CURVE",
"491 -49 LINE",
"494 -12 OFFCURVE",
"498 26 OFFCURVE",
"502 63 CURVE",
"551 69 LINE"
);
},
{
closed = 1;
nodes = (
"572 338 LINE",
"589 383 OFFCURVE",
"602 430 OFFCURVE",
"618 476 CURVE",
"618 475 LINE",
"625 498 LINE",
"637 496 OFFCURVE",
"699 487 OFFCURVE",
"706 481 CURVE SMOOTH",
"716 472 OFFCURVE",
"726 462 OFFCURVE",
"737 453 CURVE SMOOTH",
"747 445 OFFCURVE",
"759 437 OFFCURVE",
"768 428 CURVE",
"772 415 OFFCURVE",
"776 403 OFFCURVE",
"779 390 CURVE",
"778 391 LINE",
"781 380 OFFCURVE",
"782 369 OFFCURVE",
"782 358 CURVE SMOOTH",
"782 282 OFFCURVE",
"722 214 OFFCURVE",
"656 182 CURVE SMOOTH",
"612 161 OFFCURVE",
"566 157 OFFCURVE",
"518 157 CURVE",
"531 220 OFFCURVE",
"551 279 OFFCURVE",
"572 339 CURVE"
);
},
{
closed = 1;
nodes = (
"484 503 LINE",
"515 509 LINE",
"506 475 OFFCURVE",
"496 441 OFFCURVE",
"485 407 CURVE SMOOTH",
"482 397 OFFCURVE",
"476 385 OFFCURVE",
"473 375 CURVE SMOOTH",
"420 165 LINE",
"360 172 OFFCURVE",
"294 204 OFFCURVE",
"277 266 CURVE SMOOTH",
"273 283 OFFCURVE",
"268 301 OFFCURVE",
"271 318 CURVE SMOOTH",
"293 430 OFFCURVE",
"384 478 OFFCURVE",
"485 504 CURVE"
);
}
);
width = 891;
}
);
},
{
color = 7;
glyphname = "Che-cy.ss02";
lastChange = "2017-12-15 09:51:13 +0000";
layers = (
{
layerId = UUID0;
paths = (
{
closed = 1;
nodes = (
"491 18 LINE",
"509 44 OFFCURVE",
"503 82 OFFCURVE",
"522 102 CURVE",
"520 113 OFFCURVE",
"600 342 OFFCURVE",
"612 362 CURVE",
"611 370 OFFCURVE",
"620 395 OFFCURVE",
"624 403 CURVE SMOOTH",
"654 471 OFFCURVE",
"693 541 OFFCURVE",
"712 613 CURVE SMOOTH",
"720 644 OFFCURVE",
"704 663 OFFCURVE",
"675 673 CURVE",
"663 671 OFFCURVE",
"652 679 OFFCURVE",
"639 679 CURVE",
"630 671 LINE SMOOTH",
"617 659 OFFCURVE",
"524 449 OFFCURVE",
"515 424 CURVE",
"515 425 LINE",
"504 410 OFFCURVE",
"495 393 OFFCURVE",
"484 378 CURVE",
"484 379 LINE",
"442 324 OFFCURVE",
"325 265 OFFCURVE",
"263 233 CURVE",
"263 233 LINE",
"263 243 OFFCURVE",
"261 252 OFFCURVE",
"261 262 CURVE",
"263 268 OFFCURVE",
"275 320 OFFCURVE",
"277 330 CURVE SMOOTH",
"276 328 LINE SMOOTH",
"290 378 OFFCURVE",
"313 424 OFFCURVE",
"329 473 CURVE SMOOTH",
"347 528 OFFCURVE",
"385 575 OFFCURVE",
"397 633 CURVE SMOOTH",
"404 669 OFFCURVE",
"360 684 OFFCURVE",
"335 697 CURVE",
"320 687 OFFCURVE",
"305 677 OFFCURVE",
"306 657 CURVE",
"302 650 OFFCURVE",
"299 643 OFFCURVE",
"296 635 CURVE",
"296 636 LINE",
"292 626 OFFCURVE",
"287 616 OFFCURVE",
"282 607 CURVE SMOOTH",
"283 608 LINE SMOOTH",
"269 587 OFFCURVE",
"260 565 OFFCURVE",
"250 542 CURVE",
"250 543 LINE",
"222 479 OFFCURVE",
"173 362 OFFCURVE",
"161 298 CURVE SMOOTH",
"154 262 OFFCURVE",
"156 200 OFFCURVE",
"187 174 CURVE SMOOTH",
"212 154 OFFCURVE",
"230 152 OFFCURVE",
"260 149 CURVE SMOOTH",
"326 142 OFFCURVE",
"419 211 OFFCURVE",
"470 250 CURVE",
"467 213 OFFCURVE",
"447 174 OFFCURVE",
"436 139 CURVE SMOOTH",
"431 124 OFFCURVE",
"394 5 OFFCURVE",
"394 -4 CURVE SMOOTH",
"395 -35 OFFCURVE",
"423 -59 OFFCURVE",
"453 -57 CURVE SMOOTH",
"495 -54 OFFCURVE",
"486 -3 OFFCURVE",
"500 26 CURVE"
);
}
);
width = 725;
},
{
layerId = "BF4C3430-0F48-4C30-8275-6D85863A5F93";
paths = (
{
closed = 1;
nodes = (
"491 18 LINE",
"509 44 OFFCURVE",
"503 82 OFFCURVE",
"522 102 CURVE",
"520 113 OFFCURVE",
"600 342 OFFCURVE",
"612 362 CURVE",
"611 370 OFFCURVE",
"620 395 OFFCURVE",
"624 403 CURVE SMOOTH",
"654 471 OFFCURVE",
"693 541 OFFCURVE",
"712 613 CURVE SMOOTH",
"720 644 OFFCURVE",
"704 663 OFFCURVE",
"675 673 CURVE",
"663 671 OFFCURVE",
"652 679 OFFCURVE",
"639 679 CURVE",
"630 671 LINE SMOOTH",
"617 659 OFFCURVE",
"524 449 OFFCURVE",
"515 424 CURVE",
"515 425 LINE",
"504 410 OFFCURVE",
"495 393 OFFCURVE",
"484 378 CURVE",
"484 379 LINE",
"442 324 OFFCURVE",
"325 265 OFFCURVE",
"263 233 CURVE",
"263 233 LINE",
"263 243 OFFCURVE",
"261 252 OFFCURVE",
"261 262 CURVE",
"263 268 OFFCURVE",
"275 320 OFFCURVE",
"277 330 CURVE SMOOTH",
"276 328 LINE SMOOTH",
"290 378 OFFCURVE",
"313 424 OFFCURVE",
"329 473 CURVE SMOOTH",
"347 528 OFFCURVE",
"385 575 OFFCURVE",
"397 633 CURVE SMOOTH",
"404 669 OFFCURVE",
"360 684 OFFCURVE",
"335 697 CURVE",
"320 687 OFFCURVE",
"305 677 OFFCURVE",
"306 657 CURVE",
"302 650 OFFCURVE",
"299 643 OFFCURVE",
"296 635 CURVE",
"296 636 LINE",
"292 626 OFFCURVE",
"287 616 OFFCURVE",
"282 607 CURVE SMOOTH",
"283 608 LINE SMOOTH",
"269 587 OFFCURVE",
"260 565 OFFCURVE",
"250 542 CURVE",
"250 543 LINE",
"222 479 OFFCURVE",
"173 362 OFFCURVE",
"161 298 CURVE SMOOTH",
"154 262 OFFCURVE",
"156 200 OFFCURVE",
"187 174 CURVE SMOOTH",
"212 154 OFFCURVE",
"230 152 OFFCURVE",
"260 149 CURVE SMOOTH",
"326 142 OFFCURVE",
"419 211 OFFCURVE",
"470 250 CURVE",
"467 213 OFFCURVE",
"447 174 OFFCURVE",
"436 139 CURVE SMOOTH",
"431 124 OFFCURVE",
"394 5 OFFCURVE",
"394 -4 CURVE SMOOTH",
"395 -35 OFFCURVE",
"423 -59 OFFCURVE",
"453 -57 CURVE SMOOTH",
"495 -54 OFFCURVE",
"486 -3 OFFCURVE",
"500 26 CURVE"
);
}
);
width = 725;
}
);
},
{
color = 7;
glyphname = "Tse-cy.ss02";
lastChange = "2017-12-15 09:51:13 +0000";
layers = (
{
layerId = UUID0;
paths = (
{
closed = 1;
nodes = (
"257 -60 LINE",
"294 -46 OFFCURVE",
"339 -64 OFFCURVE",
"396 -32 CURVE SMOOTH",
"395 -33 LINE SMOOTH",
"410 -25 OFFCURVE",
"426 -17 OFFCURVE",
"443 -12 CURVE",
"443 -13 LINE",
"491 -2 OFFCURVE",
"537 1 OFFCURVE",
"586 1 CURVE",
"585 -27 OFFCURVE",
"560 -91 OFFCURVE",
"549 -119 CURVE",
"549 -118 LINE",
"541 -139 LINE SMOOTH",
"531 -167 OFFCURVE",
"553 -199 OFFCURVE",
"581 -206 CURVE SMOOTH",
"620 -216 OFFCURVE",
"635 -199 OFFCURVE",
"641 -162 CURVE SMOOTH",
"646 -128 OFFCURVE",
"667 -97 OFFCURVE",
"674 -63 CURVE",
"674 -64 LINE",
"680 -29 OFFCURVE",
"692 23 OFFCURVE",
"674 54 CURVE",
"674 53 LINE",
"666 70 LINE",
"643 88 OFFCURVE",
"613 82 OFFCURVE",
"586 87 CURVE",
"597 127 OFFCURVE",
"608 168 OFFCURVE",
"620 208 CURVE SMOOTH",
"624 220 OFFCURVE",
"629 232 OFFCURVE",
"632 245 CURVE",
"631 244 LINE",
"650 305 OFFCURVE",
"673 365 OFFCURVE",
"696 424 CURVE",
"696 423 LINE",
"712 460 OFFCURVE",
"725 499 OFFCURVE",
"740 537 CURVE",
"740 536 LINE",
"755 570 OFFCURVE",
"785 632 OFFCURVE",
"778 669 CURVE",
"754 693 OFFCURVE",
"753 695 OFFCURVE",
"720 705 CURVE",
"698 687 OFFCURVE",
"690 703 OFFCURVE",
"681 666 CURVE SMOOTH",
"678 655 OFFCURVE",
"679 633 OFFCURVE",
"668 626 CURVE SMOOTH",
"648 614 OFFCURVE",
"642 608 OFFCURVE",
"653 584 CURVE",
"640 545 OFFCURVE",
"622 508 OFFCURVE",
"608 469 CURVE SMOOTH",
"568 357 LINE SMOOTH",
"551 309 OFFCURVE",
"527 259 OFFCURVE",
"517 209 CURVE",
"518 210 LINE",
"513 190 OFFCURVE",
"508 171 OFFCURVE",
"499 152 CURVE",
"497 131 OFFCURVE",
"485 108 OFFCURVE",
"486 88 CURVE",
"419 78 OFFCURVE",
"332 36 OFFCURVE",
"276 36 CURVE",
"267 33 OFFCURVE",
"228 32 OFFCURVE",
"227 25 CURVE",
"227 149 OFFCURVE",
"275 286 OFFCURVE",
"322 399 CURVE SMOOTH",
"352 471 OFFCURVE",
"370 545 OFFCURVE",
"408 614 CURVE",
"408 613 LINE",
"436 674 OFFCURVE",
"432 710 OFFCURVE",
"358 720 CURVE",
"317 699 OFFCURVE",
"309 598 OFFCURVE",
"274 565 CURVE",
"276 550 OFFCURVE",
"244 471 OFFCURVE",
"238 454 CURVE SMOOTH",
"197 345 OFFCURVE",
"152 235 OFFCURVE",
"134 119 CURVE SMOOTH",
"129 87 OFFCURVE",
"128 60 OFFCURVE",
"128 27 CURVE SMOOTH",
"128 -7 OFFCURVE",
"159 -40 OFFCURVE",
"190 -50 CURVE SMOOTH",
"205 -55 OFFCURVE",
"244 -65 OFFCURVE",
"258 -60 CURVE"
);
}
);
width = 790;
},
{
layerId = "BF4C3430-0F48-4C30-8275-6D85863A5F93";
paths = (
{
closed = 1;
nodes = (
"257 -60 LINE",
"294 -46 OFFCURVE",
"339 -64 OFFCURVE",
"396 -32 CURVE SMOOTH",
"395 -33 LINE SMOOTH",
"410 -25 OFFCURVE",
"426 -17 OFFCURVE",
"443 -12 CURVE",
"443 -13 LINE",
"491 -2 OFFCURVE",
"537 1 OFFCURVE",
"586 1 CURVE",
"585 -27 OFFCURVE",
"560 -91 OFFCURVE",
"549 -119 CURVE",
"549 -118 LINE",
"541 -139 LINE SMOOTH",
"531 -167 OFFCURVE",
"553 -199 OFFCURVE",
"581 -206 CURVE SMOOTH",
"620 -216 OFFCURVE",
"635 -199 OFFCURVE",
"641 -162 CURVE SMOOTH",
"646 -128 OFFCURVE",
"667 -97 OFFCURVE",
"674 -63 CURVE",
"674 -64 LINE",
"680 -29 OFFCURVE",
"692 23 OFFCURVE",
"674 54 CURVE",
"674 53 LINE",
"666 70 LINE",
"643 88 OFFCURVE",
"613 82 OFFCURVE",
"586 87 CURVE",
"597 127 OFFCURVE",
"608 168 OFFCURVE",
"620 208 CURVE SMOOTH",
"624 220 OFFCURVE",
"629 232 OFFCURVE",
"632 245 CURVE",
"631 244 LINE",
"650 305 OFFCURVE",
"673 365 OFFCURVE",
"696 424 CURVE",
"696 423 LINE",
"712 460 OFFCURVE",
"725 499 OFFCURVE",
"740 537 CURVE",
"740 536 LINE",
"755 570 OFFCURVE",
"785 632 OFFCURVE",
"778 669 CURVE",
"754 693 OFFCURVE",
"753 695 OFFCURVE",
"720 705 CURVE",
"698 687 OFFCURVE",
"690 703 OFFCURVE",
"681 666 CURVE SMOOTH",
"678 655 OFFCURVE",
"679 633 OFFCURVE",
"668 626 CURVE SMOOTH",
"648 614 OFFCURVE",
"642 608 OFFCURVE",
"653 584 CURVE",
"640 545 OFFCURVE",
"622 508 OFFCURVE",
"608 469 CURVE SMOOTH",
"568 357 LINE SMOOTH",
"551 309 OFFCURVE",
"527 259 OFFCURVE",
"517 209 CURVE",
"518 210 LINE",
"513 190 OFFCURVE",
"508 171 OFFCURVE",
"499 152 CURVE",
"497 131 OFFCURVE",
"485 108 OFFCURVE",
"486 88 CURVE",
"419 78 OFFCURVE",
"332 36 OFFCURVE",
"276 36 CURVE",
"267 33 OFFCURVE",
"228 32 OFFCURVE",
"227 25 CURVE",
"227 149 OFFCURVE",
"275 286 OFFCURVE",
"322 399 CURVE SMOOTH",
"352 471 OFFCURVE",
"370 545 OFFCURVE",
"408 614 CURVE",
"408 613 LINE",
"436 674 OFFCURVE",
"432 710 OFFCURVE",
"358 720 CURVE",
"317 699 OFFCURVE",
"309 598 OFFCURVE",
"274 565 CURVE",
"276 550 OFFCURVE",
"244 471 OFFCURVE",
"238 454 CURVE SMOOTH",
"197 345 OFFCURVE",
"152 235 OFFCURVE",
"134 119 CURVE SMOOTH",
"129 87 OFFCURVE",
"128 60 OFFCURVE",
"128 27 CURVE SMOOTH",
"128 -7 OFFCURVE",
"159 -40 OFFCURVE",
"190 -50 CURVE SMOOTH",
"205 -55 OFFCURVE",
"244 -65 OFFCURVE",
"258 -60 CURVE"
);
}
);
width = 790;
}
);
},
{
color = 7;
glyphname = "Shcha-cy.ss02";
lastChange = "2017-12-15 09:51:13 +0000";
layers = (
{
layerId = UUID0;
paths = (
{
closed = 1;
nodes = (
"716 -178 LINE",
"744 -178 OFFCURVE",
"771 -186 OFFCURVE",
"781 -152 CURVE SMOOTH",
"805 -73 OFFCURVE",
"830 6 OFFCURVE",
"840 87 CURVE",
"827 113 OFFCURVE",
"803 125 OFFCURVE",
"776 133 CURVE",
"762 130 OFFCURVE",
"751 138 OFFCURVE",
"734 130 CURVE",
"737 144 OFFCURVE",
"737 181 OFFCURVE",
"746 190 CURVE",
"746 219 OFFCURVE",
"766 268 OFFCURVE",
"777 296 CURVE",
"777 297 LINE",
"783 310 OFFCURVE",
"787 325 OFFCURVE",
"791 339 CURVE SMOOTH",
"804 380 OFFCURVE",
"820 420 OFFCURVE",
"836 460 CURVE SMOOTH",
"850 495 OFFCURVE",
"886 571 OFFCURVE",
"893 608 CURVE SMOOTH",
"902 659 OFFCURVE",
"823 678 OFFCURVE",
"789 650 CURVE",
"794 617 OFFCURVE",
"771 588 OFFCURVE",
"764 557 CURVE",
"765 558 LINE",
"760 541 OFFCURVE",
"753 525 OFFCURVE",
"746 509 CURVE SMOOTH",
"734 484 OFFCURVE",
"728 456 OFFCURVE",
"719 429 CURVE",
"719 430 LINE",
"713 414 OFFCURVE",
"707 397 OFFCURVE",
"703 380 CURVE SMOOTH",
"701 371 OFFCURVE",
"698 363 OFFCURVE",
"694 355 CURVE SMOOTH",
"681 329 OFFCURVE",
"626 152 OFFCURVE",
"635 130 CURVE SMOOTH",
"641 114 OFFCURVE",
"650 113 OFFCURVE",
"657 101 CURVE",
"664 96 LINE SMOOTH",
"653 102 OFFCURVE",
"640 109 OFFCURVE",
"630 118 CURVE",
"599 111 OFFCURVE",
"566 112 OFFCURVE",
"535 103 CURVE",
"536 104 LINE",
"517 100 OFFCURVE",
"497 96 OFFCURVE",
"478 94 CURVE",
"493 114 OFFCURVE",
"495 142 OFFCURVE",
"500 165 CURVE SMOOTH",
"508 201 OFFCURVE",
"513 236 OFFCURVE",
"524 271 CURVE SMOOTH",
"546 339 OFFCURVE",
"571 406 OFFCURVE",
"598 472 CURVE",
"593 466 LINE",
"606 490 OFFCURVE",
"652 598 OFFCURVE",
"654 619 CURVE SMOOTH",
"655 633 OFFCURVE",
"646 653 OFFCURVE",
"638 664 CURVE",
"620 667 OFFCURVE",
"580 716 OFFCURVE",
"558 654 CURVE SMOOTH",
"535 589 OFFCURVE",
"514 522 OFFCURVE",
"488 459 CURVE SMOOTH",
"469 412 OFFCURVE",
"455 365 OFFCURVE",
"438 318 CURVE SMOOTH",
"428 290 OFFCURVE",
"380 133 OFFCURVE",
"388 114 CURVE SMOOTH",
"392 104 OFFCURVE",
"407 93 OFFCURVE",
"416 87 CURVE",
"361 82 OFFCURVE",
"300 74 OFFCURVE",
"250 104 CURVE",
"236 125 OFFCURVE",
"231 148 OFFCURVE",
"237 172 CURVE",
"237 171 LINE",
"250 213 OFFCURVE",
"265 256 OFFCURVE",
"271 300 CURVE",
"271 299 LINE",
"275 327 OFFCURVE",
"284 353 OFFCURVE",
"295 379 CURVE SMOOTH",
"321 444 OFFCURVE",
"368 571 OFFCURVE",
"382 638 CURVE",
"411 624 LINE",
"424 650 OFFCURVE",
"422 675 OFFCURVE",
"406 699 CURVE",
"385 713 OFFCURVE",
"373 723 OFFCURVE",
"347 716 CURVE",
"327 699 OFFCURVE",
"331 700 OFFCURVE",
"323 677 CURVE SMOOTH",
"324 681 LINE SMOOTH",
"308 630 OFFCURVE",
"272 588 OFFCURVE",
"253 538 CURVE SMOOTH",
"247 522 OFFCURVE",
"240 507 OFFCURVE",
"233 491 CURVE SMOOTH",
"217 455 OFFCURVE",
"206 418 OFFCURVE",
"192 381 CURVE",
"192 382 LINE",
"182 361 OFFCURVE",
"181 340 OFFCURVE",
"174 319 CURVE",
"163 312 OFFCURVE",
"163 299 OFFCURVE",
"166 287 CURVE",
"147 233 OFFCURVE",
"122 137 OFFCURVE",
"156 85 CURVE SMOOTH",
"176 55 OFFCURVE",
"202 26 OFFCURVE",
"236 14 CURVE SMOOTH",
"349 -27 OFFCURVE",
"451 1 OFFCURVE",
"565 16 CURVE SMOOTH",
"588 19 OFFCURVE",
"610 22 OFFCURVE",
"633 26 CURVE SMOOTH",
"664 32 OFFCURVE",
"696 41 OFFCURVE",
"727 43 CURVE",
"726 39 OFFCURVE",
"726 36 OFFCURVE",
"726 32 CURVE SMOOTH",
"726 20 OFFCURVE",
"720 7 OFFCURVE",
"717 -5 CURVE SMOOTH",
"704 -54 OFFCURVE",
"689 -100 OFFCURVE",
"691 -151 CURVE",
"716 -178 LINE"
);
},
{
closed = 1;
nodes = (
"630 118 LINE",
"629 119 OFFCURVE",
"631 120 OFFCURVE",
"632 120 CURVE"
);
}
);
width = 904;
},
{
layerId = "BF4C3430-0F48-4C30-8275-6D85863A5F93";
paths = (
{
closed = 1;
nodes = (
"716 -178 LINE",
"744 -178 OFFCURVE",
"771 -186 OFFCURVE",
"781 -152 CURVE SMOOTH",
"805 -73 OFFCURVE",
"830 6 OFFCURVE",
"840 87 CURVE",
"827 113 OFFCURVE",
"803 125 OFFCURVE",
"776 133 CURVE",
"762 130 OFFCURVE",
"751 138 OFFCURVE",
"734 130 CURVE",
"737 144 OFFCURVE",
"737 181 OFFCURVE",
"746 190 CURVE",
"746 219 OFFCURVE",
"766 268 OFFCURVE",
"777 296 CURVE",
"777 297 LINE",
"783 310 OFFCURVE",
"787 325 OFFCURVE",
"791 339 CURVE SMOOTH",
"804 380 OFFCURVE",
"820 420 OFFCURVE",
"836 460 CURVE SMOOTH",
"850 495 OFFCURVE",
"886 571 OFFCURVE",
"893 608 CURVE SMOOTH",
"902 659 OFFCURVE",
"823 678 OFFCURVE",
"789 650 CURVE",
"794 617 OFFCURVE",
"771 588 OFFCURVE",
"764 557 CURVE",
"765 558 LINE",
"760 541 OFFCURVE",
"753 525 OFFCURVE",
"746 509 CURVE SMOOTH",
"734 484 OFFCURVE",
"728 456 OFFCURVE",
"719 429 CURVE",
"719 430 LINE",
"713 414 OFFCURVE",
"707 397 OFFCURVE",
"703 380 CURVE SMOOTH",
"701 371 OFFCURVE",
"698 363 OFFCURVE",
"694 355 CURVE SMOOTH",
"681 329 OFFCURVE",
"626 152 OFFCURVE",
"635 130 CURVE SMOOTH",
"641 114 OFFCURVE",
"650 113 OFFCURVE",
"657 101 CURVE",
"664 96 LINE SMOOTH",
"653 102 OFFCURVE",
"640 109 OFFCURVE",
"630 118 CURVE",
"599 111 OFFCURVE",
"566 112 OFFCURVE",
"535 103 CURVE",
"536 104 LINE",
"517 100 OFFCURVE",
"497 96 OFFCURVE",
"478 94 CURVE",
"493 114 OFFCURVE",
"495 142 OFFCURVE",
"500 165 CURVE SMOOTH",
"508 201 OFFCURVE",
"513 236 OFFCURVE",
"524 271 CURVE SMOOTH",
"546 339 OFFCURVE",
"571 406 OFFCURVE",
"598 472 CURVE",
"593 466 LINE",
"606 490 OFFCURVE",
"652 598 OFFCURVE",
"654 619 CURVE SMOOTH",
"655 633 OFFCURVE",
"646 653 OFFCURVE",
"638 664 CURVE",
"620 667 OFFCURVE",
"580 716 OFFCURVE",
"558 654 CURVE SMOOTH",
"535 589 OFFCURVE",
"514 522 OFFCURVE",
"488 459 CURVE SMOOTH",
"469 412 OFFCURVE",
"455 365 OFFCURVE",
"438 318 CURVE SMOOTH",
"428 290 OFFCURVE",
"380 133 OFFCURVE",
"388 114 CURVE SMOOTH",
"392 104 OFFCURVE",
"407 93 OFFCURVE",
"416 87 CURVE",
"361 82 OFFCURVE",
"300 74 OFFCURVE",
"250 104 CURVE",
"236 125 OFFCURVE",
"231 148 OFFCURVE",
"237 172 CURVE",
"237 171 LINE",
"250 213 OFFCURVE",
"265 256 OFFCURVE",
"271 300 CURVE",
"271 299 LINE",
"275 327 OFFCURVE",
"284 353 OFFCURVE",
"295 379 CURVE SMOOTH",
"321 444 OFFCURVE",
"368 571 OFFCURVE",
"382 638 CURVE",
"411 624 LINE",
"424 650 OFFCURVE",
"422 675 OFFCURVE",
"406 699 CURVE",
"385 713 OFFCURVE",
"373 723 OFFCURVE",
"347 716 CURVE",
"327 699 OFFCURVE",
"331 700 OFFCURVE",
"323 677 CURVE SMOOTH",
"324 681 LINE SMOOTH",
"308 630 OFFCURVE",
"272 588 OFFCURVE",
"253 538 CURVE SMOOTH",
"247 522 OFFCURVE",
"240 507 OFFCURVE",
"233 491 CURVE SMOOTH",
"217 455 OFFCURVE",
"206 418 OFFCURVE",
"192 381 CURVE",
"192 382 LINE",
"182 361 OFFCURVE",
"181 340 OFFCURVE",
"174 319 CURVE",
"163 312 OFFCURVE",
"163 299 OFFCURVE",
"166 287 CURVE",
"147 233 OFFCURVE",
"122 137 OFFCURVE",
"156 85 CURVE SMOOTH",
"176 55 OFFCURVE",
"202 26 OFFCURVE",
"236 14 CURVE SMOOTH",
"349 -27 OFFCURVE",
"451 1 OFFCURVE",
"565 16 CURVE SMOOTH",
"588 19 OFFCURVE",
"610 22 OFFCURVE",
"633 26 CURVE SMOOTH",
"664 32 OFFCURVE",
"696 41 OFFCURVE",
"727 43 CURVE",
"726 39 OFFCURVE",
"726 36 OFFCURVE",
"726 32 CURVE SMOOTH",
"726 20 OFFCURVE",
"720 7 OFFCURVE",
"717 -5 CURVE SMOOTH",
"704 -54 OFFCURVE",
"689 -100 OFFCURVE",
"691 -151 CURVE",
"716 -178 LINE"
);
},
{
closed = 1;
nodes = (
"630 118 LINE",
"629 119 OFFCURVE",
"631 120 OFFCURVE",
"632 120 CURVE"
);
}
);
width = 904;
}
);
},
{
color = 7;
glyphname = "Softsign-cy.ss02";
lastChange = "2017-12-15 09:51:13 +0000";
layers = (
{
layerId = UUID0;
paths = (
{
closed = 1;
nodes = (
"276 608 OFFCURVE",
"225 483 OFFCURVE",
"214 435 CURVE SMOOTH",
"207 404 OFFCURVE",
"198 376 OFFCURVE",
"187 347 CURVE SMOOTH",
"182 334 OFFCURVE",
"177 320 OFFCURVE",
"173 307 CURVE",
"173 308 LINE",
"167 290 OFFCURVE",
"163 272 OFFCURVE",
"158 254 CURVE",
"159 255 LINE",
"139 192 OFFCURVE",
"116 112 OFFCURVE",
"123 46 CURVE SMOOTH",
"127 12 OFFCURVE",
"169 -25 OFFCURVE",
"203 -28 CURVE SMOOTH",
"224 -30 OFFCURVE",
"247 -27 OFFCURVE",
"267 -21 CURVE SMOOTH",
"366 11 OFFCURVE",
"441 42 OFFCURVE",
"512 122 CURVE SMOOTH",
"581 199 OFFCURVE",
"589 305 OFFCURVE",
"529 389 CURVE SMOOTH",
"496 436 OFFCURVE",
"447 474 OFFCURVE",
"395 498 CURVE SMOOTH",
"387 502 OFFCURVE",
"378 505 OFFCURVE",
"371 510 CURVE SMOOTH",
"374 508 LINE SMOOTH",
"369 513 OFFCURVE",
"361 518 OFFCURVE",
"355 520 CURVE",
"362 535 OFFCURVE",
"364 551 OFFCURVE",
"370 566 CURVE SMOOTH",
"379 591 OFFCURVE",
"393 615 OFFCURVE",
"402 640 CURVE SMOOTH",
"411 665 LINE SMOOTH",
"432 724 OFFCURVE",
"325 772 OFFCURVE",
"311 700 CURVE SMOOTH",
"308 684 OFFCURVE",
"302 669 OFFCURVE",
"300 653 CURVE"
);
},
{
closed = 1;
nodes = (
"224 101 OFFCURVE",
"242 204 OFFCURVE",
"255 231 CURVE SMOOTH",
"259 240 OFFCURVE",
"263 248 OFFCURVE",
"263 259 CURVE SMOOTH",
"263 272 OFFCURVE",
"310 402 OFFCURVE",
"318 423 CURVE",
"559 365 OFFCURVE",
"499 135 OFFCURVE",
"290 90 CURVE SMOOTH",
"267 85 OFFCURVE",
"249 70 OFFCURVE",
"224 70 CURVE"
);
}
);
width = 581;
},
{
layerId = "BF4C3430-0F48-4C30-8275-6D85863A5F93";
paths = (
{
closed = 1;
nodes = (
"276 608 OFFCURVE",
"225 483 OFFCURVE",
"214 435 CURVE SMOOTH",
"207 404 OFFCURVE",
"198 376 OFFCURVE",
"187 347 CURVE SMOOTH",
"182 334 OFFCURVE",
"177 320 OFFCURVE",
"173 307 CURVE",
"173 308 LINE",
"167 290 OFFCURVE",
"163 272 OFFCURVE",
"158 254 CURVE",
"159 255 LINE",
"139 192 OFFCURVE",
"116 112 OFFCURVE",
"123 46 CURVE SMOOTH",
"127 12 OFFCURVE",
"169 -25 OFFCURVE",
"203 -28 CURVE SMOOTH",
"224 -30 OFFCURVE",
"247 -27 OFFCURVE",
"267 -21 CURVE SMOOTH",
"366 11 OFFCURVE",
"441 42 OFFCURVE",
"512 122 CURVE SMOOTH",
"581 199 OFFCURVE",
"589 305 OFFCURVE",
"529 389 CURVE SMOOTH",
"496 436 OFFCURVE",
"447 474 OFFCURVE",
"395 498 CURVE SMOOTH",
"387 502 OFFCURVE",
"378 505 OFFCURVE",
"371 510 CURVE SMOOTH",
"374 508 LINE SMOOTH",
"369 513 OFFCURVE",
"361 518 OFFCURVE",
"355 520 CURVE",
"362 535 OFFCURVE",
"364 551 OFFCURVE",
"370 566 CURVE SMOOTH",
"379 591 OFFCURVE",
"393 615 OFFCURVE",
"402 640 CURVE SMOOTH",
"411 665 LINE SMOOTH",
"432 724 OFFCURVE",
"325 772 OFFCURVE",
"311 700 CURVE SMOOTH",
"308 684 OFFCURVE",
"302 669 OFFCURVE",
"300 653 CURVE"
);
},
{
closed = 1;
nodes = (
"224 101 OFFCURVE",
"242 204 OFFCURVE",
"255 231 CURVE SMOOTH",
"259 240 OFFCURVE",
"263 248 OFFCURVE",
"263 259 CURVE SMOOTH",
"263 272 OFFCURVE",
"310 402 OFFCURVE",
"318 423 CURVE",
"559 365 OFFCURVE",
"499 135 OFFCURVE",
"290 90 CURVE SMOOTH",
"267 85 OFFCURVE",
"249 70 OFFCURVE",
"224 70 CURVE"
);
}
);
width = 581;
}
);
},
{
color = 7;
glyphname = "Iu-cy.ss02";
lastChange = "2017-12-15 09:51:13 +0000";
layers = (
{
layerId = UUID0;
paths = (
{
closed = 1;
nodes = (
"696 40 LINE",
"758 121 OFFCURVE",
"842 280 OFFCURVE",
"842 382 CURVE SMOOTH",
"842 384 OFFCURVE",
"842 385 OFFCURVE",
"842 387 CURVE SMOOTH",
"844 405 OFFCURVE",
"848 420 OFFCURVE",
"848 439 CURVE SMOOTH",
"848 477 OFFCURVE",
"840 516 OFFCURVE",
"832 553 CURVE",
"832 549 LINE",
"817 614 OFFCURVE",
"780 649 OFFCURVE",
"716 666 CURVE",
"708 664 OFFCURVE",
"704 676 OFFCURVE",
"679 669 CURVE SMOOTH",
"631 655 OFFCURVE",
"584 625 OFFCURVE",
"563 578 CURVE SMOOTH",
"561 574 OFFCURVE",
"560 570 OFFCURVE",
"560 566 CURVE",
"533 524 OFFCURVE",
"507 481 OFFCURVE",
"486 435 CURVE SMOOTH",
"484 431 OFFCURVE",
"482 428 OFFCURVE",
"480 424 CURVE",
"444 416 OFFCURVE",
"389 386 OFFCURVE",
"356 368 CURVE",
"357 368 LINE",
"345 361 LINE",
"335 359 OFFCURVE",
"324 353 OFFCURVE",
"315 348 CURVE",
"338 415 OFFCURVE",
"381 533 OFFCURVE",
"414 593 CURVE SMOOTH",
"423 610 OFFCURVE",
"428 632 OFFCURVE",
"424 651 CURVE SMOOTH",
"420 674 OFFCURVE",
"382 691 OFFCURVE",
"361 689 CURVE SMOOTH",
"340 687 OFFCURVE",
"334 681 OFFCURVE",
"327 662 CURVE SMOOTH",
"294 578 OFFCURVE",
"264 493 OFFCURVE",
"233 408 CURVE SMOOTH",
"218 367 OFFCURVE",
"204 312 OFFCURVE",
"184 275 CURVE",
"160 257 OFFCURVE",
"144 236 OFFCURVE",
"139 206 CURVE",
"139 207 LINE",
"133 181 OFFCURVE",
"117 26 OFFCURVE",
"119 5 CURVE SMOOTH",
"123 -38 OFFCURVE",
"140 -51 OFFCURVE",
"182 -54 CURVE",
"220 -28 OFFCURVE",
"232 29 OFFCURVE",
"230 72 CURVE",
"240 85 OFFCURVE",
"231 98 OFFCURVE",
"243 116 CURVE",
"244 129 OFFCURVE",
"265 209 OFFCURVE",
"272 215 CURVE SMOOTH",
"282 225 OFFCURVE",
"327 248 OFFCURVE",
"341 254 CURVE SMOOTH",
"376 270 OFFCURVE",
"405 295 OFFCURVE",
"438 313 CURVE",
"427 279 OFFCURVE",
"408 221 OFFCURVE",
"409 186 CURVE",
"398 159 OFFCURVE",
"404 91 OFFCURVE",
"395 76 CURVE",
"388 28 OFFCURVE",
"400 -41 OFFCURVE",
"451 -61 CURVE SMOOTH",
"526 -91 OFFCURVE",
"658 -23 OFFCURVE",
"697 40 CURVE"
);
},
{
closed = 1;
nodes = (
"500 68 OFFCURVE",
"502 82 OFFCURVE",
"504 96 CURVE SMOOTH",
"513 155 OFFCURVE",
"510 196 OFFCURVE",
"535 255 CURVE",
"535 296 OFFCURVE",
"608 444 OFFCURVE",
"633 481 CURVE SMOOTH",
"653 510 OFFCURVE",
"674 537 OFFCURVE",
"688 570 CURVE",
"758 609 OFFCURVE",
"750 458 OFFCURVE",
"749 426 CURVE",
"748 431 OFFCURVE",
"748 427 OFFCURVE",
"747 422 CURVE SMOOTH",
"746 410 LINE",
"744 399 OFFCURVE",
"746 383 OFFCURVE",
"740 373 CURVE",
"732 318 OFFCURVE",
"706 248 OFFCURVE",
"677 201 CURVE SMOOTH",
"664 180 OFFCURVE",
"645 155 OFFCURVE",
"637 132 CURVE",
"631 127 LINE",
"631 128 LINE",
"620 119 OFFCURVE",
"611 108 OFFCURVE",
"608 94 CURVE",
"579 69 OFFCURVE",
"542 29 OFFCURVE",
"500 27 CURVE",
"499 34 OFFCURVE",
"498 48 OFFCURVE",
"501 54 CURVE"
);
}
);
width = 858;
},
{
layerId = "BF4C3430-0F48-4C30-8275-6D85863A5F93";
paths = (
{
closed = 1;
nodes = (
"696 40 LINE",
"758 121 OFFCURVE",
"842 280 OFFCURVE",
"842 382 CURVE SMOOTH",
"842 384 OFFCURVE",
"842 385 OFFCURVE",
"842 387 CURVE SMOOTH",
"844 405 OFFCURVE",
"848 420 OFFCURVE",
"848 439 CURVE SMOOTH",
"848 477 OFFCURVE",
"840 516 OFFCURVE",
"832 553 CURVE",
"832 549 LINE",
"817 614 OFFCURVE",
"780 649 OFFCURVE",
"716 666 CURVE",
"708 664 OFFCURVE",
"704 676 OFFCURVE",
"679 669 CURVE SMOOTH",
"631 655 OFFCURVE",
"584 625 OFFCURVE",
"563 578 CURVE SMOOTH",
"561 574 OFFCURVE",
"560 570 OFFCURVE",
"560 566 CURVE",
"533 524 OFFCURVE",
"507 481 OFFCURVE",
"486 435 CURVE SMOOTH",
"484 431 OFFCURVE",
"482 428 OFFCURVE",
"480 424 CURVE",
"444 416 OFFCURVE",
"389 386 OFFCURVE",
"356 368 CURVE",
"357 368 LINE",
"345 361 LINE",
"335 359 OFFCURVE",
"324 353 OFFCURVE",
"315 348 CURVE",
"338 415 OFFCURVE",
"381 533 OFFCURVE",
"414 593 CURVE SMOOTH",
"423 610 OFFCURVE",
"428 632 OFFCURVE",
"424 651 CURVE SMOOTH",
"420 674 OFFCURVE",
"382 691 OFFCURVE",
"361 689 CURVE SMOOTH",
"340 687 OFFCURVE",
"334 681 OFFCURVE",
"327 662 CURVE SMOOTH",
"294 578 OFFCURVE",
"264 493 OFFCURVE",
"233 408 CURVE SMOOTH",
"218 367 OFFCURVE",
"204 312 OFFCURVE",
"184 275 CURVE",
"160 257 OFFCURVE",
"144 236 OFFCURVE",
"139 206 CURVE",
"139 207 LINE",
"133 181 OFFCURVE",
"117 26 OFFCURVE",
"119 5 CURVE SMOOTH",
"123 -38 OFFCURVE",
"140 -51 OFFCURVE",
"182 -54 CURVE",
"220 -28 OFFCURVE",
"232 29 OFFCURVE",
"230 72 CURVE",
"240 85 OFFCURVE",
"231 98 OFFCURVE",
"243 116 CURVE",
"244 129 OFFCURVE",
"265 209 OFFCURVE",
"272 215 CURVE SMOOTH",
"282 225 OFFCURVE",
"327 248 OFFCURVE",
"341 254 CURVE SMOOTH",
"376 270 OFFCURVE",
"405 295 OFFCURVE",
"438 313 CURVE",
"427 279 OFFCURVE",
"408 221 OFFCURVE",
"409 186 CURVE",
"398 159 OFFCURVE",
"404 91 OFFCURVE",
"395 76 CURVE",
"388 28 OFFCURVE",
"400 -41 OFFCURVE",
"451 -61 CURVE SMOOTH",
"526 -91 OFFCURVE",
"658 -23 OFFCURVE",
"697 40 CURVE"
);
},
{
closed = 1;
nodes = (
"500 68 OFFCURVE",
"502 82 OFFCURVE",
"504 96 CURVE SMOOTH",
"513 155 OFFCURVE",
"510 196 OFFCURVE",
"535 255 CURVE",
"535 296 OFFCURVE",
"608 444 OFFCURVE",
"633 481 CURVE SMOOTH",
"653 510 OFFCURVE",
"674 537 OFFCURVE",
"688 570 CURVE",
"758 609 OFFCURVE",
"750 458 OFFCURVE",
"749 426 CURVE",
"748 431 OFFCURVE",
"748 427 OFFCURVE",
"747 422 CURVE SMOOTH",
"746 410 LINE",
"744 399 OFFCURVE",
"746 383 OFFCURVE",
"740 373 CURVE",
"732 318 OFFCURVE",
"706 248 OFFCURVE",
"677 201 CURVE SMOOTH",
"664 180 OFFCURVE",
"645 155 OFFCURVE",
"637 132 CURVE",
"631 127 LINE",
"631 128 LINE",
"620 119 OFFCURVE",
"611 108 OFFCURVE",
"608 94 CURVE",
"579 69 OFFCURVE",
"542 29 OFFCURVE",
"500 27 CURVE",
"499 34 OFFCURVE",
"498 48 OFFCURVE",
"501 54 CURVE"
);
}
);
width = 858;
}
);
},
{
color = 7;
glyphname = "Ia-cy.ss02";
lastChange = "2017-12-15 09:51:13 +0000";
layers = (
{
layerId = UUID0;
paths = (
{
closed = 1;
nodes = (
"413 -21 OFFCURVE",
"435 -34 OFFCURVE",
"468 -35 CURVE",
"476 -44 OFFCURVE",
"484 -37 OFFCURVE",
"491 -32 CURVE SMOOTH",
"504 -22 OFFCURVE",
"523 108 OFFCURVE",
"529 132 CURVE SMOOTH",
"535 158 OFFCURVE",
"542 183 OFFCURVE",
"548 209 CURVE SMOOTH",
"580 353 OFFCURVE",
"634 496 OFFCURVE",
"703 626 CURVE",
"698 643 LINE",
"698 639 LINE",
"696 659 LINE",
"685 672 OFFCURVE",
"675 684 OFFCURVE",
"658 685 CURVE",
"637 698 OFFCURVE",
"633 702 OFFCURVE",
"612 686 CURVE",
"588 692 OFFCURVE",
"564 686 OFFCURVE",
"540 694 CURVE",
"521 688 OFFCURVE",
"501 692 OFFCURVE",
"482 688 CURVE SMOOTH",
"457 682 OFFCURVE",
"429 680 OFFCURVE",
"405 672 CURVE",
"406 672 LINE",
"360 661 OFFCURVE",
"332 643 OFFCURVE",
"297 613 CURVE",
"285 590 OFFCURVE",
"265 572 OFFCURVE",
"254 548 CURVE SMOOTH",
"211 459 OFFCURVE",
"221 365 OFFCURVE",
"295 297 CURVE SMOOTH",
"306 287 OFFCURVE",
"314 278 OFFCURVE",
"328 272 CURVE",
"281 240 OFFCURVE",
"240 197 OFFCURVE",
"201 156 CURVE SMOOTH",
"183 137 OFFCURVE",
"169 114 OFFCURVE",
"151 96 CURVE SMOOTH",
"125 69 OFFCURVE",
"74 10 OFFCURVE",
"85 -30 CURVE SMOOTH",
"93 -60 OFFCURVE",
"123 -75 OFFCURVE",
"152 -79 CURVE",
"160 -75 OFFCURVE",
"168 -71 OFFCURVE",
"176 -68 CURVE",
"179 -59 OFFCURVE",
"179 -48 OFFCURVE",
"182 -40 CURVE SMOOTH",
"205 22 OFFCURVE",
"274 86 OFFCURVE",
"320 133 CURVE SMOOTH",
"339 153 OFFCURVE",
"362 169 OFFCURVE",
"382 188 CURVE SMOOTH",
"391 197 OFFCURVE",
"405 202 OFFCURVE",
"416 211 CURVE SMOOTH",
"415 210 LINE SMOOTH",
"426 219 OFFCURVE",
"439 225 OFFCURVE",
"452 231 CURVE",
"449 213 OFFCURVE",
"446 187 OFFCURVE",
"438 170 CURVE SMOOTH",
"435 163 OFFCURVE",
"432 160 OFFCURVE",
"431 153 CURVE SMOOTH",
"423 106 OFFCURVE",
"419 58 OFFCURVE",
"403 12 CURVE"
);
},
{
closed = 1;
nodes = (
"465 371 OFFCURVE",
"435 333 OFFCURVE",
"400 333 CURVE SMOOTH",
"373 333 OFFCURVE",
"357 353 OFFCURVE",
"343 373 CURVE SMOOTH",
"310 421 OFFCURVE",
"334 480 OFFCURVE",
"361 525 CURVE SMOOTH",
"389 570 OFFCURVE",
"419 568 OFFCURVE",
"461 588 CURVE",
"473 588 OFFCURVE",
"485 590 OFFCURVE",
"497 592 CURVE SMOOTH",
"530 596 LINE SMOOTH",
"534 597 OFFCURVE",
"538 597 OFFCURVE",
"542 598 CURVE SMOOTH",
"544 599 LINE",
"545 599 OFFCURVE",
"546 600 OFFCURVE",
"545 600 CURVE",
"562 599 LINE",
"574 600 LINE",
"537 526 OFFCURVE",
"514 444 OFFCURVE",
"488 365 CURVE"
);
}
);
width = 713;
},
{
layerId = "BF4C3430-0F48-4C30-8275-6D85863A5F93";
paths = (
{
closed = 1;
nodes = (
"413 -21 OFFCURVE",
"435 -34 OFFCURVE",
"468 -35 CURVE",
"476 -44 OFFCURVE",
"484 -37 OFFCURVE",
"491 -32 CURVE SMOOTH",
"504 -22 OFFCURVE",
"523 108 OFFCURVE",
"529 132 CURVE SMOOTH",
"535 158 OFFCURVE",
"542 183 OFFCURVE",
"548 209 CURVE SMOOTH",
"580 353 OFFCURVE",
"634 496 OFFCURVE",
"703 626 CURVE",
"698 643 LINE",
"698 639 LINE",
"696 659 LINE",
"685 672 OFFCURVE",
"675 684 OFFCURVE",
"658 685 CURVE",
"637 698 OFFCURVE",
"633 702 OFFCURVE",
"612 686 CURVE",
"588 692 OFFCURVE",
"564 686 OFFCURVE",
"540 694 CURVE",
"521 688 OFFCURVE",
"501 692 OFFCURVE",
"482 688 CURVE SMOOTH",
"457 682 OFFCURVE",
"429 680 OFFCURVE",
"405 672 CURVE",
"406 672 LINE",
"360 661 OFFCURVE",
"332 643 OFFCURVE",
"297 613 CURVE",
"285 590 OFFCURVE",
"265 572 OFFCURVE",
"254 548 CURVE SMOOTH",
"211 459 OFFCURVE",
"221 365 OFFCURVE",
"295 297 CURVE SMOOTH",
"306 287 OFFCURVE",
"314 278 OFFCURVE",
"328 272 CURVE",
"281 240 OFFCURVE",
"240 197 OFFCURVE",
"201 156 CURVE SMOOTH",
"183 137 OFFCURVE",
"169 114 OFFCURVE",
"151 96 CURVE SMOOTH",
"125 69 OFFCURVE",
"74 10 OFFCURVE",
"85 -30 CURVE SMOOTH",
"93 -60 OFFCURVE",
"123 -75 OFFCURVE",
"152 -79 CURVE",
"160 -75 OFFCURVE",
"168 -71 OFFCURVE",
"176 -68 CURVE",
"179 -59 OFFCURVE",
"179 -48 OFFCURVE",
"182 -40 CURVE SMOOTH",
"205 22 OFFCURVE",
"274 86 OFFCURVE",
"320 133 CURVE SMOOTH",
"339 153 OFFCURVE",
"362 169 OFFCURVE",
"382 188 CURVE SMOOTH",
"391 197 OFFCURVE",
"405 202 OFFCURVE",
"416 211 CURVE SMOOTH",
"415 210 LINE SMOOTH",
"426 219 OFFCURVE",
"439 225 OFFCURVE",
"452 231 CURVE",
"449 213 OFFCURVE",
"446 187 OFFCURVE",
"438 170 CURVE SMOOTH",
"435 163 OFFCURVE",
"432 160 OFFCURVE",
"431 153 CURVE SMOOTH",
"423 106 OFFCURVE",
"419 58 OFFCURVE",
"403 12 CURVE"
);
},
{
closed = 1;
nodes = (
"465 371 OFFCURVE",
"435 333 OFFCURVE",
"400 333 CURVE SMOOTH",
"373 333 OFFCURVE",
"357 353 OFFCURVE",
"343 373 CURVE SMOOTH",
"310 421 OFFCURVE",
"334 480 OFFCURVE",
"361 525 CURVE SMOOTH",
"389 570 OFFCURVE",
"419 568 OFFCURVE",
"461 588 CURVE",
"473 588 OFFCURVE",
"485 590 OFFCURVE",
"497 592 CURVE SMOOTH",
"530 596 LINE SMOOTH",
"534 597 OFFCURVE",
"538 597 OFFCURVE",
"542 598 CURVE SMOOTH",
"544 599 LINE",
"545 599 OFFCURVE",
"546 600 OFFCURVE",
"545 600 CURVE",
"562 599 LINE",
"574 600 LINE",
"537 526 OFFCURVE",
"514 444 OFFCURVE",
"488 365 CURVE"
);
}
);
width = 713;
}
);
},
{
color = 9;
glyphname = "be-cy.ss01";
lastChange = "2017-12-15 09:51:13 +0000";
layers = (
{
layerId = UUID0;
paths = (
{
closed = 1;
nodes = (
"436 603 OFFCURVE",
"432 616 OFFCURVE",
"395 621 CURVE SMOOTH",
"378 623 OFFCURVE",
"360 624 OFFCURVE",
"343 622 CURVE SMOOTH",
"293 615 OFFCURVE",
"250 602 OFFCURVE",
"204 581 CURVE SMOOTH",
"184 572 OFFCURVE",
"178 548 OFFCURVE",
"188 529 CURVE SMOOTH",
"196 515 OFFCURVE",
"209 505 OFFCURVE",
"218 492 CURVE",
"218 493 LINE",
"233 474 OFFCURVE",
"255 431 OFFCURVE",
"261 408 CURVE",
"251 409 OFFCURVE",
"242 408 OFFCURVE",
"232 407 CURVE",
"154 362 OFFCURVE",
"87 196 OFFCURVE",
"87 109 CURVE SMOOTH",
"87 44 OFFCURVE",
"121 -12 OFFCURVE",
"191 -14 CURVE SMOOTH",
"239 -15 OFFCURVE",
"285 68 OFFCURVE",
"303 106 CURVE",
"310 106 LINE",
"335 180 LINE",
"335 179 LINE",
"351 216 OFFCURVE",
"344 222 OFFCURVE",
"351 255 CURVE SMOOTH",
"354 272 OFFCURVE",
"362 282 OFFCURVE",
"358 300 CURVE",
"365 327 OFFCURVE",
"352 357 OFFCURVE",
"347 383 CURVE SMOOTH",
"343 401 OFFCURVE",
"332 431 OFFCURVE",
"332 447 CURVE",
"329 448 LINE",
"329 464 OFFCURVE",
"297 507 OFFCURVE",
"287 522 CURVE",
"303 524 OFFCURVE",
"314 531 OFFCURVE",
"331 531 CURVE SMOOTH",
"366 531 OFFCURVE",
"395 520 OFFCURVE",
"428 515 CURVE",
"447 527 OFFCURVE",
"451 554 OFFCURVE",
"454 574 CURVE"
);
},
{
closed = 1;
nodes = (
"234 162 OFFCURVE",
"226 148 OFFCURVE",
"219 133 CURVE",
"219 132 LINE",
"209 112 OFFCURVE",
"198 94 OFFCURVE",
"184 76 CURVE",
"179 81 LINE",
"166 137 OFFCURVE",
"208 250 OFFCURVE",
"246 290 CURVE SMOOTH",
"255 299 OFFCURVE",
"262 309 OFFCURVE",
"268 320 CURVE",
"281 267 OFFCURVE",
"253 225 OFFCURVE",
"243 176 CURVE"
);
}
);
width = 464;
},
{
layerId = "BF4C3430-0F48-4C30-8275-6D85863A5F93";
paths = (
{
closed = 1;
nodes = (
"436 603 OFFCURVE",
"432 616 OFFCURVE",
"395 621 CURVE SMOOTH",
"378 623 OFFCURVE",
"360 624 OFFCURVE",
"343 622 CURVE SMOOTH",
"293 615 OFFCURVE",
"250 602 OFFCURVE",
"204 581 CURVE SMOOTH",
"184 572 OFFCURVE",
"178 548 OFFCURVE",
"188 529 CURVE SMOOTH",
"196 515 OFFCURVE",
"209 505 OFFCURVE",
"218 492 CURVE",
"218 493 LINE",
"233 474 OFFCURVE",
"255 431 OFFCURVE",
"261 408 CURVE",
"251 409 OFFCURVE",
"242 408 OFFCURVE",
"232 407 CURVE",
"154 362 OFFCURVE",
"87 196 OFFCURVE",
"87 109 CURVE SMOOTH",
"87 44 OFFCURVE",
"121 -12 OFFCURVE",
"191 -14 CURVE SMOOTH",
"239 -15 OFFCURVE",
"285 68 OFFCURVE",
"303 106 CURVE",
"310 106 LINE",
"335 180 LINE",
"335 179 LINE",
"351 216 OFFCURVE",
"344 222 OFFCURVE",
"351 255 CURVE SMOOTH",
"354 272 OFFCURVE",
"362 282 OFFCURVE",
"358 300 CURVE",
"365 327 OFFCURVE",
"352 357 OFFCURVE",
"347 383 CURVE SMOOTH",
"343 401 OFFCURVE",
"332 431 OFFCURVE",
"332 447 CURVE",
"329 448 LINE",
"329 464 OFFCURVE",
"297 507 OFFCURVE",
"287 522 CURVE",
"303 524 OFFCURVE",
"314 531 OFFCURVE",
"331 531 CURVE SMOOTH",
"366 531 OFFCURVE",
"395 520 OFFCURVE",
"428 515 CURVE",
"447 527 OFFCURVE",
"451 554 OFFCURVE",
"454 574 CURVE"
);
},
{
closed = 1;
nodes = (
"234 162 OFFCURVE",
"226 148 OFFCURVE",
"219 133 CURVE",
"219 132 LINE",
"209 112 OFFCURVE",
"198 94 OFFCURVE",
"184 76 CURVE",
"179 81 LINE",
"166 137 OFFCURVE",
"208 250 OFFCURVE",
"246 290 CURVE SMOOTH",
"255 299 OFFCURVE",
"262 309 OFFCURVE",
"268 320 CURVE",
"281 267 OFFCURVE",
"253 225 OFFCURVE",
"243 176 CURVE"
);
}
);
width = 464;
}
);
},
{
color = 9;
glyphname = "ve-cy.ss01";
lastChange = "2017-12-15 09:51:13 +0000";
layers = (
{
layerId = UUID0;
paths = (
{
closed = 1;
nodes = (
"211 0 LINE",
"205 -4 LINE",
"256 6 OFFCURVE",
"288 20 OFFCURVE",
"315 67 CURVE SMOOTH",
"314 66 LINE SMOOTH",
"338 113 OFFCURVE",
"340 155 OFFCURVE",
"336 207 CURVE SMOOTH",
"333 247 OFFCURVE",
"341 279 OFFCURVE",
"304 306 CURVE",
"385 372 OFFCURVE",
"410 399 OFFCURVE",
"455 495 CURVE",
"455 503 OFFCURVE",
"459 510 OFFCURVE",
"461 517 CURVE",
"461 516 LINE",
"464 526 OFFCURVE",
"468 535 OFFCURVE",
"468 546 CURVE",
"475 559 OFFCURVE",
"473 571 OFFCURVE",
"473 585 CURVE SMOOTH",
"473 615 OFFCURVE",
"446 640 OFFCURVE",
"422 654 CURVE",
"392 653 OFFCURVE",
"377 652 OFFCURVE",
"350 636 CURVE SMOOTH",
"351 637 LINE SMOOTH",
"311 611 OFFCURVE",
"261 553 OFFCURVE",
"242 509 CURVE",
"242 511 LINE",
"224 477 OFFCURVE",
"206 449 OFFCURVE",
"194 412 CURVE SMOOTH",
"187 389 OFFCURVE",
"178 359 OFFCURVE",
"165 339 CURVE SMOOTH",
"164 338 LINE",
"156 339 LINE",
"128 325 OFFCURVE",
"126 312 OFFCURVE",
"122 284 CURVE",
"128 278 OFFCURVE",
"135 269 OFFCURVE",
"142 265 CURVE",
"138 230 OFFCURVE",
"117 170 OFFCURVE",
"125 138 CURVE",
"120 130 OFFCURVE",
"122 124 OFFCURVE",
"125 116 CURVE",
"116 110 LINE",
"120 105 OFFCURVE",
"128 97 OFFCURVE",
"128 90 CURVE SMOOTH",
"128 56 OFFCURVE",
"151 41 OFFCURVE",
"157 9 CURVE",
"174 6 OFFCURVE",
"176 9 OFFCURVE",
"189 -2 CURVE",
"211 0 LINE"
);
},
{
closed = 1;
nodes = (
"217 88 LINE",
"203 114 OFFCURVE",
"211 253 OFFCURVE",
"237 273 CURVE",
"241 267 OFFCURVE",
"244 260 OFFCURVE",
"246 253 CURVE SMOOTH",
"245 254 LINE",
"246 246 OFFCURVE",
"247 236 OFFCURVE",
"249 228 CURVE",
"250 227 LINE",
"250 176 OFFCURVE",
"255 128 OFFCURVE",
"218 88 CURVE",
"217 88 LINE"
);
},
{
closed = 1;
nodes = (
"373 533 OFFCURVE",
"355 481 OFFCURVE",
"336 465 CURVE",
"318 428 OFFCURVE",
"300 413 OFFCURVE",
"269 389 CURVE",
"294 455 OFFCURVE",
"332 505 OFFCURVE",
"379 557 CURVE"
);
}
);
width = 484;
},
{
layerId = "BF4C3430-0F48-4C30-8275-6D85863A5F93";
paths = (
{
closed = 1;
nodes = (
"211 0 LINE",
"205 -4 LINE",
"256 6 OFFCURVE",
"288 20 OFFCURVE",
"315 67 CURVE SMOOTH",
"314 66 LINE SMOOTH",
"338 113 OFFCURVE",
"340 155 OFFCURVE",
"336 207 CURVE SMOOTH",
"333 247 OFFCURVE",
"341 279 OFFCURVE",
"304 306 CURVE",
"385 372 OFFCURVE",
"410 399 OFFCURVE",
"455 495 CURVE",
"455 503 OFFCURVE",
"459 510 OFFCURVE",
"461 517 CURVE",
"461 516 LINE",
"464 526 OFFCURVE",
"468 535 OFFCURVE",
"468 546 CURVE",
"475 559 OFFCURVE",
"473 571 OFFCURVE",
"473 585 CURVE SMOOTH",
"473 615 OFFCURVE",
"446 640 OFFCURVE",
"422 654 CURVE",
"392 653 OFFCURVE",
"377 652 OFFCURVE",
"350 636 CURVE SMOOTH",
"351 637 LINE SMOOTH",
"311 611 OFFCURVE",
"261 553 OFFCURVE",
"242 509 CURVE",
"242 511 LINE",
"224 477 OFFCURVE",
"206 449 OFFCURVE",
"194 412 CURVE SMOOTH",
"187 389 OFFCURVE",
"178 359 OFFCURVE",
"165 339 CURVE SMOOTH",
"164 338 LINE",
"156 339 LINE",
"128 325 OFFCURVE",
"126 312 OFFCURVE",
"122 284 CURVE",
"128 278 OFFCURVE",
"135 269 OFFCURVE",
"142 265 CURVE",
"138 230 OFFCURVE",
"117 170 OFFCURVE",
"125 138 CURVE",
"120 130 OFFCURVE",
"122 124 OFFCURVE",
"125 116 CURVE",
"116 110 LINE",
"120 105 OFFCURVE",
"128 97 OFFCURVE",
"128 90 CURVE SMOOTH",
"128 56 OFFCURVE",
"151 41 OFFCURVE",
"157 9 CURVE",
"174 6 OFFCURVE",
"176 9 OFFCURVE",
"189 -2 CURVE",
"211 0 LINE"
);
},
{
closed = 1;
nodes = (
"217 88 LINE",
"203 114 OFFCURVE",
"211 253 OFFCURVE",
"237 273 CURVE",
"241 267 OFFCURVE",
"244 260 OFFCURVE",
"246 253 CURVE SMOOTH",
"245 254 LINE",
"246 246 OFFCURVE",
"247 236 OFFCURVE",
"249 228 CURVE",
"250 227 LINE",
"250 176 OFFCURVE",
"255 128 OFFCURVE",
"218 88 CURVE",
"217 88 LINE"
);
},
{
closed = 1;
nodes = (
"373 533 OFFCURVE",
"355 481 OFFCURVE",
"336 465 CURVE",
"318 428 OFFCURVE",
"300 413 OFFCURVE",
"269 389 CURVE",
"294 455 OFFCURVE",
"332 505 OFFCURVE",
"379 557 CURVE"
);
}
);
width = 484;
}
);
},
{
color = 9;
glyphname = "ge-cy.ss01";
lastChange = "2017-12-15 09:51:13 +0000";
layers = (
{
layerId = UUID0;
paths = (
{
closed = 1;
nodes = (
"161 350 LINE SMOOTH",
"148 313 OFFCURVE",
"142 271 OFFCURVE",
"135 232 CURVE SMOOTH",
"126 183 OFFCURVE",
"113 137 OFFCURVE",
"94 91 CURVE SMOOTH",
"91 85 OFFCURVE",
"80 29 OFFCURVE",
"81 26 CURVE SMOOTH",
"92 -4 OFFCURVE",
"133 -16 OFFCURVE",
"163 -8 CURVE",
"187 26 OFFCURVE",
"189 107 OFFCURVE",
"204 148 CURVE",
"204 147 LINE",
"207 157 OFFCURVE",
"208 168 OFFCURVE",
"213 177 CURVE SMOOTH",
"229 208 OFFCURVE",
"235 248 OFFCURVE",
"244 282 CURVE",
"243 281 LINE SMOOTH",
"247 292 OFFCURVE",
"250 304 OFFCURVE",
"251 316 CURVE",
"298 322 OFFCURVE",
"346 323 OFFCURVE",
"394 323 CURVE SMOOTH",
"420 323 OFFCURVE",
"430 344 OFFCURVE",
"433 367 CURVE",
"417 390 OFFCURVE",
"414 395 OFFCURVE",
"390 410 CURVE",
"360 414 OFFCURVE",
"328 407 OFFCURVE",
"298 415 CURVE",
"290 405 OFFCURVE",
"270 413 OFFCURVE",
"258 409 CURVE",
"230 411 OFFCURVE",
"194 393 OFFCURVE",
"172 376 CURVE",
"167 369 OFFCURVE",
"157 351 OFFCURVE",
"158 343 CURVE"
);
}
);
width = 443;
},
{
layerId = "BF4C3430-0F48-4C30-8275-6D85863A5F93";
paths = (
{
closed = 1;
nodes = (
"161 350 LINE SMOOTH",
"148 313 OFFCURVE",
"142 271 OFFCURVE",
"135 232 CURVE SMOOTH",
"126 183 OFFCURVE",
"113 137 OFFCURVE",
"94 91 CURVE SMOOTH",
"91 85 OFFCURVE",
"80 29 OFFCURVE",
"81 26 CURVE SMOOTH",
"92 -4 OFFCURVE",
"133 -16 OFFCURVE",
"163 -8 CURVE",
"187 26 OFFCURVE",
"189 107 OFFCURVE",
"204 148 CURVE",
"204 147 LINE",
"207 157 OFFCURVE",
"208 168 OFFCURVE",
"213 177 CURVE SMOOTH",
"229 208 OFFCURVE",
"235 248 OFFCURVE",
"244 282 CURVE",
"243 281 LINE SMOOTH",
"247 292 OFFCURVE",
"250 304 OFFCURVE",
"251 316 CURVE",
"298 322 OFFCURVE",
"346 323 OFFCURVE",
"394 323 CURVE SMOOTH",
"420 323 OFFCURVE",
"430 344 OFFCURVE",
"433 367 CURVE",
"417 390 OFFCURVE",
"414 395 OFFCURVE",
"390 410 CURVE",
"360 414 OFFCURVE",
"328 407 OFFCURVE",
"298 415 CURVE",
"290 405 OFFCURVE",
"270 413 OFFCURVE",
"258 409 CURVE",
"230 411 OFFCURVE",
"194 393 OFFCURVE",
"172 376 CURVE",
"167 369 OFFCURVE",
"157 351 OFFCURVE",
"158 343 CURVE"
);
}
);
width = 443;
}
);
},
{
color = 9;
glyphname = "de-cy.ss01";
lastChange = "2017-12-15 09:51:13 +0000";
layers = (
{
layerId = UUID0;
paths = (
{
closed = 1;
nodes = (
"100 70 LINE",
"114 32 OFFCURVE",
"145 16 OFFCURVE",
"176 -8 CURVE",
"234 -6 OFFCURVE",
"290 25 OFFCURVE",
"320 76 CURVE SMOOTH",
"369 159 OFFCURVE",
"408 266 OFFCURVE",
"424 361 CURVE SMOOTH",
"428 386 OFFCURVE",
"417 470 OFFCURVE",
"408 493 CURVE SMOOTH",
"402 507 OFFCURVE",
"394 523 OFFCURVE",
"387 537 CURVE SMOOTH",
"366 581 OFFCURVE",
"322 621 OFFCURVE",
"272 629 CURVE SMOOTH",
"250 633 OFFCURVE",
"230 640 OFFCURVE",
"207 635 CURVE",
"198 638 OFFCURVE",
"194 635 OFFCURVE",
"186 631 CURVE",
"182 631 OFFCURVE",
"177 632 OFFCURVE",
"173 633 CURVE",
"132 604 OFFCURVE",
"87 600 OFFCURVE",
"141 542 CURVE SMOOTH",
"151 532 OFFCURVE",
"177 535 OFFCURVE",
"189 537 CURVE",
"227 565 OFFCURVE",
"318 541 OFFCURVE",
"312 489 CURVE",
"326 473 OFFCURVE",
"319 452 OFFCURVE",
"330 439 CURVE",
"332 432 OFFCURVE",
"334 421 OFFCURVE",
"331 414 CURVE",
"331 405 OFFCURVE",
"336 393 OFFCURVE",
"336 387 CURVE",
"316 391 OFFCURVE",
"303 388 OFFCURVE",
"284 382 CURVE SMOOTH",
"285 383 LINE",
"246 371 OFFCURVE",
"199 349 OFFCURVE",
"177 312 CURVE",
"171 307 OFFCURVE",
"165 301 OFFCURVE",
"160 295 CURVE SMOOTH",
"103 230 OFFCURVE",
"102 189 OFFCURVE",
"89 107 CURVE",
"104 96 OFFCURVE",
"94 82 OFFCURVE",
"100 69 CURVE",
"100 70 LINE"
);
},
{
closed = 1;
nodes = (
"174 95 OFFCURVE",
"174 103 OFFCURVE",
"180 115 CURVE",
"182 144 OFFCURVE",
"198 168 OFFCURVE",
"202 196 CURVE",
"230 246 OFFCURVE",
"269 283 OFFCURVE",
"322 305 CURVE",
"323 286 OFFCURVE",
"315 263 OFFCURVE",
"306 246 CURVE",
"306 248 LINE",
"299 238 OFFCURVE",
"292 215 OFFCURVE",
"288 203 CURVE",
"288 204 LINE",
"275 171 OFFCURVE",
"234 106 OFFCURVE",
"205 84 CURVE",
"202 78 OFFCURVE",
"195 77 OFFCURVE",
"189 74 CURVE",
"184 75 OFFCURVE",
"180 78 OFFCURVE",
"177 82 CURVE"
);
},
{
closed = 1;
nodes = (
"189 73 LINE",
"188 74 OFFCURVE",
"188 74 OFFCURVE",
"187 74 CURVE",
"189 74 LINE",
"189 73 LINE"
);
}
);
width = 436;
},
{
layerId = "BF4C3430-0F48-4C30-8275-6D85863A5F93";
paths = (
{
closed = 1;
nodes = (
"100 70 LINE",
"114 32 OFFCURVE",
"145 16 OFFCURVE",
"176 -8 CURVE",
"234 -6 OFFCURVE",
"290 25 OFFCURVE",
"320 76 CURVE SMOOTH",
"369 159 OFFCURVE",
"408 266 OFFCURVE",
"424 361 CURVE SMOOTH",
"428 386 OFFCURVE",
"417 470 OFFCURVE",
"408 493 CURVE SMOOTH",
"402 507 OFFCURVE",
"394 523 OFFCURVE",
"387 537 CURVE SMOOTH",
"366 581 OFFCURVE",
"322 621 OFFCURVE",
"272 629 CURVE SMOOTH",
"250 633 OFFCURVE",
"230 640 OFFCURVE",
"207 635 CURVE",
"198 638 OFFCURVE",
"194 635 OFFCURVE",
"186 631 CURVE",
"182 631 OFFCURVE",
"177 632 OFFCURVE",
"173 633 CURVE",
"132 604 OFFCURVE",
"87 600 OFFCURVE",
"141 542 CURVE SMOOTH",
"151 532 OFFCURVE",
"177 535 OFFCURVE",
"189 537 CURVE",
"227 565 OFFCURVE",
"318 541 OFFCURVE",
"312 489 CURVE",
"326 473 OFFCURVE",
"319 452 OFFCURVE",
"330 439 CURVE",
"332 432 OFFCURVE",
"334 421 OFFCURVE",
"331 414 CURVE",
"331 405 OFFCURVE",
"336 393 OFFCURVE",
"336 387 CURVE",
"316 391 OFFCURVE",
"303 388 OFFCURVE",
"284 382 CURVE SMOOTH",
"285 383 LINE",
"246 371 OFFCURVE",
"199 349 OFFCURVE",
"177 312 CURVE",
"171 307 OFFCURVE",
"165 301 OFFCURVE",
"160 295 CURVE SMOOTH",
"103 230 OFFCURVE",
"102 189 OFFCURVE",
"89 107 CURVE",
"104 96 OFFCURVE",
"94 82 OFFCURVE",
"100 69 CURVE",
"100 70 LINE"
);
},
{
closed = 1;
nodes = (
"174 95 OFFCURVE",
"174 103 OFFCURVE",
"180 115 CURVE",
"182 144 OFFCURVE",
"198 168 OFFCURVE",
"202 196 CURVE",
"230 246 OFFCURVE",
"269 283 OFFCURVE",
"322 305 CURVE",
"323 286 OFFCURVE",
"315 263 OFFCURVE",
"306 246 CURVE",
"306 248 LINE",
"299 238 OFFCURVE",
"292 215 OFFCURVE",
"288 203 CURVE",
"288 204 LINE",
"275 171 OFFCURVE",
"234 106 OFFCURVE",
"205 84 CURVE",
"202 78 OFFCURVE",
"195 77 OFFCURVE",
"189 74 CURVE",
"184 75 OFFCURVE",
"180 78 OFFCURVE",
"177 82 CURVE"
);
},
{
closed = 1;
nodes = (
"189 73 LINE",
"188 74 OFFCURVE",
"188 74 OFFCURVE",
"187 74 CURVE",
"189 74 LINE",
"189 73 LINE"
);
}
);
width = 436;
}
);
},
{
color = 9;
glyphname = "zhe-cy.ss01";
lastChange = "2017-12-15 09:51:13 +0000";
layers = (
{
layerId = UUID0;
paths = (
{
closed = 1;
nodes = (
"439 56 LINE",
"453 39 OFFCURVE",
"467 22 OFFCURVE",
"484 8 CURVE SMOOTH",
"520 -21 OFFCURVE",
"588 19 OFFCURVE",
"553 69 CURVE SMOOTH",
"529 102 OFFCURVE",
"477 149 OFFCURVE",
"444 173 CURVE",
"458 188 OFFCURVE",
"480 195 OFFCURVE",
"496 208 CURVE SMOOTH",
"535 240 OFFCURVE",
"578 269 OFFCURVE",
"613 306 CURVE SMOOTH",
"624 317 OFFCURVE",
"626 330 OFFCURVE",
"628 345 CURVE",
"618 360 OFFCURVE",
"606 374 OFFCURVE",
"591 384 CURVE",
"561 386 LINE",
"535 349 OFFCURVE",
"499 321 OFFCURVE",
"464 293 CURVE",
"464 294 LINE",
"440 275 OFFCURVE",
"417 255 OFFCURVE",
"391 238 CURVE",
"402 289 OFFCURVE",
"417 335 OFFCURVE",
"417 388 CURVE",
"391 401 OFFCURVE",
"385 413 OFFCURVE",
"354 421 CURVE",
"330 396 LINE",
"326 353 OFFCURVE",
"316 307 OFFCURVE",
"303 266 CURVE",
"250 319 OFFCURVE",
"251 402 OFFCURVE",
"155 400 CURVE",
"151 389 OFFCURVE",
"147 380 OFFCURVE",
"141 370 CURVE",
"148 353 OFFCURVE",
"153 334 OFFCURVE",
"163 319 CURVE SMOOTH",
"183 287 OFFCURVE",
"213 255 OFFCURVE",
"228 221 CURVE",
"204 196 OFFCURVE",
"95 101 OFFCURVE",
"68 90 CURVE",
"58 64 OFFCURVE",
"16 54 OFFCURVE",
"38 18 CURVE SMOOTH",
"46 5 OFFCURVE",
"66 -5 OFFCURVE",
"72 -15 CURVE",
"72 -15 LINE",
"73 -16 LINE",
"77 -17 LINE",
"95 -22 LINE",
"123 0 OFFCURVE",
"143 28 OFFCURVE",
"168 53 CURVE SMOOTH",
"176 61 OFFCURVE",
"187 69 OFFCURVE",
"196 76 CURVE SMOOTH",
"219 97 OFFCURVE",
"242 119 OFFCURVE",
"265 140 CURVE",
"265 139 LINE",
"262 136 OFFCURVE",
"260 130 OFFCURVE",
"259 126 CURVE SMOOTH",
"252 107 OFFCURVE",
"231 47 OFFCURVE",
"247 29 CURVE SMOOTH",
"258 17 OFFCURVE",
"274 8 OFFCURVE",
"288 -1 CURVE",
"314 9 OFFCURVE",
"332 23 OFFCURVE",
"337 52 CURVE SMOOTH",
"342 81 OFFCURVE",
"350 109 OFFCURVE",
"360 137 CURVE",
"388 112 OFFCURVE",
"414 84 OFFCURVE",
"440 56 CURVE"
);
}
);
width = 638;
},
{
layerId = "BF4C3430-0F48-4C30-8275-6D85863A5F93";
paths = (
{
closed = 1;
nodes = (
"439 56 LINE",
"453 39 OFFCURVE",
"467 22 OFFCURVE",
"484 8 CURVE SMOOTH",
"520 -21 OFFCURVE",
"588 19 OFFCURVE",
"553 69 CURVE SMOOTH",
"529 102 OFFCURVE",
"477 149 OFFCURVE",
"444 173 CURVE",
"458 188 OFFCURVE",
"480 195 OFFCURVE",
"496 208 CURVE SMOOTH",
"535 240 OFFCURVE",
"578 269 OFFCURVE",
"613 306 CURVE SMOOTH",
"624 317 OFFCURVE",
"626 330 OFFCURVE",
"628 345 CURVE",
"618 360 OFFCURVE",
"606 374 OFFCURVE",
"591 384 CURVE",
"561 386 LINE",
"535 349 OFFCURVE",
"499 321 OFFCURVE",
"464 293 CURVE",
"464 294 LINE",
"440 275 OFFCURVE",
"417 255 OFFCURVE",
"391 238 CURVE",
"402 289 OFFCURVE",
"417 335 OFFCURVE",
"417 388 CURVE",
"391 401 OFFCURVE",
"385 413 OFFCURVE",
"354 421 CURVE",
"330 396 LINE",
"326 353 OFFCURVE",
"316 307 OFFCURVE",
"303 266 CURVE",
"250 319 OFFCURVE",
"251 402 OFFCURVE",
"155 400 CURVE",
"151 389 OFFCURVE",
"147 380 OFFCURVE",
"141 370 CURVE",
"148 353 OFFCURVE",
"153 334 OFFCURVE",
"163 319 CURVE SMOOTH",
"183 287 OFFCURVE",
"213 255 OFFCURVE",
"228 221 CURVE",
"204 196 OFFCURVE",
"95 101 OFFCURVE",
"68 90 CURVE",
"58 64 OFFCURVE",
"16 54 OFFCURVE",
"38 18 CURVE SMOOTH",
"46 5 OFFCURVE",
"66 -5 OFFCURVE",
"72 -15 CURVE",
"72 -15 LINE",
"73 -16 LINE",
"77 -17 LINE",
"95 -22 LINE",
"123 0 OFFCURVE",
"143 28 OFFCURVE",
"168 53 CURVE SMOOTH",
"176 61 OFFCURVE",
"187 69 OFFCURVE",
"196 76 CURVE SMOOTH",
"219 97 OFFCURVE",
"242 119 OFFCURVE",
"265 140 CURVE",
"265 139 LINE",
"262 136 OFFCURVE",
"260 130 OFFCURVE",
"259 126 CURVE SMOOTH",
"252 107 OFFCURVE",
"231 47 OFFCURVE",
"247 29 CURVE SMOOTH",
"258 17 OFFCURVE",
"274 8 OFFCURVE",
"288 -1 CURVE",
"314 9 OFFCURVE",
"332 23 OFFCURVE",
"337 52 CURVE SMOOTH",
"342 81 OFFCURVE",
"350 109 OFFCURVE",
"360 137 CURVE",
"388 112 OFFCURVE",
"414 84 OFFCURVE",
"440 56 CURVE"
);
}
);
width = 638;
}
);
},
{
color = 9;
glyphname = "ze-cy.ss01";
lastChange = "2017-12-15 09:51:13 +0000";
layers = (
{
layerId = UUID0;
paths = (
{
closed = 1;
nodes = (
"-41 -177 OFFCURVE",
"-49 -191 OFFCURVE",
"-55 -206 CURVE",
"-49 -218 OFFCURVE",
"-46 -258 OFFCURVE",
"-34 -261 CURVE",
"-35 -259 LINE SMOOTH",
"-35 -261 OFFCURVE",
"-33 -263 OFFCURVE",
"-32 -265 CURVE SMOOTH",
"-34 -263 LINE",
"-34 -264 LINE",
"-26 -289 OFFCURVE",
"5 -315 OFFCURVE",
"28 -325 CURVE SMOOTH",
"41 -331 OFFCURVE",
"56 -329 OFFCURVE",
"69 -335 CURVE",
"98 -333 OFFCURVE",
"129 -325 OFFCURVE",
"152 -307 CURVE SMOOTH",
"233 -243 OFFCURVE",
"273 -101 OFFCURVE",
"280 -1 CURVE SMOOTH",
"283 36 OFFCURVE",
"271 69 OFFCURVE",
"264 104 CURVE",
"285 119 LINE",
"284 119 LINE",
"309 138 OFFCURVE",
"334 154 OFFCURVE",
"353 179 CURVE SMOOTH",
"460 315 OFFCURVE",
"354 463 OFFCURVE",
"213 369 CURVE SMOOTH",
"187 351 OFFCURVE",
"165 325 OFFCURVE",
"145 301 CURVE SMOOTH",
"133 286 OFFCURVE",
"129 266 OFFCURVE",
"116 250 CURVE",
"125 228 OFFCURVE",
"133 208 OFFCURVE",
"158 202 CURVE SMOOTH",
"162 201 LINE SMOOTH",
"166 200 OFFCURVE",
"167 200 OFFCURVE",
"166 201 CURVE",
"186 201 LINE",
"229 244 OFFCURVE",
"236 291 OFFCURVE",
"304 309 CURVE",
"305 309 LINE",
"312 243 OFFCURVE",
"230 183 OFFCURVE",
"176 163 CURVE",
"177 163 LINE",
"169 160 OFFCURVE",
"163 153 OFFCURVE",
"155 149 CURVE",
"156 106 LINE",
"167 95 OFFCURVE",
"173 81 OFFCURVE",
"181 68 CURVE",
"183 33 OFFCURVE",
"191 24 OFFCURVE",
"185 -14 CURVE SMOOTH",
"184 -23 OFFCURVE",
"172 -77 OFFCURVE",
"172 -79 CURVE SMOOTH",
"172 -99 OFFCURVE",
"151 -139 OFFCURVE",
"144 -157 CURVE SMOOTH",
"131 -191 OFFCURVE",
"109 -255 OFFCURVE",
"63 -252 CURVE SMOOTH",
"7 -249 OFFCURVE",
"40 -153 OFFCURVE",
"-8 -159 CURVE SMOOTH",
"-16 -160 OFFCURVE",
"-25 -162 OFFCURVE",
"-33 -163 CURVE"
);
},
{
closed = 1;
nodes = (
"-34 -261 LINE",
"-34 -263 LINE",
"-34 -261 LINE"
);
}
);
width = 407;
},
{
layerId = "BF4C3430-0F48-4C30-8275-6D85863A5F93";
paths = (
{
closed = 1;
nodes = (
"-41 -177 OFFCURVE",
"-49 -191 OFFCURVE",
"-55 -206 CURVE",
"-49 -218 OFFCURVE",
"-46 -258 OFFCURVE",
"-34 -261 CURVE",
"-35 -259 LINE SMOOTH",
"-35 -261 OFFCURVE",
"-33 -263 OFFCURVE",
"-32 -265 CURVE SMOOTH",
"-34 -263 LINE",
"-34 -264 LINE",
"-26 -289 OFFCURVE",
"5 -315 OFFCURVE",
"28 -325 CURVE SMOOTH",
"41 -331 OFFCURVE",
"56 -329 OFFCURVE",
"69 -335 CURVE",
"98 -333 OFFCURVE",
"129 -325 OFFCURVE",
"152 -307 CURVE SMOOTH",
"233 -243 OFFCURVE",
"273 -101 OFFCURVE",
"280 -1 CURVE SMOOTH",
"283 36 OFFCURVE",
"271 69 OFFCURVE",
"264 104 CURVE",
"285 119 LINE",
"284 119 LINE",
"309 138 OFFCURVE",
"334 154 OFFCURVE",
"353 179 CURVE SMOOTH",
"460 315 OFFCURVE",
"354 463 OFFCURVE",
"213 369 CURVE SMOOTH",
"187 351 OFFCURVE",
"165 325 OFFCURVE",
"145 301 CURVE SMOOTH",
"133 286 OFFCURVE",
"129 266 OFFCURVE",
"116 250 CURVE",
"125 228 OFFCURVE",
"133 208 OFFCURVE",
"158 202 CURVE SMOOTH",
"162 201 LINE SMOOTH",
"166 200 OFFCURVE",
"167 200 OFFCURVE",
"166 201 CURVE",
"186 201 LINE",
"229 244 OFFCURVE",
"236 291 OFFCURVE",
"304 309 CURVE",
"305 309 LINE",
"312 243 OFFCURVE",
"230 183 OFFCURVE",
"176 163 CURVE",
"177 163 LINE",
"169 160 OFFCURVE",
"163 153 OFFCURVE",
"155 149 CURVE",
"156 106 LINE",
"167 95 OFFCURVE",
"173 81 OFFCURVE",
"181 68 CURVE",
"183 33 OFFCURVE",
"191 24 OFFCURVE",
"185 -14 CURVE SMOOTH",
"184 -23 OFFCURVE",
"172 -77 OFFCURVE",
"172 -79 CURVE SMOOTH",
"172 -99 OFFCURVE",
"151 -139 OFFCURVE",
"144 -157 CURVE SMOOTH",
"131 -191 OFFCURVE",
"109 -255 OFFCURVE",
"63 -252 CURVE SMOOTH",
"7 -249 OFFCURVE",
"40 -153 OFFCURVE",
"-8 -159 CURVE SMOOTH",
"-16 -160 OFFCURVE",
"-25 -162 OFFCURVE",
"-33 -163 CURVE"
);
},
{
closed = 1;
nodes = (
"-34 -261 LINE",
"-34 -263 LINE",
"-34 -261 LINE"
);
}
);
width = 407;
}
);
},
{
color = 9;
glyphname = "ii-cy.ss01";
lastChange = "2017-12-15 09:51:13 +0000";
layers = (
{
layerId = UUID0;
paths = (
{
closed = 1;
nodes = (
"392 373 OFFCURVE",
"381 374 OFFCURVE",
"371 374 CURVE",
"350 362 OFFCURVE",
"344 354 OFFCURVE",
"345 330 CURVE SMOOTH",
"346 312 OFFCURVE",
"311 239 OFFCURVE",
"300 222 CURVE SMOOTH",
"273 181 OFFCURVE",
"235 154 OFFCURVE",
"201 119 CURVE",
"201 174 OFFCURVE",
"275 327 OFFCURVE",
"259 356 CURVE SMOOTH",
"253 366 OFFCURVE",
"224 388 OFFCURVE",
"212 388 CURVE SMOOTH",
"206 388 OFFCURVE",
"201 387 OFFCURVE",
"195 387 CURVE",
"169 367 OFFCURVE",
"110 165 OFFCURVE",
"110 127 CURVE SMOOTH",
"110 105 OFFCURVE",
"115 83 OFFCURVE",
"123 62 CURVE",
"123 63 LINE",
"131 36 OFFCURVE",
"155 23 OFFCURVE",
"177 9 CURVE",
"225 4 OFFCURVE",
"280 65 OFFCURVE",
"311 96 CURVE",
"322 55 OFFCURVE",
"347 11 OFFCURVE",
"389 -3 CURVE SMOOTH",
"424 -15 OFFCURVE",
"488 22 OFFCURVE",
"505 53 CURVE",
"510 57 OFFCURVE",
"515 61 OFFCURVE",
"519 66 CURVE",
"519 90 OFFCURVE",
"506 130 OFFCURVE",
"485 144 CURVE",
"458 127 OFFCURVE",
"434 104 OFFCURVE",
"405 90 CURVE",
"364 158 OFFCURVE",
"455 276 OFFCURVE",
"435 340 CURVE",
"424 351 OFFCURVE",
"413 362 OFFCURVE",
"402 372 CURVE"
);
}
);
width = 529;
},
{
layerId = "BF4C3430-0F48-4C30-8275-6D85863A5F93";
paths = (
{
closed = 1;
nodes = (
"392 373 OFFCURVE",
"381 374 OFFCURVE",
"371 374 CURVE",
"350 362 OFFCURVE",
"344 354 OFFCURVE",
"345 330 CURVE SMOOTH",
"346 312 OFFCURVE",
"311 239 OFFCURVE",
"300 222 CURVE SMOOTH",
"273 181 OFFCURVE",
"235 154 OFFCURVE",
"201 119 CURVE",
"201 174 OFFCURVE",
"275 327 OFFCURVE",
"259 356 CURVE SMOOTH",
"253 366 OFFCURVE",
"224 388 OFFCURVE",
"212 388 CURVE SMOOTH",
"206 388 OFFCURVE",
"201 387 OFFCURVE",
"195 387 CURVE",
"169 367 OFFCURVE",
"110 165 OFFCURVE",
"110 127 CURVE SMOOTH",
"110 105 OFFCURVE",
"115 83 OFFCURVE",
"123 62 CURVE",
"123 63 LINE",
"131 36 OFFCURVE",
"155 23 OFFCURVE",
"177 9 CURVE",
"225 4 OFFCURVE",
"280 65 OFFCURVE",
"311 96 CURVE",
"322 55 OFFCURVE",
"347 11 OFFCURVE",
"389 -3 CURVE SMOOTH",
"424 -15 OFFCURVE",
"488 22 OFFCURVE",
"505 53 CURVE",
"510 57 OFFCURVE",
"515 61 OFFCURVE",
"519 66 CURVE",
"519 90 OFFCURVE",
"506 130 OFFCURVE",
"485 144 CURVE",
"458 127 OFFCURVE",
"434 104 OFFCURVE",
"405 90 CURVE",
"364 158 OFFCURVE",
"455 276 OFFCURVE",
"435 340 CURVE",
"424 351 OFFCURVE",
"413 362 OFFCURVE",
"402 372 CURVE"
);
}
);
width = 529;
}
);
},
{
color = 9;
glyphname = "el-cy.ss01";
lastChange = "2017-12-15 09:51:13 +0000";
layers = (
{
layerId = UUID0;
paths = (
{
closed = 1;
nodes = (
"38 94 LINE",
"37 90 OFFCURVE",
"36 85 OFFCURVE",
"36 81 CURVE",
"29 72 OFFCURVE",
"28 65 OFFCURVE",
"31 54 CURVE",
"30 54 LINE",
"34 38 OFFCURVE",
"43 24 OFFCURVE",
"55 12 CURVE",
"68 8 OFFCURVE",
"80 6 OFFCURVE",
"93 1 CURVE",
"139 30 OFFCURVE",
"173 74 OFFCURVE",
"197 122 CURVE SMOOTH",
"212 153 OFFCURVE",
"231 178 OFFCURVE",
"234 214 CURVE SMOOTH",
"234 219 OFFCURVE",
"260 288 OFFCURVE",
"262 291 CURVE",
"272 288 OFFCURVE",
"282 286 OFFCURVE",
"290 280 CURVE",
"297 263 OFFCURVE",
"286 232 OFFCURVE",
"281 215 CURVE",
"281 216 LINE",
"269 168 OFFCURVE",
"237 104 OFFCURVE",
"244 55 CURVE SMOOTH",
"248 28 OFFCURVE",
"278 18 OFFCURVE",
"299 12 CURVE",
"309 14 OFFCURVE",
"319 18 OFFCURVE",
"329 21 CURVE",
"330 59 OFFCURVE",
"338 92 OFFCURVE",
"349 127 CURVE",
"348 126 LINE",
"356 152 OFFCURVE",
"365 177 OFFCURVE",
"372 203 CURVE",
"371 202 LINE SMOOTH",
"378 222 OFFCURVE",
"381 244 OFFCURVE",
"381 265 CURVE SMOOTH",
"381 308 OFFCURVE",
"345 346 OFFCURVE",
"305 358 CURVE SMOOTH",
"293 362 OFFCURVE",
"282 370 OFFCURVE",
"270 373 CURVE SMOOTH",
"242 381 OFFCURVE",
"192 388 OFFCURVE",
"165 376 CURVE",
"163 376 LINE SMOOTH",
"130 370 OFFCURVE",
"125 349 OFFCURVE",
"127 320 CURVE",
"144 303 OFFCURVE",
"152 293 OFFCURVE",
"176 289 CURVE",
"172 280 OFFCURVE",
"169 270 OFFCURVE",
"165 261 CURVE SMOOTH",
"159 249 OFFCURVE",
"159 237 OFFCURVE",
"155 224 CURVE SMOOTH",
"142 182 OFFCURVE",
"100 122 OFFCURVE",
"65 94 CURVE"
);
},
{
closed = 1;
nodes = (
"261 292 LINE",
"261 290 LINE",
"261 292 LINE"
);
}
);
width = 391;
},
{
layerId = "BF4C3430-0F48-4C30-8275-6D85863A5F93";
paths = (
{
closed = 1;
nodes = (
"38 94 LINE",
"37 90 OFFCURVE",
"36 85 OFFCURVE",
"36 81 CURVE",
"29 72 OFFCURVE",
"28 65 OFFCURVE",
"31 54 CURVE",
"30 54 LINE",
"34 38 OFFCURVE",
"43 24 OFFCURVE",
"55 12 CURVE",
"68 8 OFFCURVE",
"80 6 OFFCURVE",
"93 1 CURVE",
"139 30 OFFCURVE",
"173 74 OFFCURVE",
"197 122 CURVE SMOOTH",
"212 153 OFFCURVE",
"231 178 OFFCURVE",
"234 214 CURVE SMOOTH",
"234 219 OFFCURVE",
"260 288 OFFCURVE",
"262 291 CURVE",
"272 288 OFFCURVE",
"282 286 OFFCURVE",
"290 280 CURVE",
"297 263 OFFCURVE",
"286 232 OFFCURVE",
"281 215 CURVE",
"281 216 LINE",
"269 168 OFFCURVE",
"237 104 OFFCURVE",
"244 55 CURVE SMOOTH",
"248 28 OFFCURVE",
"278 18 OFFCURVE",
"299 12 CURVE",
"309 14 OFFCURVE",
"319 18 OFFCURVE",
"329 21 CURVE",
"330 59 OFFCURVE",
"338 92 OFFCURVE",
"349 127 CURVE",
"348 126 LINE",
"356 152 OFFCURVE",
"365 177 OFFCURVE",
"372 203 CURVE",
"371 202 LINE SMOOTH",
"378 222 OFFCURVE",
"381 244 OFFCURVE",
"381 265 CURVE SMOOTH",
"381 308 OFFCURVE",
"345 346 OFFCURVE",
"305 358 CURVE SMOOTH",
"293 362 OFFCURVE",
"282 370 OFFCURVE",
"270 373 CURVE SMOOTH",
"242 381 OFFCURVE",
"192 388 OFFCURVE",
"165 376 CURVE",
"163 376 LINE SMOOTH",
"130 370 OFFCURVE",
"125 349 OFFCURVE",
"127 320 CURVE",
"144 303 OFFCURVE",
"152 293 OFFCURVE",
"176 289 CURVE",
"172 280 OFFCURVE",
"169 270 OFFCURVE",
"165 261 CURVE SMOOTH",
"159 249 OFFCURVE",
"159 237 OFFCURVE",
"155 224 CURVE SMOOTH",
"142 182 OFFCURVE",
"100 122 OFFCURVE",
"65 94 CURVE"
);
},
{
closed = 1;
nodes = (
"261 292 LINE",
"261 290 LINE",
"261 292 LINE"
);
}
);
width = 391;
}
);
},
{
color = 9;
glyphname = "em-cy.ss01";
lastChange = "2017-12-15 09:51:13 +0000";
layers = (
{
layerId = UUID0;
paths = (
{
closed = 1;
nodes = (
"311 41 LINE",
"334 36 OFFCURVE",
"344 22 OFFCURVE",
"371 28 CURVE",
"395 50 OFFCURVE",
"425 81 OFFCURVE",
"442 109 CURVE",
"443 114 OFFCURVE",
"542 231 OFFCURVE",
"551 241 CURVE",
"548 222 OFFCURVE",
"546 203 OFFCURVE",
"541 184 CURVE",
"542 185 LINE SMOOTH",
"538 172 OFFCURVE",
"537 154 OFFCURVE",
"531 142 CURVE SMOOTH",
"520 119 OFFCURVE",
"527 93 OFFCURVE",
"518 70 CURVE SMOOTH",
"509 49 OFFCURVE",
"522 35 OFFCURVE",
"531 16 CURVE",
"549 3 OFFCURVE",
"572 1 OFFCURVE",
"593 5 CURVE",
"617 34 LINE",
"611 48 OFFCURVE",
"612 51 OFFCURVE",
"612 66 CURVE",
"617 78 OFFCURVE",
"615 90 OFFCURVE",
"615 102 CURVE",
"622 115 OFFCURVE",
"618 124 OFFCURVE",
"621 137 CURVE",
"623 141 LINE SMOOTH",
"630 151 OFFCURVE",
"633 164 OFFCURVE",
"635 176 CURVE SMOOTH",
"640 206 OFFCURVE",
"651 279 OFFCURVE",
"664 302 CURVE SMOOTH",
"672 317 OFFCURVE",
"670 319 OFFCURVE",
"673 334 CURVE SMOOTH",
"676 351 OFFCURVE",
"669 365 OFFCURVE",
"669 382 CURVE",
"653 386 OFFCURVE",
"646 387 OFFCURVE",
"633 397 CURVE",
"593 397 LINE",
"524 333 OFFCURVE",
"459 272 OFFCURVE",
"404 195 CURVE",
"412 244 OFFCURVE",
"424 324 OFFCURVE",
"383 362 CURVE SMOOTH",
"374 370 OFFCURVE",
"367 379 OFFCURVE",
"360 388 CURVE",
"346 388 OFFCURVE",
"332 393 OFFCURVE",
"320 401 CURVE",
"294 375 OFFCURVE",
"215 274 OFFCURVE",
"198 243 CURVE",
"198 244 LINE",
"176 209 OFFCURVE",
"101 113 OFFCURVE",
"66 99 CURVE",
"59 86 LINE",
"117 141 OFFCURVE",
"168 71 OFFCURVE",
"142 33 CURVE",
"189 65 OFFCURVE",
"207 120 OFFCURVE",
"240 162 CURVE",
"240 161 LINE",
"265 191 OFFCURVE",
"294 222 OFFCURVE",
"316 255 CURVE",
"326 228 OFFCURVE",
"300 102 OFFCURVE",
"295 74 CURVE"
);
},
{
closed = 1;
nodes = (
"557 281 LINE",
"557 280 OFFCURVE",
"557 280 OFFCURVE",
"556 280 CURVE",
"557 281 LINE"
);
}
);
width = 685;
},
{
layerId = "BF4C3430-0F48-4C30-8275-6D85863A5F93";
paths = (
{
closed = 1;
nodes = (
"311 41 LINE",
"334 36 OFFCURVE",
"344 22 OFFCURVE",
"371 28 CURVE",
"395 50 OFFCURVE",
"425 81 OFFCURVE",
"442 109 CURVE",
"443 114 OFFCURVE",
"542 231 OFFCURVE",
"551 241 CURVE",
"548 222 OFFCURVE",
"546 203 OFFCURVE",
"541 184 CURVE",
"542 185 LINE SMOOTH",
"538 172 OFFCURVE",
"537 154 OFFCURVE",
"531 142 CURVE SMOOTH",
"520 119 OFFCURVE",
"527 93 OFFCURVE",
"518 70 CURVE SMOOTH",
"509 49 OFFCURVE",
"522 35 OFFCURVE",
"531 16 CURVE",
"549 3 OFFCURVE",
"572 1 OFFCURVE",
"593 5 CURVE",
"617 34 LINE",
"611 48 OFFCURVE",
"612 51 OFFCURVE",
"612 66 CURVE",
"617 78 OFFCURVE",
"615 90 OFFCURVE",
"615 102 CURVE",
"622 115 OFFCURVE",
"618 124 OFFCURVE",
"621 137 CURVE",
"623 141 LINE SMOOTH",
"630 151 OFFCURVE",
"633 164 OFFCURVE",
"635 176 CURVE SMOOTH",
"640 206 OFFCURVE",
"651 279 OFFCURVE",
"664 302 CURVE SMOOTH",
"672 317 OFFCURVE",
"670 319 OFFCURVE",
"673 334 CURVE SMOOTH",
"676 351 OFFCURVE",
"669 365 OFFCURVE",
"669 382 CURVE",
"653 386 OFFCURVE",
"646 387 OFFCURVE",
"633 397 CURVE",
"593 397 LINE",
"524 333 OFFCURVE",
"459 272 OFFCURVE",
"404 195 CURVE",
"412 244 OFFCURVE",
"424 324 OFFCURVE",
"383 362 CURVE SMOOTH",
"374 370 OFFCURVE",
"367 379 OFFCURVE",
"360 388 CURVE",
"346 388 OFFCURVE",
"332 393 OFFCURVE",
"320 401 CURVE",
"294 375 OFFCURVE",
"215 274 OFFCURVE",
"198 243 CURVE",
"198 244 LINE",
"176 209 OFFCURVE",
"101 113 OFFCURVE",
"66 99 CURVE",
"59 86 LINE",
"117 141 OFFCURVE",
"168 71 OFFCURVE",
"142 33 CURVE",
"189 65 OFFCURVE",
"207 120 OFFCURVE",
"240 162 CURVE",
"240 161 LINE",
"265 191 OFFCURVE",
"294 222 OFFCURVE",
"316 255 CURVE",
"326 228 OFFCURVE",
"300 102 OFFCURVE",
"295 74 CURVE"
);
},
{
closed = 1;
nodes = (
"557 281 LINE",
"557 280 OFFCURVE",
"557 280 OFFCURVE",
"556 280 CURVE",
"557 281 LINE"
);
}
);
width = 685;
}
);
},
{
color = 9;
glyphname = "en-cy.ss01";
lastChange = "2017-12-15 09:51:13 +0000";
layers = (
{
layerId = UUID0;
paths = (
{
closed = 1;
nodes = (
"365 -3 LINE",
"378 5 OFFCURVE",
"384 18 OFFCURVE",
"386 33 CURVE SMOOTH",
"389 55 OFFCURVE",
"401 78 OFFCURVE",
"405 100 CURVE SMOOTH",
"418 169 OFFCURVE",
"450 236 OFFCURVE",
"476 301 CURVE SMOOTH",
"481 313 OFFCURVE",
"481 327 OFFCURVE",
"486 339 CURVE",
"479 374 OFFCURVE",
"453 378 OFFCURVE",
"424 389 CURVE",
"408 380 OFFCURVE",
"395 367 OFFCURVE",
"391 348 CURVE SMOOTH",
"382 303 OFFCURVE",
"363 259 OFFCURVE",
"345 217 CURVE",
"340 222 OFFCURVE",
"335 225 OFFCURVE",
"329 228 CURVE",
"264 228 LINE",
"257 224 OFFCURVE",
"248 222 OFFCURVE",
"240 221 CURVE",
"255 261 OFFCURVE",
"270 300 OFFCURVE",
"285 340 CURVE",
"262 296 OFFCURVE",
"202 340 OFFCURVE",
"204 384 CURVE",
"201 363 OFFCURVE",
"148 231 OFFCURVE",
"141 223 CURVE",
"141 171 OFFCURVE",
"75 102 OFFCURVE",
"119 42 CURVE",
"147 33 OFFCURVE",
"153 32 OFFCURVE",
"182 36 CURVE",
"197 64 OFFCURVE",
"200 106 OFFCURVE",
"207 135 CURVE",
"220 128 LINE",
"255 137 OFFCURVE",
"292 139 OFFCURVE",
"326 149 CURVE",
"309 106 OFFCURVE",
"285 52 OFFCURVE",
"312 8 CURVE",
"337 0 LINE",
"336 0 LINE",
"342 -3 OFFCURVE",
"348 -4 OFFCURVE",
"354 -5 CURVE",
"365 -3 LINE"
);
},
{
closed = 1;
nodes = (
"355 169 LINE",
"355 164 OFFCURVE",
"350 158 OFFCURVE",
"344 159 CURVE",
"355 169 LINE"
);
},
{
closed = 1;
nodes = (
"486 339 LINE",
"488 342 OFFCURVE",
"488 340 OFFCURVE",
"487 338 CURVE"
);
},
{
closed = 1;
nodes = (
"288 345 LINE",
"285 340 LINE",
"288 345 LINE"
);
}
);
width = 498;
},
{
layerId = "BF4C3430-0F48-4C30-8275-6D85863A5F93";
paths = (
{
closed = 1;
nodes = (
"365 -3 LINE",
"378 5 OFFCURVE",
"384 18 OFFCURVE",
"386 33 CURVE SMOOTH",
"389 55 OFFCURVE",
"401 78 OFFCURVE",
"405 100 CURVE SMOOTH",
"418 169 OFFCURVE",
"450 236 OFFCURVE",
"476 301 CURVE SMOOTH",
"481 313 OFFCURVE",
"481 327 OFFCURVE",
"486 339 CURVE",
"479 374 OFFCURVE",
"453 378 OFFCURVE",
"424 389 CURVE",
"408 380 OFFCURVE",
"395 367 OFFCURVE",
"391 348 CURVE SMOOTH",
"382 303 OFFCURVE",
"363 259 OFFCURVE",
"345 217 CURVE",
"340 222 OFFCURVE",
"335 225 OFFCURVE",
"329 228 CURVE",
"264 228 LINE",
"257 224 OFFCURVE",
"248 222 OFFCURVE",
"240 221 CURVE",
"255 261 OFFCURVE",
"270 300 OFFCURVE",
"285 340 CURVE",
"262 296 OFFCURVE",
"202 340 OFFCURVE",
"204 384 CURVE",
"201 363 OFFCURVE",
"148 231 OFFCURVE",
"141 223 CURVE",
"141 171 OFFCURVE",
"75 102 OFFCURVE",
"119 42 CURVE",
"147 33 OFFCURVE",
"153 32 OFFCURVE",
"182 36 CURVE",
"197 64 OFFCURVE",
"200 106 OFFCURVE",
"207 135 CURVE",
"220 128 LINE",
"255 137 OFFCURVE",
"292 139 OFFCURVE",
"326 149 CURVE",
"309 106 OFFCURVE",
"285 52 OFFCURVE",
"312 8 CURVE",
"337 0 LINE",
"336 0 LINE",
"342 -3 OFFCURVE",
"348 -4 OFFCURVE",
"354 -5 CURVE",
"365 -3 LINE"
);
},
{
closed = 1;
nodes = (
"355 169 LINE",
"355 164 OFFCURVE",
"350 158 OFFCURVE",
"344 159 CURVE",
"355 169 LINE"
);
},
{
closed = 1;
nodes = (
"486 339 LINE",
"488 342 OFFCURVE",
"488 340 OFFCURVE",
"487 338 CURVE"
);
},
{
closed = 1;
nodes = (
"288 345 LINE",
"285 340 LINE",
"288 345 LINE"
);
}
);
width = 498;
}
);
},
{
color = 9;
glyphname = "pe-cy.ss01";
lastChange = "2017-12-15 09:51:13 +0000";
layers = (
{
layerId = UUID0;
paths = (
{
closed = 1;
nodes = (
"148 25 LINE",
"171 36 OFFCURVE",
"192 41 OFFCURVE",
"192 72 CURVE SMOOTH",
"192 75 OFFCURVE",
"192 77 OFFCURVE",
"193 80 CURVE SMOOTH",
"198 94 OFFCURVE",
"202 105 OFFCURVE",
"206 119 CURVE",
"205 118 LINE",
"214 151 OFFCURVE",
"225 184 OFFCURVE",
"233 217 CURVE SMOOTH",
"237 232 OFFCURVE",
"241 247 OFFCURVE",
"246 261 CURVE",
"246 260 LINE",
"252 275 OFFCURVE",
"255 292 OFFCURVE",
"259 308 CURVE",
"281 309 OFFCURVE",
"334 301 OFFCURVE",
"354 288 CURVE SMOOTH",
"353 289 LINE SMOOTH",
"375 276 OFFCURVE",
"351 214 OFFCURVE",
"344 196 CURVE",
"344 197 LINE",
"332 168 OFFCURVE",
"327 132 OFFCURVE",
"319 101 CURVE SMOOTH",
"311 71 OFFCURVE",
"334 18 OFFCURVE",
"370 20 CURVE SMOOTH",
"380 20 OFFCURVE",
"385 29 OFFCURVE",
"393 32 CURVE",
"411 32 OFFCURVE",
"425 61 OFFCURVE",
"430 76 CURVE",
"407 105 OFFCURVE",
"415 116 OFFCURVE",
"425 149 CURVE",
"424 148 LINE",
"445 217 OFFCURVE",
"467 299 OFFCURVE",
"407 356 CURVE SMOOTH",
"392 370 OFFCURVE",
"340 399 OFFCURVE",
"319 396 CURVE",
"287 408 OFFCURVE",
"244 407 OFFCURVE",
"215 387 CURVE",
"213 379 LINE",
"199 378 OFFCURVE",
"187 369 OFFCURVE",
"175 362 CURVE",
"171 336 OFFCURVE",
"170 306 OFFCURVE",
"160 281 CURVE SMOOTH",
"153 264 OFFCURVE",
"138 194 OFFCURVE",
"136 190 CURVE SMOOTH",
"124 171 OFFCURVE",
"107 93 OFFCURVE",
"102 68 CURVE",
"112 54 OFFCURVE",
"121 37 OFFCURVE",
"135 27 CURVE",
"148 25 LINE"
);
}
);
width = 456;
},
{
layerId = "BF4C3430-0F48-4C30-8275-6D85863A5F93";
paths = (
{
closed = 1;
nodes = (
"148 25 LINE",
"171 36 OFFCURVE",
"192 41 OFFCURVE",
"192 72 CURVE SMOOTH",
"192 75 OFFCURVE",
"192 77 OFFCURVE",
"193 80 CURVE SMOOTH",
"198 94 OFFCURVE",
"202 105 OFFCURVE",
"206 119 CURVE",
"205 118 LINE",
"214 151 OFFCURVE",
"225 184 OFFCURVE",
"233 217 CURVE SMOOTH",
"237 232 OFFCURVE",
"241 247 OFFCURVE",
"246 261 CURVE",
"246 260 LINE",
"252 275 OFFCURVE",
"255 292 OFFCURVE",
"259 308 CURVE",
"281 309 OFFCURVE",
"334 301 OFFCURVE",
"354 288 CURVE SMOOTH",
"353 289 LINE SMOOTH",
"375 276 OFFCURVE",
"351 214 OFFCURVE",
"344 196 CURVE",
"344 197 LINE",
"332 168 OFFCURVE",
"327 132 OFFCURVE",
"319 101 CURVE SMOOTH",
"311 71 OFFCURVE",
"334 18 OFFCURVE",
"370 20 CURVE SMOOTH",
"380 20 OFFCURVE",
"385 29 OFFCURVE",
"393 32 CURVE",
"411 32 OFFCURVE",
"425 61 OFFCURVE",
"430 76 CURVE",
"407 105 OFFCURVE",
"415 116 OFFCURVE",
"425 149 CURVE",
"424 148 LINE",
"445 217 OFFCURVE",
"467 299 OFFCURVE",
"407 356 CURVE SMOOTH",
"392 370 OFFCURVE",
"340 399 OFFCURVE",
"319 396 CURVE",
"287 408 OFFCURVE",
"244 407 OFFCURVE",
"215 387 CURVE",
"213 379 LINE",
"199 378 OFFCURVE",
"187 369 OFFCURVE",
"175 362 CURVE",
"171 336 OFFCURVE",
"170 306 OFFCURVE",
"160 281 CURVE SMOOTH",
"153 264 OFFCURVE",
"138 194 OFFCURVE",
"136 190 CURVE SMOOTH",
"124 171 OFFCURVE",
"107 93 OFFCURVE",
"102 68 CURVE",
"112 54 OFFCURVE",
"121 37 OFFCURVE",
"135 27 CURVE",
"148 25 LINE"
);
}
);
width = 456;
}
);
},
{
color = 9;
glyphname = "ef-cy.ss01";
lastChange = "2017-12-15 09:51:13 +0000";
layers = (
{
layerId = UUID0;
paths = (
{
closed = 1;
nodes = (
"579 140 OFFCURVE",
"603 192 OFFCURVE",
"591 237 CURVE SMOOTH",
"579 280 OFFCURVE",
"542 332 OFFCURVE",
"500 351 CURVE SMOOTH",
"493 354 OFFCURVE",
"474 359 OFFCURVE",
"467 359 CURVE",
"486 415 OFFCURVE",
"524 474 OFFCURVE",
"452 510 CURVE",
"442 507 OFFCURVE",
"434 502 OFFCURVE",
"425 498 CURVE",
"410 484 OFFCURVE",
"418 486 OFFCURVE",
"412 471 CURVE",
"413 471 LINE",
"413 469 OFFCURVE",
"371 362 OFFCURVE",
"368 355 CURVE",
"290 379 OFFCURVE",
"224 361 OFFCURVE",
"165 306 CURVE SMOOTH",
"143 285 OFFCURVE",
"136 266 OFFCURVE",
"126 238 CURVE SMOOTH",
"105 176 OFFCURVE",
"113 144 OFFCURVE",
"152 93 CURVE SMOOTH",
"170 69 OFFCURVE",
"212 54 OFFCURVE",
"238 42 CURVE",
"218 -21 OFFCURVE",
"202 -85 OFFCURVE",
"180 -147 CURVE",
"184 -168 OFFCURVE",
"193 -183 OFFCURVE",
"213 -191 CURVE",
"215 -173 OFFCURVE",
"243 -109 OFFCURVE",
"256 -96 CURVE",
"281 -111 LINE",
"285 -93 OFFCURVE",
"292 -77 OFFCURVE",
"296 -60 CURVE",
"295 -61 LINE SMOOTH",
"301 -42 OFFCURVE",
"308 -23 OFFCURVE",
"317 -5 CURVE",
"317 7 OFFCURVE",
"322 15 OFFCURVE",
"327 26 CURVE",
"339 29 OFFCURVE",
"352 31 OFFCURVE",
"365 31 CURVE SMOOTH",
"395 31 OFFCURVE",
"430 47 OFFCURVE",
"457 60 CURVE SMOOTH",
"479 71 OFFCURVE",
"502 79 OFFCURVE",
"521 95 CURVE SMOOTH",
"528 100 OFFCURVE",
"535 108 OFFCURVE",
"544 110 CURVE"
);
},
{
closed = 1;
nodes = (
"383 171 OFFCURVE",
"399 222 OFFCURVE",
"425 268 CURVE",
"452 271 OFFCURVE",
"506 262 OFFCURVE",
"509 228 CURVE SMOOTH",
"514 172 OFFCURVE",
"406 129 OFFCURVE",
"362 123 CURVE"
);
},
{
closed = 1;
nodes = (
"251 124 OFFCURVE",
"221 146 OFFCURVE",
"207 161 CURVE",
"207 166 OFFCURVE",
"207 171 OFFCURVE",
"205 176 CURVE",
"204 176 LINE",
"199 197 OFFCURVE",
"229 244 OFFCURVE",
"248 254 CURVE",
"247 254 LINE",
"256 259 OFFCURVE",
"287 274 OFFCURVE",
"296 274 CURVE SMOOTH",
"300 274 OFFCURVE",
"305 267 OFFCURVE",
"308 264 CURVE",
"314 271 LINE",
"319 266 OFFCURVE",
"322 264 OFFCURVE",
"328 262 CURVE",
"321 244 OFFCURVE",
"313 227 OFFCURVE",
"305 210 CURVE SMOOTH",
"293 183 OFFCURVE",
"284 154 OFFCURVE",
"272 127 CURVE"
);
},
{
closed = 1;
nodes = (
"225 -205 OFFCURVE",
"211 -210 OFFCURVE",
"213 -191 CURVE",
"220 -194 OFFCURVE",
"228 -196 OFFCURVE",
"236 -198 CURVE"
);
}
);
width = 606;
},
{
layerId = "BF4C3430-0F48-4C30-8275-6D85863A5F93";
paths = (
{
closed = 1;
nodes = (
"579 140 OFFCURVE",
"603 192 OFFCURVE",
"591 237 CURVE SMOOTH",
"579 280 OFFCURVE",
"542 332 OFFCURVE",
"500 351 CURVE SMOOTH",
"493 354 OFFCURVE",
"474 359 OFFCURVE",
"467 359 CURVE",
"486 415 OFFCURVE",
"524 474 OFFCURVE",
"452 510 CURVE",
"442 507 OFFCURVE",
"434 502 OFFCURVE",
"425 498 CURVE",
"410 484 OFFCURVE",
"418 486 OFFCURVE",
"412 471 CURVE",
"413 471 LINE",
"413 469 OFFCURVE",
"371 362 OFFCURVE",
"368 355 CURVE",
"290 379 OFFCURVE",
"224 361 OFFCURVE",
"165 306 CURVE SMOOTH",
"143 285 OFFCURVE",
"136 266 OFFCURVE",
"126 238 CURVE SMOOTH",
"105 176 OFFCURVE",
"113 144 OFFCURVE",
"152 93 CURVE SMOOTH",
"170 69 OFFCURVE",
"212 54 OFFCURVE",
"238 42 CURVE",
"218 -21 OFFCURVE",
"202 -85 OFFCURVE",
"180 -147 CURVE",
"184 -168 OFFCURVE",
"193 -183 OFFCURVE",
"213 -191 CURVE",
"215 -173 OFFCURVE",
"243 -109 OFFCURVE",
"256 -96 CURVE",
"281 -111 LINE",
"285 -93 OFFCURVE",
"292 -77 OFFCURVE",
"296 -60 CURVE",
"295 -61 LINE SMOOTH",
"301 -42 OFFCURVE",
"308 -23 OFFCURVE",
"317 -5 CURVE",
"317 7 OFFCURVE",
"322 15 OFFCURVE",
"327 26 CURVE",
"339 29 OFFCURVE",
"352 31 OFFCURVE",
"365 31 CURVE SMOOTH",
"395 31 OFFCURVE",
"430 47 OFFCURVE",
"457 60 CURVE SMOOTH",
"479 71 OFFCURVE",
"502 79 OFFCURVE",
"521 95 CURVE SMOOTH",
"528 100 OFFCURVE",
"535 108 OFFCURVE",
"544 110 CURVE"
);
},
{
closed = 1;
nodes = (
"383 171 OFFCURVE",
"399 222 OFFCURVE",
"425 268 CURVE",
"452 271 OFFCURVE",
"506 262 OFFCURVE",
"509 228 CURVE SMOOTH",
"514 172 OFFCURVE",
"406 129 OFFCURVE",
"362 123 CURVE"
);
},
{
closed = 1;
nodes = (
"251 124 OFFCURVE",
"221 146 OFFCURVE",
"207 161 CURVE",
"207 166 OFFCURVE",
"207 171 OFFCURVE",
"205 176 CURVE",
"204 176 LINE",
"199 197 OFFCURVE",
"229 244 OFFCURVE",
"248 254 CURVE",
"247 254 LINE",
"256 259 OFFCURVE",
"287 274 OFFCURVE",
"296 274 CURVE SMOOTH",
"300 274 OFFCURVE",
"305 267 OFFCURVE",
"308 264 CURVE",
"314 271 LINE",
"319 266 OFFCURVE",
"322 264 OFFCURVE",
"328 262 CURVE",
"321 244 OFFCURVE",
"313 227 OFFCURVE",
"305 210 CURVE SMOOTH",
"293 183 OFFCURVE",
"284 154 OFFCURVE",
"272 127 CURVE"
);
},
{
closed = 1;
nodes = (
"225 -205 OFFCURVE",
"211 -210 OFFCURVE",
"213 -191 CURVE",
"220 -194 OFFCURVE",
"228 -196 OFFCURVE",
"236 -198 CURVE"
);
}
);
width = 606;
}
);
},
{
color = 9;
glyphname = "che-cy.ss01";
lastChange = "2017-12-15 09:51:13 +0000";
layers = (
{
layerId = UUID0;
paths = (
{
closed = 1;
nodes = (
"443 360 OFFCURVE",
"393 399 OFFCURVE",
"358 360 CURVE SMOOTH",
"351 352 OFFCURVE",
"351 346 OFFCURVE",
"347 336 CURVE",
"347 337 LINE",
"345 333 OFFCURVE",
"344 327 OFFCURVE",
"341 323 CURVE SMOOTH",
"328 301 OFFCURVE",
"218 221 OFFCURVE",
"192 206 CURVE",
"196 227 OFFCURVE",
"204 248 OFFCURVE",
"210 268 CURVE SMOOTH",
"210 266 LINE",
"215 282 LINE",
"214 281 LINE SMOOTH",
"224 304 OFFCURVE",
"243 322 OFFCURVE",
"249 347 CURVE",
"237 382 OFFCURVE",
"216 419 OFFCURVE",
"174 398 CURVE",
"141 329 OFFCURVE",
"64 197 OFFCURVE",
"127 128 CURVE SMOOTH",
"139 114 OFFCURVE",
"152 110 OFFCURVE",
"170 110 CURVE SMOOTH",
"192 110 LINE",
"223 128 OFFCURVE",
"253 146 OFFCURVE",
"281 169 CURVE",
"267 125 OFFCURVE",
"254 44 OFFCURVE",
"309 21 CURVE SMOOTH",
"308 22 LINE SMOOTH",
"333 1 OFFCURVE",
"389 28 OFFCURVE",
"398 56 CURVE SMOOTH",
"400 62 OFFCURVE",
"399 70 OFFCURVE",
"399 76 CURVE",
"407 86 OFFCURVE",
"407 145 OFFCURVE",
"360 117 CURVE",
"365 173 OFFCURVE",
"414 270 OFFCURVE",
"446 317 CURVE"
);
}
);
width = 456;
},
{
layerId = "BF4C3430-0F48-4C30-8275-6D85863A5F93";
paths = (
{
closed = 1;
nodes = (
"443 360 OFFCURVE",
"393 399 OFFCURVE",
"358 360 CURVE SMOOTH",
"351 352 OFFCURVE",
"351 346 OFFCURVE",
"347 336 CURVE",
"347 337 LINE",
"345 333 OFFCURVE",
"344 327 OFFCURVE",
"341 323 CURVE SMOOTH",
"328 301 OFFCURVE",
"218 221 OFFCURVE",
"192 206 CURVE",
"196 227 OFFCURVE",
"204 248 OFFCURVE",
"210 268 CURVE SMOOTH",
"210 266 LINE",
"215 282 LINE",
"214 281 LINE SMOOTH",
"224 304 OFFCURVE",
"243 322 OFFCURVE",
"249 347 CURVE",
"237 382 OFFCURVE",
"216 419 OFFCURVE",
"174 398 CURVE",
"141 329 OFFCURVE",
"64 197 OFFCURVE",
"127 128 CURVE SMOOTH",
"139 114 OFFCURVE",
"152 110 OFFCURVE",
"170 110 CURVE SMOOTH",
"192 110 LINE",
"223 128 OFFCURVE",
"253 146 OFFCURVE",
"281 169 CURVE",
"267 125 OFFCURVE",
"254 44 OFFCURVE",
"309 21 CURVE SMOOTH",
"308 22 LINE SMOOTH",
"333 1 OFFCURVE",
"389 28 OFFCURVE",
"398 56 CURVE SMOOTH",
"400 62 OFFCURVE",
"399 70 OFFCURVE",
"399 76 CURVE",
"407 86 OFFCURVE",
"407 145 OFFCURVE",
"360 117 CURVE",
"365 173 OFFCURVE",
"414 270 OFFCURVE",
"446 317 CURVE"
);
}
);
width = 456;
}
);
},
{
color = 9;
glyphname = "tse-cy.ss01";
lastChange = "2017-12-15 09:51:13 +0000";
layers = (
{
layerId = UUID0;
paths = (
{
closed = 1;
nodes = (
"256 382 OFFCURVE",
"187 417 OFFCURVE",
"174 366 CURVE",
"175 366 LINE",
"159 306 OFFCURVE",
"79 121 OFFCURVE",
"79 78 CURVE SMOOTH",
"79 57 OFFCURVE",
"88 39 OFFCURVE",
"99 22 CURVE",
"132 5 OFFCURVE",
"155 4 OFFCURVE",
"191 9 CURVE SMOOTH",
"204 11 OFFCURVE",
"216 9 OFFCURVE",
"228 13 CURVE",
"227 13 LINE",
"267 24 OFFCURVE",
"309 33 OFFCURVE",
"350 37 CURVE",
"341 13 OFFCURVE",
"330 -12 OFFCURVE",
"318 -35 CURVE SMOOTH",
"306 -59 OFFCURVE",
"303 -70 OFFCURVE",
"312 -97 CURVE",
"330 -113 OFFCURVE",
"366 -113 OFFCURVE",
"384 -96 CURVE SMOOTH",
"397 -84 OFFCURVE",
"421 -2 OFFCURVE",
"432 22 CURVE SMOOTH",
"431 21 LINE SMOOTH",
"460 76 OFFCURVE",
"458 106 OFFCURVE",
"409 148 CURVE",
"394 146 OFFCURVE",
"381 141 OFFCURVE",
"368 133 CURVE",
"386 196 OFFCURVE",
"409 258 OFFCURVE",
"438 317 CURVE",
"438 362 OFFCURVE",
"415 380 OFFCURVE",
"371 382 CURVE",
"364 375 OFFCURVE",
"356 373 OFFCURVE",
"347 369 CURVE",
"335 334 OFFCURVE",
"327 301 OFFCURVE",
"313 267 CURVE",
"313 268 LINE",
"307 257 OFFCURVE",
"297 235 OFFCURVE",
"297 222 CURVE SMOOTH",
"297 205 OFFCURVE",
"268 139 OFFCURVE",
"261 117 CURVE",
"239 108 OFFCURVE",
"198 99 OFFCURVE",
"174 97 CURVE",
"184 150 OFFCURVE",
"210 196 OFFCURVE",
"232 245 CURVE SMOOTH",
"244 272 OFFCURVE",
"252 303 OFFCURVE",
"262 332 CURVE"
);
}
);
width = 460;
},
{
layerId = "BF4C3430-0F48-4C30-8275-6D85863A5F93";
paths = (
{
closed = 1;
nodes = (
"256 382 OFFCURVE",
"187 417 OFFCURVE",
"174 366 CURVE",
"175 366 LINE",
"159 306 OFFCURVE",
"79 121 OFFCURVE",
"79 78 CURVE SMOOTH",
"79 57 OFFCURVE",
"88 39 OFFCURVE",
"99 22 CURVE",
"132 5 OFFCURVE",
"155 4 OFFCURVE",
"191 9 CURVE SMOOTH",
"204 11 OFFCURVE",
"216 9 OFFCURVE",
"228 13 CURVE",
"227 13 LINE",
"267 24 OFFCURVE",
"309 33 OFFCURVE",
"350 37 CURVE",
"341 13 OFFCURVE",
"330 -12 OFFCURVE",
"318 -35 CURVE SMOOTH",
"306 -59 OFFCURVE",
"303 -70 OFFCURVE",
"312 -97 CURVE",
"330 -113 OFFCURVE",
"366 -113 OFFCURVE",
"384 -96 CURVE SMOOTH",
"397 -84 OFFCURVE",
"421 -2 OFFCURVE",
"432 22 CURVE SMOOTH",
"431 21 LINE SMOOTH",
"460 76 OFFCURVE",
"458 106 OFFCURVE",
"409 148 CURVE",
"394 146 OFFCURVE",
"381 141 OFFCURVE",
"368 133 CURVE",
"386 196 OFFCURVE",
"409 258 OFFCURVE",
"438 317 CURVE",
"438 362 OFFCURVE",
"415 380 OFFCURVE",
"371 382 CURVE",
"364 375 OFFCURVE",
"356 373 OFFCURVE",
"347 369 CURVE",
"335 334 OFFCURVE",
"327 301 OFFCURVE",
"313 267 CURVE",
"313 268 LINE",
"307 257 OFFCURVE",
"297 235 OFFCURVE",
"297 222 CURVE SMOOTH",
"297 205 OFFCURVE",
"268 139 OFFCURVE",
"261 117 CURVE",
"239 108 OFFCURVE",
"198 99 OFFCURVE",
"174 97 CURVE",
"184 150 OFFCURVE",
"210 196 OFFCURVE",
"232 245 CURVE SMOOTH",
"244 272 OFFCURVE",
"252 303 OFFCURVE",
"262 332 CURVE"
);
}
);
width = 460;
}
);
},
{
color = 9;
glyphname = "sha-cy.ss01";
lastChange = "2017-12-15 09:51:13 +0000";
layers = (
{
layerId = UUID0;
paths = (
{
closed = 1;
nodes = (
"515 312 OFFCURVE",
"512 288 OFFCURVE",
"499 271 CURVE",
"499 260 OFFCURVE",
"461 165 OFFCURVE",
"454 154 CURVE",
"454 143 OFFCURVE",
"449 133 OFFCURVE",
"441 126 CURVE",
"433 126 OFFCURVE",
"398 123 OFFCURVE",
"393 119 CURVE",
"399 136 OFFCURVE",
"404 152 OFFCURVE",
"414 167 CURVE",
"416 178 OFFCURVE",
"439 247 OFFCURVE",
"445 252 CURVE",
"446 268 OFFCURVE",
"446 284 OFFCURVE",
"446 300 CURVE SMOOTH",
"446 300 OFFCURVE",
"447 298 OFFCURVE",
"447 299 CURVE SMOOTH",
"447 299 OFFCURVE",
"445 303 OFFCURVE",
"444 304 CURVE SMOOTH",
"441 308 OFFCURVE",
"438 312 OFFCURVE",
"435 316 CURVE SMOOTH",
"426 330 OFFCURVE",
"418 335 OFFCURVE",
"403 342 CURVE",
"393 339 OFFCURVE",
"383 335 OFFCURVE",
"375 328 CURVE SMOOTH",
"368 321 OFFCURVE",
"331 204 OFFCURVE",
"326 185 CURVE SMOOTH",
"319 162 OFFCURVE",
"299 128 OFFCURVE",
"299 109 CURVE",
"276 109 OFFCURVE",
"210 93 OFFCURVE",
"197 96 CURVE",
"216 163 OFFCURVE",
"262 273 OFFCURVE",
"302 328 CURVE",
"294 357 OFFCURVE",
"256 428 OFFCURVE",
"220 389 CURVE SMOOTH",
"211 379 OFFCURVE",
"174 289 OFFCURVE",
"169 270 CURVE",
"169 271 LINE",
"165 261 LINE",
"166 264 LINE SMOOTH",
"147 231 OFFCURVE",
"96 116 OFFCURVE",
"109 81 CURVE",
"111 81 OFFCURVE",
"111 77 OFFCURVE",
"111 74 CURVE SMOOTH",
"116 44 OFFCURVE",
"144 23 OFFCURVE",
"171 14 CURVE SMOOTH",
"215 0 OFFCURVE",
"341 31 OFFCURVE",
"397 31 CURVE SMOOTH",
"411 31 OFFCURVE",
"421 35 OFFCURVE",
"435 33 CURVE",
"440 36 OFFCURVE",
"446 38 OFFCURVE",
"452 40 CURVE",
"489 13 OFFCURVE",
"510 24 OFFCURVE",
"525 65 CURVE",
"524 59 LINE",
"548 106 OFFCURVE",
"567 159 OFFCURVE",
"581 210 CURVE SMOOTH",
"587 231 OFFCURVE",
"596 250 OFFCURVE",
"607 269 CURVE",
"605 305 LINE",
"592 324 OFFCURVE",
"574 338 OFFCURVE",
"553 347 CURVE",
"543 340 OFFCURVE",
"533 336 OFFCURVE",
"522 332 CURVE"
);
},
{
closed = 1;
nodes = (
"453 41 LINE",
"457 39 LINE",
"452 41 LINE",
"453 41 LINE"
);
}
);
width = 617;
},
{
layerId = "BF4C3430-0F48-4C30-8275-6D85863A5F93";
paths = (
{
closed = 1;
nodes = (
"515 312 OFFCURVE",
"512 288 OFFCURVE",
"499 271 CURVE",
"499 260 OFFCURVE",
"461 165 OFFCURVE",
"454 154 CURVE",
"454 143 OFFCURVE",
"449 133 OFFCURVE",
"441 126 CURVE",
"433 126 OFFCURVE",
"398 123 OFFCURVE",
"393 119 CURVE",
"399 136 OFFCURVE",
"404 152 OFFCURVE",
"414 167 CURVE",
"416 178 OFFCURVE",
"439 247 OFFCURVE",
"445 252 CURVE",
"446 268 OFFCURVE",
"446 284 OFFCURVE",
"446 300 CURVE SMOOTH",
"446 300 OFFCURVE",
"447 298 OFFCURVE",
"447 299 CURVE SMOOTH",
"447 299 OFFCURVE",
"445 303 OFFCURVE",
"444 304 CURVE SMOOTH",
"441 308 OFFCURVE",
"438 312 OFFCURVE",
"435 316 CURVE SMOOTH",
"426 330 OFFCURVE",
"418 335 OFFCURVE",
"403 342 CURVE",
"393 339 OFFCURVE",
"383 335 OFFCURVE",
"375 328 CURVE SMOOTH",
"368 321 OFFCURVE",
"331 204 OFFCURVE",
"326 185 CURVE SMOOTH",
"319 162 OFFCURVE",
"299 128 OFFCURVE",
"299 109 CURVE",
"276 109 OFFCURVE",
"210 93 OFFCURVE",
"197 96 CURVE",
"216 163 OFFCURVE",
"262 273 OFFCURVE",
"302 328 CURVE",
"294 357 OFFCURVE",
"256 428 OFFCURVE",
"220 389 CURVE SMOOTH",
"211 379 OFFCURVE",
"174 289 OFFCURVE",
"169 270 CURVE",
"169 271 LINE",
"165 261 LINE",
"166 264 LINE SMOOTH",
"147 231 OFFCURVE",
"96 116 OFFCURVE",
"109 81 CURVE",
"111 81 OFFCURVE",
"111 77 OFFCURVE",
"111 74 CURVE SMOOTH",
"116 44 OFFCURVE",
"144 23 OFFCURVE",
"171 14 CURVE SMOOTH",
"215 0 OFFCURVE",
"341 31 OFFCURVE",
"397 31 CURVE SMOOTH",
"411 31 OFFCURVE",
"421 35 OFFCURVE",
"435 33 CURVE",
"440 36 OFFCURVE",
"446 38 OFFCURVE",
"452 40 CURVE",
"489 13 OFFCURVE",
"510 24 OFFCURVE",
"525 65 CURVE",
"524 59 LINE",
"548 106 OFFCURVE",
"567 159 OFFCURVE",
"581 210 CURVE SMOOTH",
"587 231 OFFCURVE",
"596 250 OFFCURVE",
"607 269 CURVE",
"605 305 LINE",
"592 324 OFFCURVE",
"574 338 OFFCURVE",
"553 347 CURVE",
"543 340 OFFCURVE",
"533 336 OFFCURVE",
"522 332 CURVE"
);
},
{
closed = 1;
nodes = (
"453 41 LINE",
"457 39 LINE",
"452 41 LINE",
"453 41 LINE"
);
}
);
width = 617;
}
);
},
